<?xml version="1.0" encoding="utf-8" standalone="no"?>
<!DOCTYPE svg PUBLIC "-//W3C//DTD SVG 1.1//EN"
  "http://www.w3.org/Graphics/SVG/1.1/DTD/svg11.dtd">
<svg xmlns:xlink="http://www.w3.org/1999/xlink" width="460.8pt" height="345.6pt" viewBox="0 0 460.8 345.6" xmlns="http://www.w3.org/2000/svg" version="1.1">
 <metadata>
  <rdf:RDF xmlns:dc="http://purl.org/dc/elements/1.1/" xmlns:cc="http://creativecommons.org/ns#" xmlns:rdf="http://www.w3.org/1999/02/22-rdf-syntax-ns#">
   <cc:Work>
    <dc:type rdf:resource="http://purl.org/dc/dcmitype/StillImage"/>
    <dc:date>2023-11-29T21:15:16.799224</dc:date>
    <dc:format>image/svg+xml</dc:format>
    <dc:creator>
     <cc:Agent>
      <dc:title>Matplotlib v3.7.2, https://matplotlib.org/</dc:title>
     </cc:Agent>
    </dc:creator>
   </cc:Work>
  </rdf:RDF>
 </metadata>
 <defs>
  <style type="text/css">*{stroke-linejoin: round; stroke-linecap: butt}</style>
 </defs>
 <g id="figure_1">
  <g id="patch_1">
   <path d="M 0 345.6 
L 460.8 345.6 
L 460.8 0 
L 0 0 
z
" style="fill: #ffffff"/>
  </g>
  <g id="axes_1">
   <g id="patch_2">
    <path d="M 57.6 307.584 
L 414.72 307.584 
L 414.72 41.472 
L 57.6 41.472 
z
" style="fill: #ffffff"/>
   </g>
   <g id="matplotlib.axis_1">
    <g id="xtick_1">
     <g id="line2d_1">
      <path d="M 65.952763 307.584 
L 65.952763 41.472 
" clip-path="url(#pc480d0b0ae)" style="fill: none; stroke: #b0b0b0; stroke-width: 0.8; stroke-linecap: square"/>
     </g>
     <g id="line2d_2">
      <defs>
       <path id="m4dcf5ab7e1" d="M 0 0 
L 0 3.5 
" style="stroke: #000000; stroke-width: 0.8"/>
      </defs>
      <g>
       <use xlink:href="#m4dcf5ab7e1" x="65.952763" y="307.584" style="stroke: #000000; stroke-width: 0.8"/>
      </g>
     </g>
     <g id="text_1">
      <!-- 0 -->
      <g transform="translate(62.771513 322.182437) scale(0.1 -0.1)">
       <defs>
        <path id="DejaVuSans-30" d="M 2034 4250 
Q 1547 4250 1301 3770 
Q 1056 3291 1056 2328 
Q 1056 1369 1301 889 
Q 1547 409 2034 409 
Q 2525 409 2770 889 
Q 3016 1369 3016 2328 
Q 3016 3291 2770 3770 
Q 2525 4250 2034 4250 
z
M 2034 4750 
Q 2819 4750 3233 4129 
Q 3647 3509 3647 2328 
Q 3647 1150 3233 529 
Q 2819 -91 2034 -91 
Q 1250 -91 836 529 
Q 422 1150 422 2328 
Q 422 3509 836 4129 
Q 1250 4750 2034 4750 
z
" transform="scale(0.015625)"/>
       </defs>
       <use xlink:href="#DejaVuSans-30"/>
      </g>
     </g>
    </g>
    <g id="xtick_2">
     <g id="line2d_3">
      <path d="M 128.99248 307.584 
L 128.99248 41.472 
" clip-path="url(#pc480d0b0ae)" style="fill: none; stroke: #b0b0b0; stroke-width: 0.8; stroke-linecap: square"/>
     </g>
     <g id="line2d_4">
      <g>
       <use xlink:href="#m4dcf5ab7e1" x="128.99248" y="307.584" style="stroke: #000000; stroke-width: 0.8"/>
      </g>
     </g>
     <g id="text_2">
      <!-- 2 -->
      <g transform="translate(125.81123 322.182437) scale(0.1 -0.1)">
       <defs>
        <path id="DejaVuSans-32" d="M 1228 531 
L 3431 531 
L 3431 0 
L 469 0 
L 469 531 
Q 828 903 1448 1529 
Q 2069 2156 2228 2338 
Q 2531 2678 2651 2914 
Q 2772 3150 2772 3378 
Q 2772 3750 2511 3984 
Q 2250 4219 1831 4219 
Q 1534 4219 1204 4116 
Q 875 4013 500 3803 
L 500 4441 
Q 881 4594 1212 4672 
Q 1544 4750 1819 4750 
Q 2544 4750 2975 4387 
Q 3406 4025 3406 3419 
Q 3406 3131 3298 2873 
Q 3191 2616 2906 2266 
Q 2828 2175 2409 1742 
Q 1991 1309 1228 531 
z
" transform="scale(0.015625)"/>
       </defs>
       <use xlink:href="#DejaVuSans-32"/>
      </g>
     </g>
    </g>
    <g id="xtick_3">
     <g id="line2d_5">
      <path d="M 192.032198 307.584 
L 192.032198 41.472 
" clip-path="url(#pc480d0b0ae)" style="fill: none; stroke: #b0b0b0; stroke-width: 0.8; stroke-linecap: square"/>
     </g>
     <g id="line2d_6">
      <g>
       <use xlink:href="#m4dcf5ab7e1" x="192.032198" y="307.584" style="stroke: #000000; stroke-width: 0.8"/>
      </g>
     </g>
     <g id="text_3">
      <!-- 4 -->
      <g transform="translate(188.850948 322.182437) scale(0.1 -0.1)">
       <defs>
        <path id="DejaVuSans-34" d="M 2419 4116 
L 825 1625 
L 2419 1625 
L 2419 4116 
z
M 2253 4666 
L 3047 4666 
L 3047 1625 
L 3713 1625 
L 3713 1100 
L 3047 1100 
L 3047 0 
L 2419 0 
L 2419 1100 
L 313 1100 
L 313 1709 
L 2253 4666 
z
" transform="scale(0.015625)"/>
       </defs>
       <use xlink:href="#DejaVuSans-34"/>
      </g>
     </g>
    </g>
    <g id="xtick_4">
     <g id="line2d_7">
      <path d="M 255.071915 307.584 
L 255.071915 41.472 
" clip-path="url(#pc480d0b0ae)" style="fill: none; stroke: #b0b0b0; stroke-width: 0.8; stroke-linecap: square"/>
     </g>
     <g id="line2d_8">
      <g>
       <use xlink:href="#m4dcf5ab7e1" x="255.071915" y="307.584" style="stroke: #000000; stroke-width: 0.8"/>
      </g>
     </g>
     <g id="text_4">
      <!-- 6 -->
      <g transform="translate(251.890665 322.182437) scale(0.1 -0.1)">
       <defs>
        <path id="DejaVuSans-36" d="M 2113 2584 
Q 1688 2584 1439 2293 
Q 1191 2003 1191 1497 
Q 1191 994 1439 701 
Q 1688 409 2113 409 
Q 2538 409 2786 701 
Q 3034 994 3034 1497 
Q 3034 2003 2786 2293 
Q 2538 2584 2113 2584 
z
M 3366 4563 
L 3366 3988 
Q 3128 4100 2886 4159 
Q 2644 4219 2406 4219 
Q 1781 4219 1451 3797 
Q 1122 3375 1075 2522 
Q 1259 2794 1537 2939 
Q 1816 3084 2150 3084 
Q 2853 3084 3261 2657 
Q 3669 2231 3669 1497 
Q 3669 778 3244 343 
Q 2819 -91 2113 -91 
Q 1303 -91 875 529 
Q 447 1150 447 2328 
Q 447 3434 972 4092 
Q 1497 4750 2381 4750 
Q 2619 4750 2861 4703 
Q 3103 4656 3366 4563 
z
" transform="scale(0.015625)"/>
       </defs>
       <use xlink:href="#DejaVuSans-36"/>
      </g>
     </g>
    </g>
    <g id="xtick_5">
     <g id="line2d_9">
      <path d="M 318.111633 307.584 
L 318.111633 41.472 
" clip-path="url(#pc480d0b0ae)" style="fill: none; stroke: #b0b0b0; stroke-width: 0.8; stroke-linecap: square"/>
     </g>
     <g id="line2d_10">
      <g>
       <use xlink:href="#m4dcf5ab7e1" x="318.111633" y="307.584" style="stroke: #000000; stroke-width: 0.8"/>
      </g>
     </g>
     <g id="text_5">
      <!-- 8 -->
      <g transform="translate(314.930383 322.182437) scale(0.1 -0.1)">
       <defs>
        <path id="DejaVuSans-38" d="M 2034 2216 
Q 1584 2216 1326 1975 
Q 1069 1734 1069 1313 
Q 1069 891 1326 650 
Q 1584 409 2034 409 
Q 2484 409 2743 651 
Q 3003 894 3003 1313 
Q 3003 1734 2745 1975 
Q 2488 2216 2034 2216 
z
M 1403 2484 
Q 997 2584 770 2862 
Q 544 3141 544 3541 
Q 544 4100 942 4425 
Q 1341 4750 2034 4750 
Q 2731 4750 3128 4425 
Q 3525 4100 3525 3541 
Q 3525 3141 3298 2862 
Q 3072 2584 2669 2484 
Q 3125 2378 3379 2068 
Q 3634 1759 3634 1313 
Q 3634 634 3220 271 
Q 2806 -91 2034 -91 
Q 1263 -91 848 271 
Q 434 634 434 1313 
Q 434 1759 690 2068 
Q 947 2378 1403 2484 
z
M 1172 3481 
Q 1172 3119 1398 2916 
Q 1625 2713 2034 2713 
Q 2441 2713 2670 2916 
Q 2900 3119 2900 3481 
Q 2900 3844 2670 4047 
Q 2441 4250 2034 4250 
Q 1625 4250 1398 4047 
Q 1172 3844 1172 3481 
z
" transform="scale(0.015625)"/>
       </defs>
       <use xlink:href="#DejaVuSans-38"/>
      </g>
     </g>
    </g>
    <g id="xtick_6">
     <g id="line2d_11">
      <path d="M 381.15135 307.584 
L 381.15135 41.472 
" clip-path="url(#pc480d0b0ae)" style="fill: none; stroke: #b0b0b0; stroke-width: 0.8; stroke-linecap: square"/>
     </g>
     <g id="line2d_12">
      <g>
       <use xlink:href="#m4dcf5ab7e1" x="381.15135" y="307.584" style="stroke: #000000; stroke-width: 0.8"/>
      </g>
     </g>
     <g id="text_6">
      <!-- 10 -->
      <g transform="translate(374.78885 322.182437) scale(0.1 -0.1)">
       <defs>
        <path id="DejaVuSans-31" d="M 794 531 
L 1825 531 
L 1825 4091 
L 703 3866 
L 703 4441 
L 1819 4666 
L 2450 4666 
L 2450 531 
L 3481 531 
L 3481 0 
L 794 0 
L 794 531 
z
" transform="scale(0.015625)"/>
       </defs>
       <use xlink:href="#DejaVuSans-31"/>
       <use xlink:href="#DejaVuSans-30" x="63.623047"/>
      </g>
     </g>
    </g>
    <g id="text_7">
     <!-- Time (s) -->
     <g transform="translate(215.831094 335.860562) scale(0.1 -0.1)">
      <defs>
       <path id="DejaVuSans-54" d="M -19 4666 
L 3928 4666 
L 3928 4134 
L 2272 4134 
L 2272 0 
L 1638 0 
L 1638 4134 
L -19 4134 
L -19 4666 
z
" transform="scale(0.015625)"/>
       <path id="DejaVuSans-69" d="M 603 3500 
L 1178 3500 
L 1178 0 
L 603 0 
L 603 3500 
z
M 603 4863 
L 1178 4863 
L 1178 4134 
L 603 4134 
L 603 4863 
z
" transform="scale(0.015625)"/>
       <path id="DejaVuSans-6d" d="M 3328 2828 
Q 3544 3216 3844 3400 
Q 4144 3584 4550 3584 
Q 5097 3584 5394 3201 
Q 5691 2819 5691 2113 
L 5691 0 
L 5113 0 
L 5113 2094 
Q 5113 2597 4934 2840 
Q 4756 3084 4391 3084 
Q 3944 3084 3684 2787 
Q 3425 2491 3425 1978 
L 3425 0 
L 2847 0 
L 2847 2094 
Q 2847 2600 2669 2842 
Q 2491 3084 2119 3084 
Q 1678 3084 1418 2786 
Q 1159 2488 1159 1978 
L 1159 0 
L 581 0 
L 581 3500 
L 1159 3500 
L 1159 2956 
Q 1356 3278 1631 3431 
Q 1906 3584 2284 3584 
Q 2666 3584 2933 3390 
Q 3200 3197 3328 2828 
z
" transform="scale(0.015625)"/>
       <path id="DejaVuSans-65" d="M 3597 1894 
L 3597 1613 
L 953 1613 
Q 991 1019 1311 708 
Q 1631 397 2203 397 
Q 2534 397 2845 478 
Q 3156 559 3463 722 
L 3463 178 
Q 3153 47 2828 -22 
Q 2503 -91 2169 -91 
Q 1331 -91 842 396 
Q 353 884 353 1716 
Q 353 2575 817 3079 
Q 1281 3584 2069 3584 
Q 2775 3584 3186 3129 
Q 3597 2675 3597 1894 
z
M 3022 2063 
Q 3016 2534 2758 2815 
Q 2500 3097 2075 3097 
Q 1594 3097 1305 2825 
Q 1016 2553 972 2059 
L 3022 2063 
z
" transform="scale(0.015625)"/>
       <path id="DejaVuSans-20" transform="scale(0.015625)"/>
       <path id="DejaVuSans-28" d="M 1984 4856 
Q 1566 4138 1362 3434 
Q 1159 2731 1159 2009 
Q 1159 1288 1364 580 
Q 1569 -128 1984 -844 
L 1484 -844 
Q 1016 -109 783 600 
Q 550 1309 550 2009 
Q 550 2706 781 3412 
Q 1013 4119 1484 4856 
L 1984 4856 
z
" transform="scale(0.015625)"/>
       <path id="DejaVuSans-73" d="M 2834 3397 
L 2834 2853 
Q 2591 2978 2328 3040 
Q 2066 3103 1784 3103 
Q 1356 3103 1142 2972 
Q 928 2841 928 2578 
Q 928 2378 1081 2264 
Q 1234 2150 1697 2047 
L 1894 2003 
Q 2506 1872 2764 1633 
Q 3022 1394 3022 966 
Q 3022 478 2636 193 
Q 2250 -91 1575 -91 
Q 1294 -91 989 -36 
Q 684 19 347 128 
L 347 722 
Q 666 556 975 473 
Q 1284 391 1588 391 
Q 1994 391 2212 530 
Q 2431 669 2431 922 
Q 2431 1156 2273 1281 
Q 2116 1406 1581 1522 
L 1381 1569 
Q 847 1681 609 1914 
Q 372 2147 372 2553 
Q 372 3047 722 3315 
Q 1072 3584 1716 3584 
Q 2034 3584 2315 3537 
Q 2597 3491 2834 3397 
z
" transform="scale(0.015625)"/>
       <path id="DejaVuSans-29" d="M 513 4856 
L 1013 4856 
Q 1481 4119 1714 3412 
Q 1947 2706 1947 2009 
Q 1947 1309 1714 600 
Q 1481 -109 1013 -844 
L 513 -844 
Q 928 -128 1133 580 
Q 1338 1288 1338 2009 
Q 1338 2731 1133 3434 
Q 928 4138 513 4856 
z
" transform="scale(0.015625)"/>
      </defs>
      <use xlink:href="#DejaVuSans-54"/>
      <use xlink:href="#DejaVuSans-69" x="57.958984"/>
      <use xlink:href="#DejaVuSans-6d" x="85.742188"/>
      <use xlink:href="#DejaVuSans-65" x="183.154297"/>
      <use xlink:href="#DejaVuSans-20" x="244.677734"/>
      <use xlink:href="#DejaVuSans-28" x="276.464844"/>
      <use xlink:href="#DejaVuSans-73" x="315.478516"/>
      <use xlink:href="#DejaVuSans-29" x="367.578125"/>
     </g>
    </g>
   </g>
   <g id="matplotlib.axis_2">
    <g id="ytick_1">
     <g id="line2d_13">
      <path d="M 57.6 288.021572 
L 414.72 288.021572 
" clip-path="url(#pc480d0b0ae)" style="fill: none; stroke: #b0b0b0; stroke-width: 0.8; stroke-linecap: square"/>
     </g>
     <g id="line2d_14">
      <defs>
       <path id="mab507d6c60" d="M 0 0 
L -3.5 0 
" style="stroke: #000000; stroke-width: 0.8"/>
      </defs>
      <g>
       <use xlink:href="#mab507d6c60" x="57.6" y="288.021572" style="stroke: #000000; stroke-width: 0.8"/>
      </g>
     </g>
     <g id="text_8">
      <!-- −1.5 -->
      <g transform="translate(26.317187 291.820791) scale(0.1 -0.1)">
       <defs>
        <path id="DejaVuSans-2212" d="M 678 2272 
L 4684 2272 
L 4684 1741 
L 678 1741 
L 678 2272 
z
" transform="scale(0.015625)"/>
        <path id="DejaVuSans-2e" d="M 684 794 
L 1344 794 
L 1344 0 
L 684 0 
L 684 794 
z
" transform="scale(0.015625)"/>
        <path id="DejaVuSans-35" d="M 691 4666 
L 3169 4666 
L 3169 4134 
L 1269 4134 
L 1269 2991 
Q 1406 3038 1543 3061 
Q 1681 3084 1819 3084 
Q 2600 3084 3056 2656 
Q 3513 2228 3513 1497 
Q 3513 744 3044 326 
Q 2575 -91 1722 -91 
Q 1428 -91 1123 -41 
Q 819 9 494 109 
L 494 744 
Q 775 591 1075 516 
Q 1375 441 1709 441 
Q 2250 441 2565 725 
Q 2881 1009 2881 1497 
Q 2881 1984 2565 2268 
Q 2250 2553 1709 2553 
Q 1456 2553 1204 2497 
Q 953 2441 691 2322 
L 691 4666 
z
" transform="scale(0.015625)"/>
       </defs>
       <use xlink:href="#DejaVuSans-2212"/>
       <use xlink:href="#DejaVuSans-31" x="83.789062"/>
       <use xlink:href="#DejaVuSans-2e" x="147.412109"/>
       <use xlink:href="#DejaVuSans-35" x="179.199219"/>
      </g>
     </g>
    </g>
    <g id="ytick_2">
     <g id="line2d_15">
      <path d="M 57.6 244.625298 
L 414.72 244.625298 
" clip-path="url(#pc480d0b0ae)" style="fill: none; stroke: #b0b0b0; stroke-width: 0.8; stroke-linecap: square"/>
     </g>
     <g id="line2d_16">
      <g>
       <use xlink:href="#mab507d6c60" x="57.6" y="244.625298" style="stroke: #000000; stroke-width: 0.8"/>
      </g>
     </g>
     <g id="text_9">
      <!-- −1.0 -->
      <g transform="translate(26.317187 248.424516) scale(0.1 -0.1)">
       <use xlink:href="#DejaVuSans-2212"/>
       <use xlink:href="#DejaVuSans-31" x="83.789062"/>
       <use xlink:href="#DejaVuSans-2e" x="147.412109"/>
       <use xlink:href="#DejaVuSans-30" x="179.199219"/>
      </g>
     </g>
    </g>
    <g id="ytick_3">
     <g id="line2d_17">
      <path d="M 57.6 201.229023 
L 414.72 201.229023 
" clip-path="url(#pc480d0b0ae)" style="fill: none; stroke: #b0b0b0; stroke-width: 0.8; stroke-linecap: square"/>
     </g>
     <g id="line2d_18">
      <g>
       <use xlink:href="#mab507d6c60" x="57.6" y="201.229023" style="stroke: #000000; stroke-width: 0.8"/>
      </g>
     </g>
     <g id="text_10">
      <!-- −0.5 -->
      <g transform="translate(26.317187 205.028241) scale(0.1 -0.1)">
       <use xlink:href="#DejaVuSans-2212"/>
       <use xlink:href="#DejaVuSans-30" x="83.789062"/>
       <use xlink:href="#DejaVuSans-2e" x="147.412109"/>
       <use xlink:href="#DejaVuSans-35" x="179.199219"/>
      </g>
     </g>
    </g>
    <g id="ytick_4">
     <g id="line2d_19">
      <path d="M 57.6 157.832748 
L 414.72 157.832748 
" clip-path="url(#pc480d0b0ae)" style="fill: none; stroke: #b0b0b0; stroke-width: 0.8; stroke-linecap: square"/>
     </g>
     <g id="line2d_20">
      <g>
       <use xlink:href="#mab507d6c60" x="57.6" y="157.832748" style="stroke: #000000; stroke-width: 0.8"/>
      </g>
     </g>
     <g id="text_11">
      <!-- 0.0 -->
      <g transform="translate(34.696875 161.631967) scale(0.1 -0.1)">
       <use xlink:href="#DejaVuSans-30"/>
       <use xlink:href="#DejaVuSans-2e" x="63.623047"/>
       <use xlink:href="#DejaVuSans-30" x="95.410156"/>
      </g>
     </g>
    </g>
    <g id="ytick_5">
     <g id="line2d_21">
      <path d="M 57.6 114.436473 
L 414.72 114.436473 
" clip-path="url(#pc480d0b0ae)" style="fill: none; stroke: #b0b0b0; stroke-width: 0.8; stroke-linecap: square"/>
     </g>
     <g id="line2d_22">
      <g>
       <use xlink:href="#mab507d6c60" x="57.6" y="114.436473" style="stroke: #000000; stroke-width: 0.8"/>
      </g>
     </g>
     <g id="text_12">
      <!-- 0.5 -->
      <g transform="translate(34.696875 118.235692) scale(0.1 -0.1)">
       <use xlink:href="#DejaVuSans-30"/>
       <use xlink:href="#DejaVuSans-2e" x="63.623047"/>
       <use xlink:href="#DejaVuSans-35" x="95.410156"/>
      </g>
     </g>
    </g>
    <g id="ytick_6">
     <g id="line2d_23">
      <path d="M 57.6 71.040198 
L 414.72 71.040198 
" clip-path="url(#pc480d0b0ae)" style="fill: none; stroke: #b0b0b0; stroke-width: 0.8; stroke-linecap: square"/>
     </g>
     <g id="line2d_24">
      <g>
       <use xlink:href="#mab507d6c60" x="57.6" y="71.040198" style="stroke: #000000; stroke-width: 0.8"/>
      </g>
     </g>
     <g id="text_13">
      <!-- 1.0 -->
      <g transform="translate(34.696875 74.839417) scale(0.1 -0.1)">
       <use xlink:href="#DejaVuSans-31"/>
       <use xlink:href="#DejaVuSans-2e" x="63.623047"/>
       <use xlink:href="#DejaVuSans-30" x="95.410156"/>
      </g>
     </g>
    </g>
    <g id="text_14">
     <!-- Acceleration (m/s^2) -->
     <g transform="translate(20.2375 227.619406) rotate(-90) scale(0.1 -0.1)">
      <defs>
       <path id="DejaVuSans-41" d="M 2188 4044 
L 1331 1722 
L 3047 1722 
L 2188 4044 
z
M 1831 4666 
L 2547 4666 
L 4325 0 
L 3669 0 
L 3244 1197 
L 1141 1197 
L 716 0 
L 50 0 
L 1831 4666 
z
" transform="scale(0.015625)"/>
       <path id="DejaVuSans-63" d="M 3122 3366 
L 3122 2828 
Q 2878 2963 2633 3030 
Q 2388 3097 2138 3097 
Q 1578 3097 1268 2742 
Q 959 2388 959 1747 
Q 959 1106 1268 751 
Q 1578 397 2138 397 
Q 2388 397 2633 464 
Q 2878 531 3122 666 
L 3122 134 
Q 2881 22 2623 -34 
Q 2366 -91 2075 -91 
Q 1284 -91 818 406 
Q 353 903 353 1747 
Q 353 2603 823 3093 
Q 1294 3584 2113 3584 
Q 2378 3584 2631 3529 
Q 2884 3475 3122 3366 
z
" transform="scale(0.015625)"/>
       <path id="DejaVuSans-6c" d="M 603 4863 
L 1178 4863 
L 1178 0 
L 603 0 
L 603 4863 
z
" transform="scale(0.015625)"/>
       <path id="DejaVuSans-72" d="M 2631 2963 
Q 2534 3019 2420 3045 
Q 2306 3072 2169 3072 
Q 1681 3072 1420 2755 
Q 1159 2438 1159 1844 
L 1159 0 
L 581 0 
L 581 3500 
L 1159 3500 
L 1159 2956 
Q 1341 3275 1631 3429 
Q 1922 3584 2338 3584 
Q 2397 3584 2469 3576 
Q 2541 3569 2628 3553 
L 2631 2963 
z
" transform="scale(0.015625)"/>
       <path id="DejaVuSans-61" d="M 2194 1759 
Q 1497 1759 1228 1600 
Q 959 1441 959 1056 
Q 959 750 1161 570 
Q 1363 391 1709 391 
Q 2188 391 2477 730 
Q 2766 1069 2766 1631 
L 2766 1759 
L 2194 1759 
z
M 3341 1997 
L 3341 0 
L 2766 0 
L 2766 531 
Q 2569 213 2275 61 
Q 1981 -91 1556 -91 
Q 1019 -91 701 211 
Q 384 513 384 1019 
Q 384 1609 779 1909 
Q 1175 2209 1959 2209 
L 2766 2209 
L 2766 2266 
Q 2766 2663 2505 2880 
Q 2244 3097 1772 3097 
Q 1472 3097 1187 3025 
Q 903 2953 641 2809 
L 641 3341 
Q 956 3463 1253 3523 
Q 1550 3584 1831 3584 
Q 2591 3584 2966 3190 
Q 3341 2797 3341 1997 
z
" transform="scale(0.015625)"/>
       <path id="DejaVuSans-74" d="M 1172 4494 
L 1172 3500 
L 2356 3500 
L 2356 3053 
L 1172 3053 
L 1172 1153 
Q 1172 725 1289 603 
Q 1406 481 1766 481 
L 2356 481 
L 2356 0 
L 1766 0 
Q 1100 0 847 248 
Q 594 497 594 1153 
L 594 3053 
L 172 3053 
L 172 3500 
L 594 3500 
L 594 4494 
L 1172 4494 
z
" transform="scale(0.015625)"/>
       <path id="DejaVuSans-6f" d="M 1959 3097 
Q 1497 3097 1228 2736 
Q 959 2375 959 1747 
Q 959 1119 1226 758 
Q 1494 397 1959 397 
Q 2419 397 2687 759 
Q 2956 1122 2956 1747 
Q 2956 2369 2687 2733 
Q 2419 3097 1959 3097 
z
M 1959 3584 
Q 2709 3584 3137 3096 
Q 3566 2609 3566 1747 
Q 3566 888 3137 398 
Q 2709 -91 1959 -91 
Q 1206 -91 779 398 
Q 353 888 353 1747 
Q 353 2609 779 3096 
Q 1206 3584 1959 3584 
z
" transform="scale(0.015625)"/>
       <path id="DejaVuSans-6e" d="M 3513 2113 
L 3513 0 
L 2938 0 
L 2938 2094 
Q 2938 2591 2744 2837 
Q 2550 3084 2163 3084 
Q 1697 3084 1428 2787 
Q 1159 2491 1159 1978 
L 1159 0 
L 581 0 
L 581 3500 
L 1159 3500 
L 1159 2956 
Q 1366 3272 1645 3428 
Q 1925 3584 2291 3584 
Q 2894 3584 3203 3211 
Q 3513 2838 3513 2113 
z
" transform="scale(0.015625)"/>
       <path id="DejaVuSans-2f" d="M 1625 4666 
L 2156 4666 
L 531 -594 
L 0 -594 
L 1625 4666 
z
" transform="scale(0.015625)"/>
       <path id="DejaVuSans-5e" d="M 2988 4666 
L 4684 2925 
L 4056 2925 
L 2681 4159 
L 1306 2925 
L 678 2925 
L 2375 4666 
L 2988 4666 
z
" transform="scale(0.015625)"/>
      </defs>
      <use xlink:href="#DejaVuSans-41"/>
      <use xlink:href="#DejaVuSans-63" x="66.658203"/>
      <use xlink:href="#DejaVuSans-63" x="121.638672"/>
      <use xlink:href="#DejaVuSans-65" x="176.619141"/>
      <use xlink:href="#DejaVuSans-6c" x="238.142578"/>
      <use xlink:href="#DejaVuSans-65" x="265.925781"/>
      <use xlink:href="#DejaVuSans-72" x="327.449219"/>
      <use xlink:href="#DejaVuSans-61" x="368.5625"/>
      <use xlink:href="#DejaVuSans-74" x="429.841797"/>
      <use xlink:href="#DejaVuSans-69" x="469.050781"/>
      <use xlink:href="#DejaVuSans-6f" x="496.833984"/>
      <use xlink:href="#DejaVuSans-6e" x="558.015625"/>
      <use xlink:href="#DejaVuSans-20" x="621.394531"/>
      <use xlink:href="#DejaVuSans-28" x="653.181641"/>
      <use xlink:href="#DejaVuSans-6d" x="692.195312"/>
      <use xlink:href="#DejaVuSans-2f" x="789.607422"/>
      <use xlink:href="#DejaVuSans-73" x="823.298828"/>
      <use xlink:href="#DejaVuSans-5e" x="875.398438"/>
      <use xlink:href="#DejaVuSans-32" x="959.1875"/>
      <use xlink:href="#DejaVuSans-29" x="1022.810547"/>
     </g>
    </g>
   </g>
   <g id="line2d_25">
    <path d="M 73.832727 157.832748 
L 75.40872 158.705212 
L 79.191103 158.705212 
L 81.397493 157.832748 
L 83.288685 158.69273 
L 85.179876 158.680248 
L 87.071068 157.832748 
L 88.962259 158.759289 
L 90.853451 157.936753 
L 92.744643 158.576244 
L 94.635834 158.601208 
L 96.527026 159.552713 
L 104.091792 156.02126 
L 105.982983 156.99773 
L 107.874175 155.946368 
L 111.656558 156.107431 
L 113.547749 160.605852 
L 115.438941 162.370393 
L 117.330132 159.689942 
L 119.221324 147.241893 
L 121.112515 154.108103 
L 123.003707 155.551129 
L 124.894898 161.544875 
L 126.78609 165.715854 
L 128.677282 157.918955 
L 130.568473 160.708078 
L 132.459665 156.919856 
L 134.350856 156.925208 
L 136.242048 158.74801 
L 138.133239 122.558436 
L 140.024431 167.58625 
L 141.915622 173.082996 
L 143.806814 159.078433 
L 145.698005 158.954816 
L 147.589197 168.402141 
L 149.480388 162.447655 
L 151.37158 171.879516 
L 153.262771 171.264989 
L 155.153963 169.274605 
L 157.045154 168.568555 
L 159.251545 170.196997 
L 161.142736 172.73535 
L 163.033928 168.356397 
L 164.925119 168.995889 
L 166.816311 168.381361 
L 168.707502 174.250287 
L 170.598694 158.150725 
L 172.489885 162.044119 
L 174.381077 155.012105 
L 176.272268 154.848061 
L 178.16346 182.709271 
L 180.054651 178.500271 
L 181.945843 156.550173 
L 183.837034 159.317351 
L 185.728226 173.309486 
L 187.619417 194.016233 
L 189.510609 181.167036 
L 191.401801 161.233508 
L 193.292992 158.524592 
L 195.184184 161.842109 
L 197.075375 155.309895 
L 198.651368 158.963186 
L 200.54256 167.27596 
L 202.433751 172.732405 
L 204.324943 157.533736 
L 206.216134 167.510064 
L 208.107326 155.929738 
L 209.998517 172.67294 
L 211.889709 170.122105 
L 213.7809 158.874608 
L 215.98729 171.667358 
L 217.878482 169.893317 
L 219.769673 170.886417 
L 221.660865 170.313484 
L 223.552056 173.047364 
L 225.443248 171.446867 
L 227.019241 165.464436 
L 229.225631 176.7191 
L 231.116823 168.434271 
L 233.008014 163.93348 
L 234.899206 161.28577 
L 236.790397 153.916168 
L 238.681589 175.253534 
L 240.57278 180.193458 
L 242.463972 153.125707 
L 244.355163 161.277419 
L 246.246355 164.145063 
L 248.137546 172.00615 
L 250.028738 176.29121 
L 251.919929 169.634823 
L 253.811121 165.24637 
L 255.387114 167.961841 
L 257.278305 158.151964 
L 259.169497 161.17821 
L 261.060688 168.083033 
L 262.95188 184.113775 
L 264.843071 147.214594 
L 266.734263 155.108979 
L 268.625455 147.030382 
L 270.516646 166.474167 
L 272.407838 167.55464 
L 274.299029 166.590653 
L 276.190221 162.98016 
L 278.396611 168.439587 
L 280.287802 168.452069 
L 281.863795 167.629532 
L 283.754987 169.44102 
L 285.646178 169.270456 
L 287.53737 170.06388 
L 289.428561 174.143301 
L 291.319753 170.416321 
L 293.526143 166.597819 
L 295.417335 168.815825 
L 297.308526 159.073117 
L 299.199718 158.447886 
L 301.090909 166.407608 
L 302.982101 190.777219 
L 304.873292 180.632698 
L 306.764484 157.927198 
L 308.655675 157.21048 
L 310.546867 158.559613 
L 312.438058 170.77654 
L 314.32925 176.019696 
L 316.220441 169.526132 
L 318.111633 165.360504 
L 320.002824 140.972987 
L 321.894016 165.046604 
L 323.785207 160.412695 
L 325.676399 163.017606 
L 327.56759 161.260196 
L 329.458782 163.18817 
L 331.349974 162.315705 
L 333.241165 158.69273 
L 335.447555 163.109129 
L 337.338747 161.3642 
L 339.229938 163.096647 
L 341.12113 161.235232 
L 343.012321 161.480687 
L 346.794704 161.260196 
L 348.685896 161.351718 
L 350.577087 162.211701 
L 352.468279 161.468205 
L 354.35947 160.479254 
L 360.033045 160.491736 
L 361.924237 161.3642 
L 363.815428 160.491736 
L 365.70662 161.3642 
L 367.597811 161.376682 
L 369.489003 162.224183 
L 373.271386 160.608222 
L 375.162577 162.224183 
L 377.053769 161.3642 
L 378.94496 161.3642 
L 381.15135 162.236665 
L 383.042542 161.3642 
L 384.933733 161.480687 
L 386.824925 162.236665 
L 388.716117 161.376682 
L 390.607308 161.376682 
L 392.4985 162.211701 
L 394.70489 161.3642 
L 398.487273 161.3642 
L 398.487273 161.3642 
" clip-path="url(#pc480d0b0ae)" style="fill: none; stroke: #1f77b4; stroke-linecap: square"/>
   </g>
   <g id="line2d_26">
    <path d="M 73.832727 157.832748 
L 75.40872 156.971955 
L 77.299912 157.820266 
L 79.191103 156.971955 
L 81.397493 157.832748 
L 83.288685 157.820266 
L 85.179876 158.668577 
L 87.071068 157.832748 
L 88.962259 161.39656 
L 90.853451 158.864109 
L 92.744643 157.637215 
L 94.635834 155.940594 
L 96.527026 157.807784 
L 98.418217 158.668577 
L 100.309409 157.649697 
L 104.091792 155.97804 
L 105.982983 156.148608 
L 107.874175 161.067905 
L 109.765366 153.433107 
L 111.656558 159.957121 
L 113.547749 156.238993 
L 115.438941 154.920194 
L 117.330132 197.080078 
L 119.221324 195.497314 
L 121.112515 181.861169 
L 123.003707 171.729846 
L 124.894898 158.954495 
L 126.78609 135.255488 
L 128.677282 137.509972 
L 130.568473 153.919848 
L 132.459665 167.805224 
L 134.350856 165.705816 
L 136.242048 152.327613 
L 138.133239 276.234764 
L 140.024431 89.714843 
L 141.915622 176.093913 
L 143.806814 165.741742 
L 145.698005 164.307594 
L 147.589197 165.018602 
L 149.480388 154.297671 
L 151.37158 162.423742 
L 153.262771 161.954014 
L 155.153963 164.15781 
L 157.045154 161.808409 
L 159.251545 159.903773 
L 161.142736 154.593411 
L 163.033928 151.927838 
L 164.925119 150.700944 
L 166.816311 150.231216 
L 168.707502 145.938973 
L 170.598694 147.79333 
L 172.489885 149.323915 
L 174.381077 155.13616 
L 176.272268 162.813695 
L 178.16346 136.293632 
L 180.054651 149.269807 
L 181.945843 177.887379 
L 183.837034 165.125269 
L 185.728226 139.872966 
L 187.619417 132.115599 
L 189.510609 117.875492 
L 191.401801 120.524461 
L 193.292992 121.227167 
L 195.184184 109.825834 
L 197.075375 131.426191 
L 198.651368 131.339577 
L 200.54256 126.424051 
L 202.433751 136.858305 
L 204.324943 203.610902 
L 206.216134 165.476608 
L 208.107326 154.098367 
L 209.998517 158.834966 
L 211.889709 164.993638 
L 213.7809 147.195011 
L 215.98729 152.54317 
L 217.878482 148.143529 
L 219.769673 155.283635 
L 221.660865 160.086823 
L 223.552056 157.687495 
L 225.443248 151.328759 
L 227.019241 148.8712 
L 229.225631 143.619068 
L 231.116823 140.271222 
L 233.008014 139.522007 
L 234.899206 145.900416 
L 236.790397 161.349292 
L 238.681589 123.46157 
L 240.57278 171.892815 
L 242.463972 170.522245 
L 244.355163 166.717504 
L 246.246355 136.134814 
L 248.137546 132.989282 
L 250.028738 129.307841 
L 251.919929 124.055358 
L 253.811121 115.671345 
L 255.387114 102.951972 
L 257.278305 113.574216 
L 259.169497 138.168042 
L 261.060688 136.371564 
L 262.95188 53.568 
L 264.843071 168.424737 
L 266.734263 154.916423 
L 268.625455 150.280793 
L 270.516646 162.980844 
L 272.407838 164.182774 
L 274.299029 163.163894 
L 276.190221 158.606167 
L 278.396611 162.47367 
L 280.287802 161.625359 
L 281.863795 159.092908 
L 283.754987 160.947616 
L 285.646178 156.339961 
L 287.53737 152.751185 
L 289.428561 151.474363 
L 291.319753 146.733585 
L 293.526143 140.113135 
L 295.417335 140.374849 
L 297.308526 143.539294 
L 299.199718 147.268383 
L 301.090909 159.40455 
L 302.982101 108.675295 
L 304.873292 146.669275 
L 306.764484 189.598455 
L 308.655675 167.146015 
L 310.546867 150.667678 
L 312.438058 106.631134 
L 314.32925 68.49836 
L 316.220441 77.636527 
L 318.111633 99.236125 
L 320.002824 201.516813 
L 321.894016 165.697105 
L 323.785207 157.795302 
L 325.676399 156.061234 
L 327.56759 158.631131 
L 329.458782 160.668889 
L 331.349974 161.529682 
L 333.241165 157.820266 
L 335.447555 157.940906 
L 337.338747 159.662492 
L 339.229938 158.789217 
L 341.12113 160.327753 
L 343.012321 159.845543 
L 344.903513 158.814181 
L 346.794704 158.631131 
L 348.685896 160.510803 
L 350.577087 160.498321 
L 352.468279 160.693853 
L 354.35947 161.371596 
L 356.250662 160.523285 
L 360.033045 160.523285 
L 361.924237 159.662492 
L 363.815428 160.523285 
L 367.597811 158.814181 
L 369.489003 159.65001 
L 371.380194 159.662492 
L 373.271386 160.706335 
L 375.162577 159.65001 
L 378.94496 159.662492 
L 381.15135 158.801699 
L 383.042542 159.662492 
L 384.933733 159.845543 
L 386.824925 158.801699 
L 390.607308 158.814181 
L 392.4985 160.498321 
L 394.70489 159.662492 
L 398.487273 159.662492 
L 398.487273 159.662492 
" clip-path="url(#pc480d0b0ae)" style="fill: none; stroke: #ff7f0e; stroke-linecap: square"/>
   </g>
   <g id="line2d_27">
    <path d="M 73.832727 248.36782 
L 75.40872 248.301256 
L 77.299912 248.484307 
L 79.191103 248.301256 
L 83.288685 248.484307 
L 85.179876 248.667357 
L 87.071068 248.36782 
L 88.962259 248.37614 
L 90.853451 247.710503 
L 92.744643 249.324674 
L 96.527026 248.600793 
L 98.418217 248.667357 
L 100.309409 249.208188 
L 104.091792 248.609114 
L 105.982983 247.885232 
L 107.874175 249.707416 
L 109.765366 248.059962 
L 111.656558 254.86611 
L 113.547749 260.058085 
L 115.438941 266.29012 
L 117.330132 251.795855 
L 119.221324 233.590659 
L 121.112515 239.639643 
L 123.003707 253.767807 
L 124.894898 259.883355 
L 126.78609 258.884898 
L 128.677282 252.020508 
L 130.568473 246.121292 
L 132.459665 243.242408 
L 134.350856 236.511145 
L 136.242048 241.020842 
L 138.133239 269.268849 
L 140.024431 272.530475 
L 141.915622 234.738884 
L 143.806814 252.952401 
L 145.698005 247.244556 
L 147.589197 248.708959 
L 149.480388 252.719428 
L 151.37158 248.625755 
L 153.262771 246.645482 
L 155.153963 248.642396 
L 157.045154 247.13639 
L 159.251545 247.84363 
L 161.142736 247.935155 
L 163.033928 247.643939 
L 164.925119 249.258111 
L 166.816311 247.277838 
L 168.707502 255.22389 
L 170.598694 257.878121 
L 172.489885 255.165647 
L 174.381077 268.902749 
L 176.272268 258.002928 
L 178.16346 275.808742 
L 180.054651 256.538525 
L 181.945843 221.184833 
L 183.837034 218.788537 
L 185.728226 242.119144 
L 187.619417 263.020174 
L 189.510609 278.754189 
L 191.401801 277.464516 
L 193.292992 278.138474 
L 195.184184 265.358227 
L 197.075375 251.230063 
L 198.651368 243.650111 
L 200.54256 246.420829 
L 202.433751 239.58972 
L 204.324943 229.613473 
L 206.216134 242.410361 
L 208.107326 249.083381 
L 209.998517 248.850407 
L 211.889709 248.941933 
L 213.7809 252.469813 
L 215.98729 249.133304 
L 217.878482 248.825446 
L 219.769673 248.7256 
L 221.660865 247.003262 
L 223.552056 245.963203 
L 225.443248 250.630989 
L 227.019241 249.266431 
L 229.225631 249.682455 
L 231.116823 252.286763 
L 234.899206 266.864233 
L 236.790397 264.725871 
L 238.681589 264.809076 
L 240.57278 246.462432 
L 242.463972 226.276963 
L 244.355163 223.888987 
L 246.246355 238.241804 
L 248.137546 257.470418 
L 250.028738 270.708291 
L 251.919929 274.01984 
L 253.811121 279.6528 
L 257.278305 247.735464 
L 259.169497 240.962599 
L 261.060688 241.528391 
L 262.95188 243.641791 
L 264.843071 243.824841 
L 266.734263 261.697218 
L 268.625455 249.707416 
L 270.516646 249.790621 
L 272.407838 248.409422 
L 274.299029 248.950253 
L 276.190221 249.24979 
L 278.396611 248.159808 
L 280.287802 247.976758 
L 281.863795 247.31112 
L 283.754987 247.069826 
L 285.646178 247.83531 
L 287.53737 248.059962 
L 289.428561 250.140081 
L 291.319753 251.279986 
L 293.526143 252.894158 
L 295.417335 255.947771 
L 297.308526 257.079356 
L 299.199718 268.561609 
L 301.090909 249.898787 
L 302.982101 252.087072 
L 304.873292 227.583277 
L 306.764484 212.273606 
L 308.655675 221.625818 
L 312.438058 276.65743 
L 314.32925 272.663603 
L 316.220441 250.447938 
L 318.111633 244.715132 
L 320.002824 254.649777 
L 321.894016 241.220533 
L 323.785207 248.71728 
L 325.676399 248.700639 
L 327.56759 249.016817 
L 329.458782 247.935155 
L 331.349974 248.001719 
L 333.241165 248.484307 
L 335.447555 248.226372 
L 339.229938 248.409422 
L 341.12113 249.382918 
L 343.012321 247.519132 
L 344.903513 248.176449 
L 346.794704 249.016817 
L 348.685896 248.54255 
L 350.577087 248.659037 
L 352.468279 247.702182 
L 354.35947 248.609114 
L 356.250662 248.426063 
L 365.70662 248.359499 
L 367.597811 248.176449 
L 369.489003 248.475986 
L 371.380194 248.359499 
L 373.271386 247.585695 
L 375.162577 248.475986 
L 377.053769 248.359499 
L 383.042542 248.359499 
L 384.933733 247.519132 
L 386.824925 248.292936 
L 388.716117 248.176449 
L 390.607308 248.176449 
L 392.4985 248.659037 
L 394.70489 248.359499 
L 398.487273 248.359499 
L 398.487273 248.359499 
" clip-path="url(#pc480d0b0ae)" style="fill: none; stroke: #2ca02c; stroke-linecap: square"/>
   </g>
   <g id="line2d_28">
    <path d="M 73.832727 157.832748 
L 75.40872 157.832748 
L 77.299912 158.026947 
L 79.191103 158.026947 
L 81.397493 157.011324 
L 83.288685 158.026947 
L 85.179876 158.459973 
L 87.071068 157.832748 
L 90.853451 157.04805 
L 92.744643 158.459973 
L 94.635834 159.24467 
L 96.527026 159.871895 
L 102.2006 157.011324 
L 104.091792 157.003421 
L 105.982983 156.838046 
L 107.874175 156.040331 
L 109.765366 156.171429 
L 111.656558 153.250547 
L 115.438941 157.302807 
L 117.330132 154.901515 
L 119.221324 167.175448 
L 121.112515 162.102452 
L 123.003707 161.391206 
L 124.894898 154.76462 
L 126.78609 163.036501 
L 128.677282 156.57808 
L 130.568473 155.079348 
L 132.459665 156.462447 
L 134.350856 156.257556 
L 136.242048 151.297527 
L 138.133239 151.463244 
L 140.024431 161.894677 
L 141.915622 162.726546 
L 143.806814 166.747782 
L 145.698005 157.061067 
L 147.589197 172.20115 
L 149.480388 166.947313 
L 151.37158 179.124209 
L 153.262771 173.006767 
L 155.153963 172.4688 
L 157.045154 171.581828 
L 159.251545 167.891931 
L 161.142736 166.325202 
L 163.033928 160.596158 
L 164.925119 162.412283 
L 166.816311 165.099575 
L 168.707502 168.241154 
L 170.598694 169.920727 
L 172.489885 166.598089 
L 174.381077 161.5753 
L 176.272268 155.260406 
L 178.16346 167.220419 
L 180.054651 171.745097 
L 181.945843 176.872951 
L 183.837034 182.381298 
L 185.728226 180.202808 
L 187.619417 169.689338 
L 191.401801 182.3124 
L 193.292992 164.574407 
L 195.184184 167.742143 
L 197.075375 157.207753 
L 198.651368 159.68504 
L 200.54256 166.177739 
L 202.433751 153.676163 
L 204.324943 158.449157 
L 206.216134 177.289953 
L 208.107326 157.725359 
L 209.998517 172.156521 
L 211.889709 175.547279 
L 213.7809 162.165676 
L 215.98729 179.370939 
L 217.878482 175.518332 
L 219.769673 172.119795 
L 221.660865 170.660578 
L 225.443248 163.047411 
L 227.019241 161.352032 
L 229.225631 169.702819 
L 231.116823 163.601184 
L 233.008014 161.554257 
L 234.899206 164.013414 
L 236.790397 157.378584 
L 238.681589 150.109185 
L 240.57278 168.650813 
L 242.463972 169.506173 
L 244.355163 182.260551 
L 246.246355 176.940824 
L 248.137546 173.802034 
L 250.028738 168.146441 
L 251.919929 172.757247 
L 253.811121 176.683306 
L 255.387114 162.850205 
L 257.278305 163.755431 
L 259.169497 156.273362 
L 261.060688 166.169835 
L 262.95188 179.518337 
L 264.843071 164.760797 
L 266.734263 186.414992 
L 268.625455 154.431421 
L 270.516646 171.437372 
L 272.407838 168.411426 
L 274.299029 170.40083 
L 276.190221 169.340579 
L 278.396611 170.862679 
L 280.287802 171.114524 
L 281.863795 172.05158 
L 283.754987 169.175203 
L 285.646178 165.18093 
L 287.53737 163.068331 
L 289.428561 169.784174 
L 291.319753 164.811005 
L 293.526143 162.735132 
L 295.417335 175.253471 
L 297.308526 163.097277 
L 299.199718 159.016535 
L 301.090909 160.060515 
L 302.982101 160.081776 
L 304.873292 159.827484 
L 306.764484 166.228259 
L 308.655675 170.60814 
L 310.546867 173.898948 
L 312.438058 169.416574 
L 314.32925 164.052464 
L 316.220441 157.115924 
L 318.111633 155.612419 
L 320.002824 161.473709 
L 321.894016 170.072745 
L 323.785207 162.425423 
L 325.676399 166.28581 
L 327.56759 166.359262 
L 329.458782 166.590186 
L 331.349974 167.151862 
L 333.241165 163.231041 
L 335.447555 165.88951 
L 337.338747 164.881791 
L 339.229938 167.503534 
L 341.12113 165.270188 
L 343.012321 165.306914 
L 344.903513 163.627341 
L 346.794704 163.627341 
L 348.685896 164.291292 
L 350.577087 165.104812 
L 352.468279 164.679689 
L 354.35947 165.306914 
L 356.250662 165.075989 
L 358.141853 164.448764 
L 361.924237 165.695311 
L 363.815428 164.052464 
L 365.70662 164.873888 
L 367.597811 164.052464 
L 369.489003 165.068086 
L 373.271386 163.858266 
L 375.162577 164.873888 
L 377.053769 165.270188 
L 378.94496 164.448764 
L 381.15135 165.464387 
L 383.042542 165.270188 
L 384.933733 164.254566 
L 386.824925 164.642963 
L 390.607308 164.642963 
L 392.4985 165.501112 
L 394.70489 165.112715 
L 396.596081 165.501112 
L 398.487273 163.231041 
L 398.487273 163.231041 
" clip-path="url(#pc480d0b0ae)" style="fill: none; stroke: #d62728; stroke-linecap: square"/>
   </g>
   <g id="line2d_29">
    <path d="M 73.832727 157.832748 
L 75.40872 157.832748 
L 77.299912 157.021464 
L 79.191103 157.021464 
L 81.397493 157.593166 
L 83.288685 157.021464 
L 85.179876 158.883614 
L 87.071068 157.832748 
L 88.962259 158.838231 
L 90.853451 160.460799 
L 92.744643 158.883614 
L 94.635834 156.255563 
L 96.527026 157.306429 
L 98.418217 160.745764 
L 100.309409 157.638549 
L 102.2006 157.593166 
L 104.091792 156.97608 
L 105.982983 160.037912 
L 107.874175 161.649587 
L 109.765366 171.885949 
L 111.656558 183.438126 
L 113.547749 180.044174 
L 115.438941 180.352736 
L 117.330132 152.602014 
L 119.221324 152.493228 
L 121.112515 155.75103 
L 123.003707 164.114348 
L 124.894898 173.862425 
L 128.677282 187.663378 
L 130.568473 198.436952 
L 132.459665 194.609219 
L 134.350856 194.585623 
L 136.242048 206.66412 
L 138.133239 187.654257 
L 140.024431 203.426332 
L 141.915622 172.532133 
L 143.806814 182.999029 
L 145.698005 161.477176 
L 147.589197 161.517242 
L 149.480388 150.654674 
L 151.37158 158.943695 
L 153.262771 160.522653 
L 155.153963 166.441224 
L 157.045154 161.083461 
L 159.251545 160.513531 
L 161.142736 150.003098 
L 163.033928 149.959487 
L 164.925119 147.993905 
L 166.816311 150.151914 
L 168.707502 139.857503 
L 170.598694 143.2043 
L 172.489885 171.310702 
L 174.381077 178.488813 
L 176.272268 180.624961 
L 178.16346 140.029915 
L 180.054651 125.907772 
L 181.945843 126.933269 
L 183.837034 125.719113 
L 185.728226 131.340016 
L 187.619417 141.111652 
L 189.510609 155.105032 
L 191.401801 168.263531 
L 193.292992 189.019223 
L 197.075375 204.88007 
L 198.651368 206.615192 
L 200.54256 186.412959 
L 202.433751 248.620513 
L 204.324943 142.064403 
L 206.216134 159.493611 
L 208.107326 149.447643 
L 209.998517 158.032523 
L 211.889709 167.194459 
L 213.7809 160.687715 
L 215.98729 162.234215 
L 217.878482 148.959581 
L 219.769673 155.16489 
L 221.660865 169.023892 
L 223.552056 169.265246 
L 225.443248 149.661857 
L 227.019241 145.080889 
L 229.225631 142.164328 
L 231.116823 144.977456 
L 233.008014 160.87102 
L 234.899206 161.190475 
L 236.790397 186.269498 
L 238.681589 161.800175 
L 240.57278 123.920365 
L 242.463972 126.809786 
L 244.355163 132.265663 
L 246.246355 132.232946 
L 248.137546 142.745151 
L 250.028738 148.436807 
L 251.919929 157.014337 
L 253.811121 176.024238 
L 255.387114 182.187708 
L 257.278305 204.945468 
L 259.169497 195.819794 
L 261.060688 185.795873 
L 262.95188 237.64207 
L 264.843071 139.674161 
L 266.734263 185.082779 
L 268.625455 163.820262 
L 270.516646 165.778755 
L 272.407838 169.127324 
L 274.299029 164.716996 
L 276.190221 161.803979 
L 278.396611 168.829693 
L 280.287802 172.519504 
L 281.863795 165.813245 
L 283.754987 164.865811 
L 285.646178 156.504266 
L 287.53737 151.295319 
L 289.428561 148.51668 
L 291.319753 143.59447 
L 293.526143 141.253156 
L 295.417335 144.253394 
L 297.308526 169.530197 
L 299.199718 154.417009 
L 301.090909 156.059555 
L 302.982101 141.744985 
L 304.873292 121.889348 
L 306.764484 110.484213 
L 308.655675 117.005395 
L 310.546867 118.363013 
L 312.438058 135.788379 
L 314.32925 164.239604 
L 316.220441 165.760476 
L 318.111633 160.186728 
L 320.002824 138.606936 
L 321.894016 155.074124 
L 323.785207 164.994612 
L 325.676399 162.902001 
L 327.56759 168.637267 
L 329.458782 170.693616 
L 331.349974 166.626301 
L 333.241165 164.000022 
L 335.447555 163.907484 
L 337.338747 165.096272 
L 339.229938 162.1361 
L 341.12113 163.473703 
L 343.012321 166.341336 
L 344.903513 162.99454 
L 346.794704 162.99454 
L 348.685896 166.913039 
L 350.577087 166.535535 
L 352.468279 165.29047 
L 354.35947 166.341336 
L 356.250662 164.284987 
L 358.141853 163.234121 
L 360.033045 166.535535 
L 361.924237 164.718768 
L 363.815428 164.239604 
L 365.70662 164.479186 
L 367.597811 164.239604 
L 369.489003 163.667902 
L 371.380194 163.234121 
L 373.271386 165.050888 
L 375.162577 164.479186 
L 377.053769 163.473703 
L 378.94496 163.234121 
L 381.15135 162.662419 
L 383.042542 163.473703 
L 384.933733 164.045406 
L 386.824925 162.422837 
L 390.607308 162.422837 
L 392.4985 165.530052 
L 394.70489 167.152621 
L 398.487273 164.000022 
L 398.487273 164.000022 
" clip-path="url(#pc480d0b0ae)" style="fill: none; stroke: #9467bd; stroke-linecap: square"/>
   </g>
   <g id="line2d_30">
    <path d="M 73.832727 245.870517 
L 75.40872 245.870517 
L 77.299912 245.630935 
L 79.191103 245.630935 
L 81.397493 246.015978 
L 83.288685 245.630935 
L 85.179876 245.964639 
L 87.071068 245.870517 
L 88.962259 245.288676 
L 90.853451 245.767839 
L 94.635834 246.067317 
L 98.418217 246.298342 
L 100.309409 246.691941 
L 102.2006 246.015978 
L 105.982983 243.885411 
L 107.874175 247.213887 
L 109.765366 244.099323 
L 111.656558 246.632045 
L 113.547749 247.171104 
L 115.438941 254.076195 
L 117.330132 251.774498 
L 119.221324 243.226561 
L 121.112515 240.659612 
L 124.894898 239.410364 
L 126.78609 235.337473 
L 128.677282 241.309906 
L 130.568473 235.055109 
L 132.459665 236.561051 
L 134.350856 230.186463 
L 136.242048 232.428265 
L 138.133239 243.483255 
L 140.024431 229.972551 
L 141.915622 225.21514 
L 143.806814 249.626818 
L 145.698005 242.336685 
L 147.589197 245.040537 
L 149.480388 249.267445 
L 151.37158 243.645829 
L 153.262771 242.773066 
L 155.153963 244.304679 
L 157.045154 246.007421 
L 159.251545 244.946416 
L 161.142736 244.681165 
L 163.033928 243.329238 
L 164.925119 245.168885 
L 166.816311 243.183778 
L 168.707502 249.147655 
L 170.598694 248.608595 
L 172.489885 245.066207 
L 174.381077 254.418455 
L 176.272268 232.633621 
L 178.16346 254.024856 
L 180.054651 261.494676 
L 181.945843 255.890172 
L 183.837034 248.745499 
L 185.728226 240.522708 
L 187.619417 233.497827 
L 189.510609 235.251908 
L 191.401801 230.391819 
L 193.292992 236.911868 
L 195.184184 241.626496 
L 198.651368 233.104228 
L 200.54256 231.315921 
L 202.433751 268.356984 
L 204.324943 233.737408 
L 206.216134 249.729496 
L 208.107326 252.168097 
L 209.998517 244.22767 
L 211.889709 247.393573 
L 213.7809 249.147655 
L 215.98729 245.280119 
L 217.878482 243.089657 
L 219.769673 244.475809 
L 221.660865 243.526038 
L 223.552056 242.704614 
L 225.443248 246.324011 
L 227.019241 244.74106 
L 229.225631 245.665161 
L 231.116823 246.91441 
L 234.899206 255.231322 
L 236.790397 243.534594 
L 238.681589 245.040537 
L 240.57278 256.283771 
L 242.463972 250.337007 
L 244.355163 248.488804 
L 246.246355 244.287566 
L 248.137546 243.876854 
L 250.028738 242.028651 
L 251.919929 235.585611 
L 253.811121 237.279797 
L 255.387114 236.63806 
L 257.278305 232.625064 
L 259.169497 232.308474 
L 261.060688 230.254915 
L 262.95188 266.739807 
L 264.843071 234.370589 
L 266.734263 255.368226 
L 268.625455 241.703505 
L 270.516646 242.56771 
L 272.407838 241.352688 
L 274.299029 245.322902 
L 278.396611 244.347461 
L 280.287802 241.489592 
L 281.863795 246.092986 
L 283.754987 243.825515 
L 285.646178 243.748507 
L 287.53737 243.953863 
L 289.428561 246.22989 
L 291.319753 246.289785 
L 293.526143 246.247003 
L 295.417335 249.37868 
L 297.308526 248.257779 
L 299.199718 252.108202 
L 301.090909 234.815527 
L 304.873292 249.72094 
L 306.764484 246.366794 
L 308.655675 240.411474 
L 310.546867 235.337473 
L 312.438058 238.725845 
L 314.32925 244.937859 
L 316.220441 234.165233 
L 318.111633 242.388024 
L 320.002824 276.194733 
L 321.894016 243.123883 
L 323.785207 247.350791 
L 325.676399 244.989198 
L 329.458782 244.005201 
L 331.349974 245.656605 
L 335.447555 244.407357 
L 337.338747 245.853404 
L 339.229938 245.42558 
L 341.12113 245.374241 
L 343.012321 245.126102 
L 344.903513 245.665161 
L 346.794704 245.665161 
L 348.685896 245.511144 
L 350.577087 244.304679 
L 352.468279 245.031981 
L 354.35947 245.126102 
L 356.250662 245.613822 
L 358.141853 245.519701 
L 360.033045 244.304679 
L 363.815428 244.937859 
L 365.70662 244.792399 
L 367.597811 244.937859 
L 369.489003 244.552817 
L 371.380194 245.519701 
L 375.162577 244.792399 
L 377.053769 245.374241 
L 378.94496 245.519701 
L 381.15135 245.134659 
L 383.042542 245.374241 
L 384.933733 245.759283 
L 386.824925 245.280119 
L 390.607308 245.280119 
L 392.4985 244.88652 
L 394.70489 245.365684 
L 396.596081 244.88652 
L 398.487273 245.08332 
L 398.487273 245.08332 
" clip-path="url(#pc480d0b0ae)" style="fill: none; stroke: #8c564b; stroke-linecap: square"/>
   </g>
   <g id="line2d_31">
    <path d="M 73.832727 157.832748 
L 75.40872 157.832748 
L 77.299912 156.971341 
L 79.191103 156.876638 
L 81.397493 157.832748 
L 83.288685 156.971341 
L 85.179876 158.742155 
L 87.071068 156.971341 
L 88.962259 158.646155 
L 92.744643 157.114044 
L 94.635834 156.063231 
L 96.527026 155.29523 
L 98.418217 156.204637 
L 100.309409 156.063231 
L 102.2006 157.019341 
L 104.091792 157.832748 
L 105.982983 156.828638 
L 107.874175 154.577823 
L 109.765366 156.015231 
L 111.656558 157.258044 
L 113.547749 152.4749 
L 115.438941 154.968308 
L 117.330132 146.835536 
L 119.221324 151.910572 
L 121.112515 154.784091 
L 123.003707 156.98431 
L 124.894898 151.197056 
L 126.78609 153.110573 
L 128.677282 150.615867 
L 130.568473 153.633386 
L 132.459665 152.914682 
L 136.242048 154.825605 
L 138.133239 159.606155 
L 140.024431 159.460855 
L 141.915622 144.915533 
L 143.806814 179.364031 
L 145.698005 174.767701 
L 147.589197 178.20814 
L 149.480388 175.817216 
L 151.37158 167.492444 
L 153.262771 168.975258 
L 155.153963 171.414181 
L 157.045154 168.016553 
L 159.251545 161.227782 
L 161.142736 157.687451 
L 163.033928 158.262156 
L 164.925119 161.278376 
L 166.816311 152.233603 
L 168.707502 154.528526 
L 170.598694 156.592529 
L 172.489885 153.471227 
L 174.381077 155.222586 
L 176.272268 191.694868 
L 178.16346 184.667397 
L 180.054651 173.323806 
L 181.945843 169.691367 
L 183.837034 170.513853 
L 187.619417 167.549523 
L 189.510609 165.4946 
L 191.401801 162.196862 
L 193.292992 150.702789 
L 195.184184 151.699117 
L 197.075375 156.256527 
L 198.651368 162.479674 
L 200.54256 161.096752 
L 202.433751 203.714343 
L 204.324943 145.146456 
L 206.216134 182.528143 
L 208.107326 171.883806 
L 209.998517 182.424364 
L 211.889709 181.946956 
L 213.7809 171.078181 
L 215.98729 171.082072 
L 217.878482 163.80941 
L 221.660865 165.626927 
L 223.552056 164.426925 
L 225.443248 163.094596 
L 227.019241 154.28723 
L 229.225631 154.961824 
L 231.116823 160.083563 
L 233.008014 150.336957 
L 234.899206 166.777628 
L 236.790397 179.907605 
L 238.681589 196.773796 
L 240.57278 171.798182 
L 242.463972 172.039478 
L 244.355163 171.08726 
L 246.246355 171.660666 
L 248.137546 166.977414 
L 250.028738 165.062599 
L 251.919929 158.935453 
L 253.811121 163.198378 
L 255.387114 154.528526 
L 257.278305 159.12875 
L 259.169497 163.294378 
L 261.060688 163.63427 
L 262.95188 210.693815 
L 264.843071 139.98839 
L 266.734263 194.729247 
L 268.625455 169.592773 
L 270.516646 181.322956 
L 272.407838 172.371589 
L 274.299029 179.604032 
L 276.190221 170.41526 
L 278.396611 164.90952 
L 280.287802 165.626927 
L 281.863795 163.473409 
L 283.754987 157.451342 
L 285.646178 162.858487 
L 287.53737 161.851783 
L 289.428561 162.470595 
L 291.319753 157.308639 
L 293.526143 152.661712 
L 295.417335 147.982349 
L 297.308526 171.939585 
L 299.199718 165.37655 
L 301.090909 196.629794 
L 302.982101 186.824804 
L 304.873292 176.157107 
L 306.764484 180.08533 
L 308.655675 181.808144 
L 310.546867 176.16489 
L 312.438058 173.153856 
L 314.32925 175.066076 
L 316.220441 170.711042 
L 318.111633 168.365524 
L 320.002824 179.002087 
L 321.894016 171.76445 
L 323.785207 170.02607 
L 325.676399 165.864333 
L 327.56759 167.060443 
L 329.458782 165.960333 
L 331.349974 168.593851 
L 333.241165 169.408554 
L 335.447555 166.68163 
L 337.338747 165.77352 
L 339.229938 161.797298 
L 341.12113 163.330706 
L 343.012321 166.72963 
L 344.903513 167.544334 
L 346.794704 165.72552 
L 348.685896 165.868223 
L 350.577087 164.912113 
L 352.468279 164.912113 
L 354.35947 163.426705 
L 356.250662 162.374595 
L 358.141853 162.327892 
L 360.033045 165.916223 
L 361.924237 165.916223 
L 363.815428 164.960113 
L 365.70662 163.237299 
L 367.597811 165.77352 
L 369.489003 165.77352 
L 371.380194 164.960113 
L 377.053769 165.006816 
L 378.94496 165.006816 
L 381.15135 165.868223 
L 383.042542 164.912113 
L 384.933733 166.872333 
L 386.824925 169.361851 
L 388.716117 165.77352 
L 390.607308 161.466485 
L 392.4985 159.743671 
L 394.70489 160.653078 
L 396.596081 162.375892 
L 398.487273 163.9093 
L 398.487273 163.9093 
" clip-path="url(#pc480d0b0ae)" style="fill: none; stroke: #e377c2; stroke-linecap: square"/>
   </g>
   <g id="line2d_32">
    <path d="M 73.832727 157.832748 
L 77.299912 157.880748 
L 79.191103 157.183389 
L 81.397493 157.832748 
L 83.288685 157.880748 
L 85.179876 157.270277 
L 87.071068 157.880748 
L 88.962259 158.299219 
L 90.853451 157.832748 
L 92.744643 158.063636 
L 94.635834 156.716917 
L 96.527026 159.188578 
L 98.418217 158.626107 
L 100.309409 156.716917 
L 102.2006 157.366276 
L 104.091792 157.832748 
L 105.982983 157.69786 
L 107.874175 157.693164 
L 109.765366 157.231389 
L 111.656558 156.520221 
L 113.547749 156.726029 
L 115.438941 150.705764 
L 117.330132 150.074629 
L 119.221324 147.362968 
L 121.112515 148.16572 
L 123.003707 146.377609 
L 124.894898 146.44853 
L 126.78609 146.020946 
L 128.677282 148.007631 
L 130.568473 147.266968 
L 132.459665 147.497856 
L 134.350856 146.487418 
L 136.242048 150.522876 
L 138.133239 153.769672 
L 140.024431 145.519624 
L 141.915622 153.373841 
L 143.806814 156.051774 
L 145.698005 166.864786 
L 147.589197 167.818113 
L 149.480388 164.177925 
L 151.37158 165.604675 
L 153.262771 168.081033 
L 155.153963 165.446867 
L 157.045154 165.124395 
L 159.251545 161.607824 
L 161.142736 161.102464 
L 163.033928 162.414991 
L 164.925119 157.640748 
L 166.816311 161.024689 
L 168.707502 159.933937 
L 170.598694 155.091311 
L 172.489885 161.458847 
L 174.381077 175.223142 
L 176.272268 168.974991 
L 178.16346 172.064357 
L 180.054651 164.438307 
L 181.945843 165.542867 
L 183.837034 159.685106 
L 185.728226 157.275253 
L 187.619417 158.765972 
L 189.510609 157.284365 
L 191.401801 150.754045 
L 193.292992 159.062803 
L 195.184184 163.795621 
L 197.075375 152.932729 
L 198.651368 154.572424 
L 200.54256 151.6481 
L 202.433751 146.939886 
L 204.324943 162.885598 
L 206.216134 150.315092 
L 208.107326 174.112569 
L 209.998517 167.46173 
L 211.889709 163.393958 
L 213.7809 169.048167 
L 215.98729 163.869261 
L 217.878482 164.916428 
L 219.769673 163.839485 
L 221.660865 165.517788 
L 223.552056 166.85981 
L 225.443248 159.96841 
L 227.019241 164.232597 
L 229.225631 159.337274 
L 231.116823 157.837444 
L 233.008014 179.329522 
L 234.899206 154.896774 
L 236.790397 175.756021 
L 238.681589 166.844306 
L 240.57278 167.090978 
L 242.463972 162.792318 
L 244.355163 162.723935 
L 246.246355 160.002882 
L 248.137546 159.760723 
L 250.028738 156.154726 
L 251.919929 159.245971 
L 253.811121 154.341536 
L 255.387114 159.933937 
L 257.278305 155.461783 
L 259.169497 153.312594 
L 261.060688 150.292269 
L 262.95188 144.364991 
L 264.843071 155.123063 
L 266.734263 151.552283 
L 268.625455 170.024414 
L 270.516646 164.322205 
L 272.407838 170.129807 
L 274.299029 159.239299 
L 276.190221 164.166653 
L 278.396611 164.022373 
L 280.287802 165.517788 
L 281.863795 162.757846 
L 283.754987 158.495915 
L 285.646178 157.361861 
L 287.53737 160.679577 
L 289.428561 160.896656 
L 291.319753 158.313028 
L 293.526143 161.573352 
L 295.417335 150.392404 
L 297.308526 157.480403 
L 299.199718 170.380797 
L 301.090909 162.627838 
L 302.982101 163.885509 
L 304.873292 161.1576 
L 306.764484 158.128164 
L 308.655675 158.032164 
L 310.546867 156.55967 
L 312.438058 154.428705 
L 314.32925 155.727423 
L 316.220441 156.481894 
L 318.111633 155.779839 
L 320.002824 165.379704 
L 321.894016 160.135891 
L 323.785207 163.667869 
L 325.676399 166.398034 
L 327.56759 164.475036 
L 329.458782 165.369091 
L 331.349974 162.984318 
L 333.241165 161.724488 
L 335.447555 161.6856 
L 337.338747 160.521769 
L 339.229938 164.065677 
L 343.012321 161.171128 
L 344.903513 159.911298 
L 346.794704 161.03624 
L 348.685896 161.219128 
L 350.577087 160.569769 
L 352.468279 160.569769 
L 354.35947 161.546016 
L 356.250662 161.925599 
L 358.141853 160.713769 
L 361.924237 160.704657 
L 363.815428 160.055297 
L 365.70662 160.151297 
L 367.597811 160.521769 
L 369.489003 160.521769 
L 371.380194 160.055297 
L 373.271386 161.267128 
L 381.15135 161.219128 
L 383.042542 160.569769 
L 384.933733 161.354016 
L 386.824925 160.512657 
L 388.716117 160.521769 
L 390.607308 160.761769 
L 392.4985 160.857768 
L 394.70489 160.295297 
L 396.596081 160.199297 
L 398.487273 158.708579 
L 398.487273 158.708579 
" clip-path="url(#pc480d0b0ae)" style="fill: none; stroke: #7f7f7f; stroke-linecap: square"/>
   </g>
   <g id="line2d_33">
    <path d="M 73.832727 245.329798 
L 77.299912 245.424501 
L 79.191103 244.916548 
L 81.397493 245.329798 
L 83.288685 245.424501 
L 85.179876 245.932454 
L 87.071068 245.424501 
L 88.962259 244.537735 
L 90.853451 245.329798 
L 92.744643 246.629813 
L 94.635834 245.70861 
L 96.527026 245.424501 
L 98.418217 246.027157 
L 100.309409 245.70861 
L 102.2006 246.12186 
L 104.091792 245.329798 
L 105.982983 244.219189 
L 107.874175 247.611281 
L 109.765366 245.011251 
L 111.656558 248.72189 
L 113.547749 244.88211 
L 115.438941 246.750344 
L 117.330132 244.684095 
L 119.221324 244.494688 
L 121.112515 238.407862 
L 123.003707 243.418517 
L 124.894898 238.468128 
L 126.78609 240.181393 
L 128.677282 248.300031 
L 130.568473 244.305282 
L 132.459665 245.605297 
L 134.350856 239.389331 
L 136.242048 245.545032 
L 138.133239 247.611281 
L 140.024431 266.379713 
L 141.915622 249.41064 
L 143.806814 251.175561 
L 145.698005 235.704519 
L 147.589197 242.652283 
L 149.480388 246.612594 
L 151.37158 241.756908 
L 153.262771 238.080706 
L 155.153963 245.691391 
L 157.045154 246.767563 
L 159.251545 242.480095 
L 161.142736 242.350955 
L 163.033928 238.958862 
L 164.925119 244.950985 
L 166.816311 240.508549 
L 168.707502 246.027157 
L 170.598694 243.392689 
L 172.489885 251.545764 
L 174.381077 260.499511 
L 176.272268 253.379561 
L 178.16346 235.618426 
L 180.054651 255.617997 
L 181.945843 245.880797 
L 183.837034 240.422455 
L 185.728226 236.582675 
L 187.619417 237.787988 
L 189.510609 235.756176 
L 191.401801 240.887362 
L 193.292992 243.487392 
L 195.184184 250.151046 
L 197.075375 249.384812 
L 198.651368 241.524455 
L 200.54256 238.382034 
L 202.433751 278.424224 
L 204.324943 246.690078 
L 206.216134 251.046421 
L 208.107326 245.57086 
L 209.998517 233.457473 
L 211.889709 239.13105 
L 213.7809 240.809877 
L 215.98729 243.470173 
L 217.878482 240.422455 
L 219.769673 241.722471 
L 221.660865 240.741002 
L 223.552056 245.054298 
L 225.443248 244.382767 
L 227.019241 241.653596 
L 229.225631 242.316517 
L 231.116823 241.937705 
L 233.008014 261.704823 
L 234.899206 256.590856 
L 236.790397 269.995649 
L 238.681589 244.976813 
L 240.57278 240.396627 
L 242.463972 244.770188 
L 244.355163 236.143597 
L 246.246355 242.738377 
L 248.137546 232.079974 
L 250.028738 240.35358 
L 251.919929 238.735018 
L 253.811121 240.22444 
L 255.387114 246.027157 
L 257.278305 242.41122 
L 259.169497 241.619158 
L 261.060688 238.287331 
L 262.95188 295.488 
L 264.843071 243.478783 
L 266.734263 250.039124 
L 268.625455 242.712548 
L 270.516646 240.939018 
L 272.407838 236.117769 
L 274.299029 243.78872 
L 276.190221 237.254206 
L 278.396611 242.927783 
L 280.287802 240.741002 
L 281.863795 246.414578 
L 283.754987 241.524455 
L 285.646178 243.556267 
L 287.53737 240.672127 
L 289.428561 246.190735 
L 291.319753 240.319143 
L 293.526143 244.124485 
L 295.417335 247.000016 
L 297.308526 262.462448 
L 299.199718 251.907358 
L 301.090909 253.758373 
L 302.982101 243.478783 
L 304.873292 243.280767 
L 306.764484 240.77544 
L 308.655675 240.586033 
L 310.546867 237.727722 
L 312.438058 235.28266 
L 314.32925 236.10916 
L 316.220441 235.885316 
L 318.111633 238.769456 
L 320.002824 282.926926 
L 321.894016 227.706413 
L 323.785207 249.875546 
L 325.676399 242.454267 
L 327.56759 246.354313 
L 329.458782 243.848986 
L 331.349974 245.149001 
L 333.241165 245.243704 
L 335.447555 244.322501 
L 337.338747 244.60661 
L 339.229938 246.414578 
L 341.12113 245.209266 
L 343.012321 245.01986 
L 344.903513 245.114563 
L 346.794704 243.909251 
L 348.685896 245.114563 
L 350.577087 244.701313 
L 352.468279 244.701313 
L 354.35947 246.603985 
L 356.250662 244.796016 
L 358.141853 244.985423 
L 360.033045 245.811922 
L 361.924237 245.811922 
L 363.815428 245.398673 
L 365.70662 245.588079 
L 367.597811 244.60661 
L 369.489003 244.60661 
L 371.380194 245.398673 
L 373.271386 245.209266 
L 381.15135 245.114563 
L 383.042542 244.701313 
L 384.933733 246.225172 
L 388.716117 244.60661 
L 390.607308 245.080126 
L 392.4985 245.269532 
L 394.70489 245.872188 
L 396.596081 245.682782 
L 398.487273 244.47747 
L 398.487273 244.47747 
" clip-path="url(#pc480d0b0ae)" style="fill: none; stroke: #bcbd22; stroke-linecap: square"/>
   </g>
   <g id="patch_3">
    <path d="M 57.6 307.584 
L 57.6 41.472 
" style="fill: none; stroke: #000000; stroke-width: 0.8; stroke-linejoin: miter; stroke-linecap: square"/>
   </g>
   <g id="patch_4">
    <path d="M 414.72 307.584 
L 414.72 41.472 
" style="fill: none; stroke: #000000; stroke-width: 0.8; stroke-linejoin: miter; stroke-linecap: square"/>
   </g>
   <g id="patch_5">
    <path d="M 57.6 307.584 
L 414.72 307.584 
" style="fill: none; stroke: #000000; stroke-width: 0.8; stroke-linejoin: miter; stroke-linecap: square"/>
   </g>
   <g id="patch_6">
    <path d="M 57.6 41.472 
L 414.72 41.472 
" style="fill: none; stroke: #000000; stroke-width: 0.8; stroke-linejoin: miter; stroke-linecap: square"/>
   </g>
   <g id="text_15">
    <!-- IMU Accelerations -->
    <g transform="translate(182.505 35.472) scale(0.12 -0.12)">
     <defs>
      <path id="DejaVuSans-49" d="M 628 4666 
L 1259 4666 
L 1259 0 
L 628 0 
L 628 4666 
z
" transform="scale(0.015625)"/>
      <path id="DejaVuSans-4d" d="M 628 4666 
L 1569 4666 
L 2759 1491 
L 3956 4666 
L 4897 4666 
L 4897 0 
L 4281 0 
L 4281 4097 
L 3078 897 
L 2444 897 
L 1241 4097 
L 1241 0 
L 628 0 
L 628 4666 
z
" transform="scale(0.015625)"/>
      <path id="DejaVuSans-55" d="M 556 4666 
L 1191 4666 
L 1191 1831 
Q 1191 1081 1462 751 
Q 1734 422 2344 422 
Q 2950 422 3222 751 
Q 3494 1081 3494 1831 
L 3494 4666 
L 4128 4666 
L 4128 1753 
Q 4128 841 3676 375 
Q 3225 -91 2344 -91 
Q 1459 -91 1007 375 
Q 556 841 556 1753 
L 556 4666 
z
" transform="scale(0.015625)"/>
     </defs>
     <use xlink:href="#DejaVuSans-49"/>
     <use xlink:href="#DejaVuSans-4d" x="29.492188"/>
     <use xlink:href="#DejaVuSans-55" x="115.771484"/>
     <use xlink:href="#DejaVuSans-20" x="188.964844"/>
     <use xlink:href="#DejaVuSans-41" x="220.751953"/>
     <use xlink:href="#DejaVuSans-63" x="287.410156"/>
     <use xlink:href="#DejaVuSans-63" x="342.390625"/>
     <use xlink:href="#DejaVuSans-65" x="397.371094"/>
     <use xlink:href="#DejaVuSans-6c" x="458.894531"/>
     <use xlink:href="#DejaVuSans-65" x="486.677734"/>
     <use xlink:href="#DejaVuSans-72" x="548.201172"/>
     <use xlink:href="#DejaVuSans-61" x="589.314453"/>
     <use xlink:href="#DejaVuSans-74" x="650.59375"/>
     <use xlink:href="#DejaVuSans-69" x="689.802734"/>
     <use xlink:href="#DejaVuSans-6f" x="717.585938"/>
     <use xlink:href="#DejaVuSans-6e" x="778.767578"/>
     <use xlink:href="#DejaVuSans-73" x="842.146484"/>
    </g>
   </g>
   <g id="legend_1">
    <g id="patch_7">
     <path d="M 410.878625 215.468363 
L 461.288 215.468363 
Q 463.288 215.468363 463.288 213.468363 
L 463.288 82.365238 
Q 463.288 80.365238 461.288 80.365238 
L 410.878625 80.365238 
Q 408.878625 80.365238 408.878625 82.365238 
L 408.878625 213.468363 
Q 408.878625 215.468363 410.878625 215.468363 
z
" style="fill: #ffffff; opacity: 0.8; stroke: #cccccc; stroke-linejoin: miter"/>
    </g>
    <g id="line2d_34">
     <path d="M 412.878625 88.463675 
L 422.878625 88.463675 
L 432.878625 88.463675 
" style="fill: none; stroke: #1f77b4; stroke-linecap: square"/>
    </g>
    <g id="text_16">
     <!-- ax1 -->
     <g transform="translate(440.878625 91.963675) scale(0.1 -0.1)">
      <defs>
       <path id="DejaVuSans-78" d="M 3513 3500 
L 2247 1797 
L 3578 0 
L 2900 0 
L 1881 1375 
L 863 0 
L 184 0 
L 1544 1831 
L 300 3500 
L 978 3500 
L 1906 2253 
L 2834 3500 
L 3513 3500 
z
" transform="scale(0.015625)"/>
      </defs>
      <use xlink:href="#DejaVuSans-61"/>
      <use xlink:href="#DejaVuSans-78" x="61.279297"/>
      <use xlink:href="#DejaVuSans-31" x="120.458984"/>
     </g>
    </g>
    <g id="line2d_35">
     <path d="M 412.878625 103.1418 
L 422.878625 103.1418 
L 432.878625 103.1418 
" style="fill: none; stroke: #ff7f0e; stroke-linecap: square"/>
    </g>
    <g id="text_17">
     <!-- ay1 -->
     <g transform="translate(440.878625 106.6418) scale(0.1 -0.1)">
      <defs>
       <path id="DejaVuSans-79" d="M 2059 -325 
Q 1816 -950 1584 -1140 
Q 1353 -1331 966 -1331 
L 506 -1331 
L 506 -850 
L 844 -850 
Q 1081 -850 1212 -737 
Q 1344 -625 1503 -206 
L 1606 56 
L 191 3500 
L 800 3500 
L 1894 763 
L 2988 3500 
L 3597 3500 
L 2059 -325 
z
" transform="scale(0.015625)"/>
      </defs>
      <use xlink:href="#DejaVuSans-61"/>
      <use xlink:href="#DejaVuSans-79" x="61.279297"/>
      <use xlink:href="#DejaVuSans-31" x="120.458984"/>
     </g>
    </g>
    <g id="line2d_36">
     <path d="M 412.878625 117.819925 
L 422.878625 117.819925 
L 432.878625 117.819925 
" style="fill: none; stroke: #2ca02c; stroke-linecap: square"/>
    </g>
    <g id="text_18">
     <!-- az1 -->
     <g transform="translate(440.878625 121.319925) scale(0.1 -0.1)">
      <defs>
       <path id="DejaVuSans-7a" d="M 353 3500 
L 3084 3500 
L 3084 2975 
L 922 459 
L 3084 459 
L 3084 0 
L 275 0 
L 275 525 
L 2438 3041 
L 353 3041 
L 353 3500 
z
" transform="scale(0.015625)"/>
      </defs>
      <use xlink:href="#DejaVuSans-61"/>
      <use xlink:href="#DejaVuSans-7a" x="61.279297"/>
      <use xlink:href="#DejaVuSans-31" x="113.769531"/>
     </g>
    </g>
    <g id="line2d_37">
     <path d="M 412.878625 132.49805 
L 422.878625 132.49805 
L 432.878625 132.49805 
" style="fill: none; stroke: #d62728; stroke-linecap: square"/>
    </g>
    <g id="text_19">
     <!-- ax2 -->
     <g transform="translate(440.878625 135.99805) scale(0.1 -0.1)">
      <use xlink:href="#DejaVuSans-61"/>
      <use xlink:href="#DejaVuSans-78" x="61.279297"/>
      <use xlink:href="#DejaVuSans-32" x="120.458984"/>
     </g>
    </g>
    <g id="line2d_38">
     <path d="M 412.878625 147.176175 
L 422.878625 147.176175 
L 432.878625 147.176175 
" style="fill: none; stroke: #9467bd; stroke-linecap: square"/>
    </g>
    <g id="text_20">
     <!-- ay2 -->
     <g transform="translate(440.878625 150.676175) scale(0.1 -0.1)">
      <use xlink:href="#DejaVuSans-61"/>
      <use xlink:href="#DejaVuSans-79" x="61.279297"/>
      <use xlink:href="#DejaVuSans-32" x="120.458984"/>
     </g>
    </g>
    <g id="line2d_39">
     <path d="M 412.878625 161.8543 
L 422.878625 161.8543 
L 432.878625 161.8543 
" style="fill: none; stroke: #8c564b; stroke-linecap: square"/>
    </g>
    <g id="text_21">
     <!-- az2 -->
     <g transform="translate(440.878625 165.3543) scale(0.1 -0.1)">
      <use xlink:href="#DejaVuSans-61"/>
      <use xlink:href="#DejaVuSans-7a" x="61.279297"/>
      <use xlink:href="#DejaVuSans-32" x="113.769531"/>
     </g>
    </g>
    <g id="line2d_40">
     <path d="M 412.878625 176.532425 
L 422.878625 176.532425 
L 432.878625 176.532425 
" style="fill: none; stroke: #e377c2; stroke-linecap: square"/>
    </g>
    <g id="text_22">
     <!-- ax3 -->
     <g transform="translate(440.878625 180.032425) scale(0.1 -0.1)">
      <defs>
       <path id="DejaVuSans-33" d="M 2597 2516 
Q 3050 2419 3304 2112 
Q 3559 1806 3559 1356 
Q 3559 666 3084 287 
Q 2609 -91 1734 -91 
Q 1441 -91 1130 -33 
Q 819 25 488 141 
L 488 750 
Q 750 597 1062 519 
Q 1375 441 1716 441 
Q 2309 441 2620 675 
Q 2931 909 2931 1356 
Q 2931 1769 2642 2001 
Q 2353 2234 1838 2234 
L 1294 2234 
L 1294 2753 
L 1863 2753 
Q 2328 2753 2575 2939 
Q 2822 3125 2822 3475 
Q 2822 3834 2567 4026 
Q 2313 4219 1838 4219 
Q 1578 4219 1281 4162 
Q 984 4106 628 3988 
L 628 4550 
Q 988 4650 1302 4700 
Q 1616 4750 1894 4750 
Q 2613 4750 3031 4423 
Q 3450 4097 3450 3541 
Q 3450 3153 3228 2886 
Q 3006 2619 2597 2516 
z
" transform="scale(0.015625)"/>
      </defs>
      <use xlink:href="#DejaVuSans-61"/>
      <use xlink:href="#DejaVuSans-78" x="61.279297"/>
      <use xlink:href="#DejaVuSans-33" x="120.458984"/>
     </g>
    </g>
    <g id="line2d_41">
     <path d="M 412.878625 191.21055 
L 422.878625 191.21055 
L 432.878625 191.21055 
" style="fill: none; stroke: #7f7f7f; stroke-linecap: square"/>
    </g>
    <g id="text_23">
     <!-- ay3 -->
     <g transform="translate(440.878625 194.71055) scale(0.1 -0.1)">
      <use xlink:href="#DejaVuSans-61"/>
      <use xlink:href="#DejaVuSans-79" x="61.279297"/>
      <use xlink:href="#DejaVuSans-33" x="120.458984"/>
     </g>
    </g>
    <g id="line2d_42">
     <path d="M 412.878625 205.888675 
L 422.878625 205.888675 
L 432.878625 205.888675 
" style="fill: none; stroke: #bcbd22; stroke-linecap: square"/>
    </g>
    <g id="text_24">
     <!-- az3 -->
     <g transform="translate(440.878625 209.388675) scale(0.1 -0.1)">
      <use xlink:href="#DejaVuSans-61"/>
      <use xlink:href="#DejaVuSans-7a" x="61.279297"/>
      <use xlink:href="#DejaVuSans-33" x="113.769531"/>
     </g>
    </g>
   </g>
  </g>
 </g>
 <defs>
  <clipPath id="pc480d0b0ae">
   <rect x="57.6" y="41.472" width="357.12" height="266.112"/>
  </clipPath>
 </defs>
</svg>
