<?xml version="1.0" encoding="utf-8" standalone="no"?>
<!DOCTYPE svg PUBLIC "-//W3C//DTD SVG 1.1//EN"
  "http://www.w3.org/Graphics/SVG/1.1/DTD/svg11.dtd">
<svg xmlns:xlink="http://www.w3.org/1999/xlink" width="460.8pt" height="345.6pt" viewBox="0 0 460.8 345.6" xmlns="http://www.w3.org/2000/svg" version="1.1">
 <metadata>
  <rdf:RDF xmlns:dc="http://purl.org/dc/elements/1.1/" xmlns:cc="http://creativecommons.org/ns#" xmlns:rdf="http://www.w3.org/1999/02/22-rdf-syntax-ns#">
   <cc:Work>
    <dc:type rdf:resource="http://purl.org/dc/dcmitype/StillImage"/>
    <dc:date>2023-11-29T21:13:12.332564</dc:date>
    <dc:format>image/svg+xml</dc:format>
    <dc:creator>
     <cc:Agent>
      <dc:title>Matplotlib v3.7.2, https://matplotlib.org/</dc:title>
     </cc:Agent>
    </dc:creator>
   </cc:Work>
  </rdf:RDF>
 </metadata>
 <defs>
  <style type="text/css">*{stroke-linejoin: round; stroke-linecap: butt}</style>
 </defs>
 <g id="figure_1">
  <g id="patch_1">
   <path d="M 0 345.6 
L 460.8 345.6 
L 460.8 0 
L 0 0 
z
" style="fill: #ffffff"/>
  </g>
  <g id="axes_1">
   <g id="patch_2">
    <path d="M 57.6 307.584 
L 414.72 307.584 
L 414.72 41.472 
L 57.6 41.472 
z
" style="fill: #ffffff"/>
   </g>
   <g id="matplotlib.axis_1">
    <g id="xtick_1">
     <g id="line2d_1">
      <path d="M 65.756744 307.584 
L 65.756744 41.472 
" clip-path="url(#p4db4d66efc)" style="fill: none; stroke: #b0b0b0; stroke-width: 0.8; stroke-linecap: square"/>
     </g>
     <g id="line2d_2">
      <defs>
       <path id="mb631461981" d="M 0 0 
L 0 3.5 
" style="stroke: #000000; stroke-width: 0.8"/>
      </defs>
      <g>
       <use xlink:href="#mb631461981" x="65.756744" y="307.584" style="stroke: #000000; stroke-width: 0.8"/>
      </g>
     </g>
     <g id="text_1">
      <!-- 0 -->
      <g transform="translate(62.575494 322.182437) scale(0.1 -0.1)">
       <defs>
        <path id="DejaVuSans-30" d="M 2034 4250 
Q 1547 4250 1301 3770 
Q 1056 3291 1056 2328 
Q 1056 1369 1301 889 
Q 1547 409 2034 409 
Q 2525 409 2770 889 
Q 3016 1369 3016 2328 
Q 3016 3291 2770 3770 
Q 2525 4250 2034 4250 
z
M 2034 4750 
Q 2819 4750 3233 4129 
Q 3647 3509 3647 2328 
Q 3647 1150 3233 529 
Q 2819 -91 2034 -91 
Q 1250 -91 836 529 
Q 422 1150 422 2328 
Q 422 3509 836 4129 
Q 1250 4750 2034 4750 
z
" transform="scale(0.015625)"/>
       </defs>
       <use xlink:href="#DejaVuSans-30"/>
      </g>
     </g>
    </g>
    <g id="xtick_2">
     <g id="line2d_3">
      <path d="M 130.364613 307.584 
L 130.364613 41.472 
" clip-path="url(#p4db4d66efc)" style="fill: none; stroke: #b0b0b0; stroke-width: 0.8; stroke-linecap: square"/>
     </g>
     <g id="line2d_4">
      <g>
       <use xlink:href="#mb631461981" x="130.364613" y="307.584" style="stroke: #000000; stroke-width: 0.8"/>
      </g>
     </g>
     <g id="text_2">
      <!-- 2 -->
      <g transform="translate(127.183363 322.182437) scale(0.1 -0.1)">
       <defs>
        <path id="DejaVuSans-32" d="M 1228 531 
L 3431 531 
L 3431 0 
L 469 0 
L 469 531 
Q 828 903 1448 1529 
Q 2069 2156 2228 2338 
Q 2531 2678 2651 2914 
Q 2772 3150 2772 3378 
Q 2772 3750 2511 3984 
Q 2250 4219 1831 4219 
Q 1534 4219 1204 4116 
Q 875 4013 500 3803 
L 500 4441 
Q 881 4594 1212 4672 
Q 1544 4750 1819 4750 
Q 2544 4750 2975 4387 
Q 3406 4025 3406 3419 
Q 3406 3131 3298 2873 
Q 3191 2616 2906 2266 
Q 2828 2175 2409 1742 
Q 1991 1309 1228 531 
z
" transform="scale(0.015625)"/>
       </defs>
       <use xlink:href="#DejaVuSans-32"/>
      </g>
     </g>
    </g>
    <g id="xtick_3">
     <g id="line2d_5">
      <path d="M 194.972483 307.584 
L 194.972483 41.472 
" clip-path="url(#p4db4d66efc)" style="fill: none; stroke: #b0b0b0; stroke-width: 0.8; stroke-linecap: square"/>
     </g>
     <g id="line2d_6">
      <g>
       <use xlink:href="#mb631461981" x="194.972483" y="307.584" style="stroke: #000000; stroke-width: 0.8"/>
      </g>
     </g>
     <g id="text_3">
      <!-- 4 -->
      <g transform="translate(191.791233 322.182437) scale(0.1 -0.1)">
       <defs>
        <path id="DejaVuSans-34" d="M 2419 4116 
L 825 1625 
L 2419 1625 
L 2419 4116 
z
M 2253 4666 
L 3047 4666 
L 3047 1625 
L 3713 1625 
L 3713 1100 
L 3047 1100 
L 3047 0 
L 2419 0 
L 2419 1100 
L 313 1100 
L 313 1709 
L 2253 4666 
z
" transform="scale(0.015625)"/>
       </defs>
       <use xlink:href="#DejaVuSans-34"/>
      </g>
     </g>
    </g>
    <g id="xtick_4">
     <g id="line2d_7">
      <path d="M 259.580353 307.584 
L 259.580353 41.472 
" clip-path="url(#p4db4d66efc)" style="fill: none; stroke: #b0b0b0; stroke-width: 0.8; stroke-linecap: square"/>
     </g>
     <g id="line2d_8">
      <g>
       <use xlink:href="#mb631461981" x="259.580353" y="307.584" style="stroke: #000000; stroke-width: 0.8"/>
      </g>
     </g>
     <g id="text_4">
      <!-- 6 -->
      <g transform="translate(256.399103 322.182437) scale(0.1 -0.1)">
       <defs>
        <path id="DejaVuSans-36" d="M 2113 2584 
Q 1688 2584 1439 2293 
Q 1191 2003 1191 1497 
Q 1191 994 1439 701 
Q 1688 409 2113 409 
Q 2538 409 2786 701 
Q 3034 994 3034 1497 
Q 3034 2003 2786 2293 
Q 2538 2584 2113 2584 
z
M 3366 4563 
L 3366 3988 
Q 3128 4100 2886 4159 
Q 2644 4219 2406 4219 
Q 1781 4219 1451 3797 
Q 1122 3375 1075 2522 
Q 1259 2794 1537 2939 
Q 1816 3084 2150 3084 
Q 2853 3084 3261 2657 
Q 3669 2231 3669 1497 
Q 3669 778 3244 343 
Q 2819 -91 2113 -91 
Q 1303 -91 875 529 
Q 447 1150 447 2328 
Q 447 3434 972 4092 
Q 1497 4750 2381 4750 
Q 2619 4750 2861 4703 
Q 3103 4656 3366 4563 
z
" transform="scale(0.015625)"/>
       </defs>
       <use xlink:href="#DejaVuSans-36"/>
      </g>
     </g>
    </g>
    <g id="xtick_5">
     <g id="line2d_9">
      <path d="M 324.188223 307.584 
L 324.188223 41.472 
" clip-path="url(#p4db4d66efc)" style="fill: none; stroke: #b0b0b0; stroke-width: 0.8; stroke-linecap: square"/>
     </g>
     <g id="line2d_10">
      <g>
       <use xlink:href="#mb631461981" x="324.188223" y="307.584" style="stroke: #000000; stroke-width: 0.8"/>
      </g>
     </g>
     <g id="text_5">
      <!-- 8 -->
      <g transform="translate(321.006973 322.182437) scale(0.1 -0.1)">
       <defs>
        <path id="DejaVuSans-38" d="M 2034 2216 
Q 1584 2216 1326 1975 
Q 1069 1734 1069 1313 
Q 1069 891 1326 650 
Q 1584 409 2034 409 
Q 2484 409 2743 651 
Q 3003 894 3003 1313 
Q 3003 1734 2745 1975 
Q 2488 2216 2034 2216 
z
M 1403 2484 
Q 997 2584 770 2862 
Q 544 3141 544 3541 
Q 544 4100 942 4425 
Q 1341 4750 2034 4750 
Q 2731 4750 3128 4425 
Q 3525 4100 3525 3541 
Q 3525 3141 3298 2862 
Q 3072 2584 2669 2484 
Q 3125 2378 3379 2068 
Q 3634 1759 3634 1313 
Q 3634 634 3220 271 
Q 2806 -91 2034 -91 
Q 1263 -91 848 271 
Q 434 634 434 1313 
Q 434 1759 690 2068 
Q 947 2378 1403 2484 
z
M 1172 3481 
Q 1172 3119 1398 2916 
Q 1625 2713 2034 2713 
Q 2441 2713 2670 2916 
Q 2900 3119 2900 3481 
Q 2900 3844 2670 4047 
Q 2441 4250 2034 4250 
Q 1625 4250 1398 4047 
Q 1172 3844 1172 3481 
z
" transform="scale(0.015625)"/>
       </defs>
       <use xlink:href="#DejaVuSans-38"/>
      </g>
     </g>
    </g>
    <g id="xtick_6">
     <g id="line2d_11">
      <path d="M 388.796092 307.584 
L 388.796092 41.472 
" clip-path="url(#p4db4d66efc)" style="fill: none; stroke: #b0b0b0; stroke-width: 0.8; stroke-linecap: square"/>
     </g>
     <g id="line2d_12">
      <g>
       <use xlink:href="#mb631461981" x="388.796092" y="307.584" style="stroke: #000000; stroke-width: 0.8"/>
      </g>
     </g>
     <g id="text_6">
      <!-- 10 -->
      <g transform="translate(382.433592 322.182437) scale(0.1 -0.1)">
       <defs>
        <path id="DejaVuSans-31" d="M 794 531 
L 1825 531 
L 1825 4091 
L 703 3866 
L 703 4441 
L 1819 4666 
L 2450 4666 
L 2450 531 
L 3481 531 
L 3481 0 
L 794 0 
L 794 531 
z
" transform="scale(0.015625)"/>
       </defs>
       <use xlink:href="#DejaVuSans-31"/>
       <use xlink:href="#DejaVuSans-30" x="63.623047"/>
      </g>
     </g>
    </g>
    <g id="text_7">
     <!-- Time (s) -->
     <g transform="translate(215.831094 335.860562) scale(0.1 -0.1)">
      <defs>
       <path id="DejaVuSans-54" d="M -19 4666 
L 3928 4666 
L 3928 4134 
L 2272 4134 
L 2272 0 
L 1638 0 
L 1638 4134 
L -19 4134 
L -19 4666 
z
" transform="scale(0.015625)"/>
       <path id="DejaVuSans-69" d="M 603 3500 
L 1178 3500 
L 1178 0 
L 603 0 
L 603 3500 
z
M 603 4863 
L 1178 4863 
L 1178 4134 
L 603 4134 
L 603 4863 
z
" transform="scale(0.015625)"/>
       <path id="DejaVuSans-6d" d="M 3328 2828 
Q 3544 3216 3844 3400 
Q 4144 3584 4550 3584 
Q 5097 3584 5394 3201 
Q 5691 2819 5691 2113 
L 5691 0 
L 5113 0 
L 5113 2094 
Q 5113 2597 4934 2840 
Q 4756 3084 4391 3084 
Q 3944 3084 3684 2787 
Q 3425 2491 3425 1978 
L 3425 0 
L 2847 0 
L 2847 2094 
Q 2847 2600 2669 2842 
Q 2491 3084 2119 3084 
Q 1678 3084 1418 2786 
Q 1159 2488 1159 1978 
L 1159 0 
L 581 0 
L 581 3500 
L 1159 3500 
L 1159 2956 
Q 1356 3278 1631 3431 
Q 1906 3584 2284 3584 
Q 2666 3584 2933 3390 
Q 3200 3197 3328 2828 
z
" transform="scale(0.015625)"/>
       <path id="DejaVuSans-65" d="M 3597 1894 
L 3597 1613 
L 953 1613 
Q 991 1019 1311 708 
Q 1631 397 2203 397 
Q 2534 397 2845 478 
Q 3156 559 3463 722 
L 3463 178 
Q 3153 47 2828 -22 
Q 2503 -91 2169 -91 
Q 1331 -91 842 396 
Q 353 884 353 1716 
Q 353 2575 817 3079 
Q 1281 3584 2069 3584 
Q 2775 3584 3186 3129 
Q 3597 2675 3597 1894 
z
M 3022 2063 
Q 3016 2534 2758 2815 
Q 2500 3097 2075 3097 
Q 1594 3097 1305 2825 
Q 1016 2553 972 2059 
L 3022 2063 
z
" transform="scale(0.015625)"/>
       <path id="DejaVuSans-20" transform="scale(0.015625)"/>
       <path id="DejaVuSans-28" d="M 1984 4856 
Q 1566 4138 1362 3434 
Q 1159 2731 1159 2009 
Q 1159 1288 1364 580 
Q 1569 -128 1984 -844 
L 1484 -844 
Q 1016 -109 783 600 
Q 550 1309 550 2009 
Q 550 2706 781 3412 
Q 1013 4119 1484 4856 
L 1984 4856 
z
" transform="scale(0.015625)"/>
       <path id="DejaVuSans-73" d="M 2834 3397 
L 2834 2853 
Q 2591 2978 2328 3040 
Q 2066 3103 1784 3103 
Q 1356 3103 1142 2972 
Q 928 2841 928 2578 
Q 928 2378 1081 2264 
Q 1234 2150 1697 2047 
L 1894 2003 
Q 2506 1872 2764 1633 
Q 3022 1394 3022 966 
Q 3022 478 2636 193 
Q 2250 -91 1575 -91 
Q 1294 -91 989 -36 
Q 684 19 347 128 
L 347 722 
Q 666 556 975 473 
Q 1284 391 1588 391 
Q 1994 391 2212 530 
Q 2431 669 2431 922 
Q 2431 1156 2273 1281 
Q 2116 1406 1581 1522 
L 1381 1569 
Q 847 1681 609 1914 
Q 372 2147 372 2553 
Q 372 3047 722 3315 
Q 1072 3584 1716 3584 
Q 2034 3584 2315 3537 
Q 2597 3491 2834 3397 
z
" transform="scale(0.015625)"/>
       <path id="DejaVuSans-29" d="M 513 4856 
L 1013 4856 
Q 1481 4119 1714 3412 
Q 1947 2706 1947 2009 
Q 1947 1309 1714 600 
Q 1481 -109 1013 -844 
L 513 -844 
Q 928 -128 1133 580 
Q 1338 1288 1338 2009 
Q 1338 2731 1133 3434 
Q 928 4138 513 4856 
z
" transform="scale(0.015625)"/>
      </defs>
      <use xlink:href="#DejaVuSans-54"/>
      <use xlink:href="#DejaVuSans-69" x="57.958984"/>
      <use xlink:href="#DejaVuSans-6d" x="85.742188"/>
      <use xlink:href="#DejaVuSans-65" x="183.154297"/>
      <use xlink:href="#DejaVuSans-20" x="244.677734"/>
      <use xlink:href="#DejaVuSans-28" x="276.464844"/>
      <use xlink:href="#DejaVuSans-73" x="315.478516"/>
      <use xlink:href="#DejaVuSans-29" x="367.578125"/>
     </g>
    </g>
   </g>
   <g id="matplotlib.axis_2">
    <g id="ytick_1">
     <g id="line2d_13">
      <path d="M 57.6 281.658407 
L 414.72 281.658407 
" clip-path="url(#p4db4d66efc)" style="fill: none; stroke: #b0b0b0; stroke-width: 0.8; stroke-linecap: square"/>
     </g>
     <g id="line2d_14">
      <defs>
       <path id="m42c2bcd555" d="M 0 0 
L -3.5 0 
" style="stroke: #000000; stroke-width: 0.8"/>
      </defs>
      <g>
       <use xlink:href="#m42c2bcd555" x="57.6" y="281.658407" style="stroke: #000000; stroke-width: 0.8"/>
      </g>
     </g>
     <g id="text_8">
      <!-- −0.2 -->
      <g transform="translate(26.317187 285.457626) scale(0.1 -0.1)">
       <defs>
        <path id="DejaVuSans-2212" d="M 678 2272 
L 4684 2272 
L 4684 1741 
L 678 1741 
L 678 2272 
z
" transform="scale(0.015625)"/>
        <path id="DejaVuSans-2e" d="M 684 794 
L 1344 794 
L 1344 0 
L 684 0 
L 684 794 
z
" transform="scale(0.015625)"/>
       </defs>
       <use xlink:href="#DejaVuSans-2212"/>
       <use xlink:href="#DejaVuSans-30" x="83.789062"/>
       <use xlink:href="#DejaVuSans-2e" x="147.412109"/>
       <use xlink:href="#DejaVuSans-32" x="179.199219"/>
      </g>
     </g>
    </g>
    <g id="ytick_2">
     <g id="line2d_15">
      <path d="M 57.6 249.676059 
L 414.72 249.676059 
" clip-path="url(#p4db4d66efc)" style="fill: none; stroke: #b0b0b0; stroke-width: 0.8; stroke-linecap: square"/>
     </g>
     <g id="line2d_16">
      <g>
       <use xlink:href="#m42c2bcd555" x="57.6" y="249.676059" style="stroke: #000000; stroke-width: 0.8"/>
      </g>
     </g>
     <g id="text_9">
      <!-- 0.0 -->
      <g transform="translate(34.696875 253.475277) scale(0.1 -0.1)">
       <use xlink:href="#DejaVuSans-30"/>
       <use xlink:href="#DejaVuSans-2e" x="63.623047"/>
       <use xlink:href="#DejaVuSans-30" x="95.410156"/>
      </g>
     </g>
    </g>
    <g id="ytick_3">
     <g id="line2d_17">
      <path d="M 57.6 217.69371 
L 414.72 217.69371 
" clip-path="url(#p4db4d66efc)" style="fill: none; stroke: #b0b0b0; stroke-width: 0.8; stroke-linecap: square"/>
     </g>
     <g id="line2d_18">
      <g>
       <use xlink:href="#m42c2bcd555" x="57.6" y="217.69371" style="stroke: #000000; stroke-width: 0.8"/>
      </g>
     </g>
     <g id="text_10">
      <!-- 0.2 -->
      <g transform="translate(34.696875 221.492929) scale(0.1 -0.1)">
       <use xlink:href="#DejaVuSans-30"/>
       <use xlink:href="#DejaVuSans-2e" x="63.623047"/>
       <use xlink:href="#DejaVuSans-32" x="95.410156"/>
      </g>
     </g>
    </g>
    <g id="ytick_4">
     <g id="line2d_19">
      <path d="M 57.6 185.711362 
L 414.72 185.711362 
" clip-path="url(#p4db4d66efc)" style="fill: none; stroke: #b0b0b0; stroke-width: 0.8; stroke-linecap: square"/>
     </g>
     <g id="line2d_20">
      <g>
       <use xlink:href="#m42c2bcd555" x="57.6" y="185.711362" style="stroke: #000000; stroke-width: 0.8"/>
      </g>
     </g>
     <g id="text_11">
      <!-- 0.4 -->
      <g transform="translate(34.696875 189.510581) scale(0.1 -0.1)">
       <use xlink:href="#DejaVuSans-30"/>
       <use xlink:href="#DejaVuSans-2e" x="63.623047"/>
       <use xlink:href="#DejaVuSans-34" x="95.410156"/>
      </g>
     </g>
    </g>
    <g id="ytick_5">
     <g id="line2d_21">
      <path d="M 57.6 153.729014 
L 414.72 153.729014 
" clip-path="url(#p4db4d66efc)" style="fill: none; stroke: #b0b0b0; stroke-width: 0.8; stroke-linecap: square"/>
     </g>
     <g id="line2d_22">
      <g>
       <use xlink:href="#m42c2bcd555" x="57.6" y="153.729014" style="stroke: #000000; stroke-width: 0.8"/>
      </g>
     </g>
     <g id="text_12">
      <!-- 0.6 -->
      <g transform="translate(34.696875 157.528233) scale(0.1 -0.1)">
       <use xlink:href="#DejaVuSans-30"/>
       <use xlink:href="#DejaVuSans-2e" x="63.623047"/>
       <use xlink:href="#DejaVuSans-36" x="95.410156"/>
      </g>
     </g>
    </g>
    <g id="ytick_6">
     <g id="line2d_23">
      <path d="M 57.6 121.746666 
L 414.72 121.746666 
" clip-path="url(#p4db4d66efc)" style="fill: none; stroke: #b0b0b0; stroke-width: 0.8; stroke-linecap: square"/>
     </g>
     <g id="line2d_24">
      <g>
       <use xlink:href="#m42c2bcd555" x="57.6" y="121.746666" style="stroke: #000000; stroke-width: 0.8"/>
      </g>
     </g>
     <g id="text_13">
      <!-- 0.8 -->
      <g transform="translate(34.696875 125.545885) scale(0.1 -0.1)">
       <use xlink:href="#DejaVuSans-30"/>
       <use xlink:href="#DejaVuSans-2e" x="63.623047"/>
       <use xlink:href="#DejaVuSans-38" x="95.410156"/>
      </g>
     </g>
    </g>
    <g id="ytick_7">
     <g id="line2d_25">
      <path d="M 57.6 89.764318 
L 414.72 89.764318 
" clip-path="url(#p4db4d66efc)" style="fill: none; stroke: #b0b0b0; stroke-width: 0.8; stroke-linecap: square"/>
     </g>
     <g id="line2d_26">
      <g>
       <use xlink:href="#m42c2bcd555" x="57.6" y="89.764318" style="stroke: #000000; stroke-width: 0.8"/>
      </g>
     </g>
     <g id="text_14">
      <!-- 1.0 -->
      <g transform="translate(34.696875 93.563536) scale(0.1 -0.1)">
       <use xlink:href="#DejaVuSans-31"/>
       <use xlink:href="#DejaVuSans-2e" x="63.623047"/>
       <use xlink:href="#DejaVuSans-30" x="95.410156"/>
      </g>
     </g>
    </g>
    <g id="ytick_8">
     <g id="line2d_27">
      <path d="M 57.6 57.78197 
L 414.72 57.78197 
" clip-path="url(#p4db4d66efc)" style="fill: none; stroke: #b0b0b0; stroke-width: 0.8; stroke-linecap: square"/>
     </g>
     <g id="line2d_28">
      <g>
       <use xlink:href="#m42c2bcd555" x="57.6" y="57.78197" style="stroke: #000000; stroke-width: 0.8"/>
      </g>
     </g>
     <g id="text_15">
      <!-- 1.2 -->
      <g transform="translate(34.696875 61.581188) scale(0.1 -0.1)">
       <use xlink:href="#DejaVuSans-31"/>
       <use xlink:href="#DejaVuSans-2e" x="63.623047"/>
       <use xlink:href="#DejaVuSans-32" x="95.410156"/>
      </g>
     </g>
    </g>
    <g id="text_16">
     <!-- Position m -->
     <g transform="translate(20.2375 200.451437) rotate(-90) scale(0.1 -0.1)">
      <defs>
       <path id="DejaVuSans-50" d="M 1259 4147 
L 1259 2394 
L 2053 2394 
Q 2494 2394 2734 2622 
Q 2975 2850 2975 3272 
Q 2975 3691 2734 3919 
Q 2494 4147 2053 4147 
L 1259 4147 
z
M 628 4666 
L 2053 4666 
Q 2838 4666 3239 4311 
Q 3641 3956 3641 3272 
Q 3641 2581 3239 2228 
Q 2838 1875 2053 1875 
L 1259 1875 
L 1259 0 
L 628 0 
L 628 4666 
z
" transform="scale(0.015625)"/>
       <path id="DejaVuSans-6f" d="M 1959 3097 
Q 1497 3097 1228 2736 
Q 959 2375 959 1747 
Q 959 1119 1226 758 
Q 1494 397 1959 397 
Q 2419 397 2687 759 
Q 2956 1122 2956 1747 
Q 2956 2369 2687 2733 
Q 2419 3097 1959 3097 
z
M 1959 3584 
Q 2709 3584 3137 3096 
Q 3566 2609 3566 1747 
Q 3566 888 3137 398 
Q 2709 -91 1959 -91 
Q 1206 -91 779 398 
Q 353 888 353 1747 
Q 353 2609 779 3096 
Q 1206 3584 1959 3584 
z
" transform="scale(0.015625)"/>
       <path id="DejaVuSans-74" d="M 1172 4494 
L 1172 3500 
L 2356 3500 
L 2356 3053 
L 1172 3053 
L 1172 1153 
Q 1172 725 1289 603 
Q 1406 481 1766 481 
L 2356 481 
L 2356 0 
L 1766 0 
Q 1100 0 847 248 
Q 594 497 594 1153 
L 594 3053 
L 172 3053 
L 172 3500 
L 594 3500 
L 594 4494 
L 1172 4494 
z
" transform="scale(0.015625)"/>
       <path id="DejaVuSans-6e" d="M 3513 2113 
L 3513 0 
L 2938 0 
L 2938 2094 
Q 2938 2591 2744 2837 
Q 2550 3084 2163 3084 
Q 1697 3084 1428 2787 
Q 1159 2491 1159 1978 
L 1159 0 
L 581 0 
L 581 3500 
L 1159 3500 
L 1159 2956 
Q 1366 3272 1645 3428 
Q 1925 3584 2291 3584 
Q 2894 3584 3203 3211 
Q 3513 2838 3513 2113 
z
" transform="scale(0.015625)"/>
      </defs>
      <use xlink:href="#DejaVuSans-50"/>
      <use xlink:href="#DejaVuSans-6f" x="56.677734"/>
      <use xlink:href="#DejaVuSans-73" x="117.859375"/>
      <use xlink:href="#DejaVuSans-69" x="169.958984"/>
      <use xlink:href="#DejaVuSans-74" x="197.742188"/>
      <use xlink:href="#DejaVuSans-69" x="236.951172"/>
      <use xlink:href="#DejaVuSans-6f" x="264.734375"/>
      <use xlink:href="#DejaVuSans-6e" x="325.916016"/>
      <use xlink:href="#DejaVuSans-20" x="389.294922"/>
      <use xlink:href="#DejaVuSans-6d" x="421.082031"/>
     </g>
    </g>
   </g>
   <g id="line2d_29">
    <path d="M 73.832727 217.69371 
L 75.447924 218.233737 
L 77.38616 217.69371 
L 79.324396 218.440951 
L 81.585672 217.809113 
L 83.523908 218.358106 
L 87.40038 218.431984 
L 89.338616 217.809113 
L 91.276852 217.891958 
L 93.215088 218.423018 
L 95.153324 217.818079 
L 97.09156 218.980977 
L 99.029796 217.882991 
L 100.968033 219.045889 
L 102.906269 218.989944 
L 104.844505 218.48793 
L 106.782741 219.585916 
L 108.720977 218.505863 
L 110.659213 219.603849 
L 112.597449 218.925032 
L 114.535685 219.686694 
L 116.473921 218.003849 
L 118.412157 219.081755 
L 120.350393 223.875963 
L 122.28863 220.962512 
L 124.226866 218.547051 
L 126.165102 223.339581 
L 128.103338 223.303715 
L 130.041574 221.779741 
L 131.97981 220.699688 
L 133.918046 220.256416 
L 135.856282 219.501574 
L 137.794518 225.430751 
L 139.732754 225.804438 
L 141.670991 218.102751 
L 143.609227 227.68533 
L 145.870502 225.062793 
L 147.808738 218.579299 
L 149.746974 222.758574 
L 151.68521 218.106332 
L 153.623446 215.296455 
L 155.561682 213.317446 
L 157.499919 213.866439 
L 159.438155 213.606791 
L 161.376391 214.090872 
L 163.314627 213.465204 
L 165.252863 211.506924 
L 167.191099 212.761634 
L 169.129335 211.607702 
L 171.067571 214.871964 
L 173.005807 209.978007 
L 174.944043 213.699179 
L 176.88228 222.513989 
L 178.820516 223.86116 
L 180.758752 209.408664 
L 182.696988 214.081978 
L 184.635224 214.566058 
L 186.57346 220.586326 
L 188.511696 211.635179 
L 190.449932 214.730034 
L 192.388168 219.898776 
L 194.326404 216.148116 
L 195.941601 234.309138 
L 197.879837 222.428826 
L 199.818073 212.975738 
L 201.756309 222.449773 
L 203.694545 228.377273 
L 205.632782 217.790874 
L 207.571018 218.521993 
L 209.509254 213.293859 
L 211.44749 215.581475 
L 213.708765 217.696749 
L 215.647001 215.464911 
L 217.585237 214.366925 
L 219.523474 216.888107 
L 221.46171 212.507277 
L 223.399946 216.647889 
L 225.338182 217.189142 
L 227.276418 217.48251 
L 229.214654 218.807007 
L 230.829851 220.495874 
L 233.091126 216.366375 
L 235.029362 201.783857 
L 236.967598 217.845283 
L 238.905834 219.26718 
L 240.844071 219.524609 
L 242.782307 213.259685 
L 244.720543 214.524588 
L 246.658779 216.275989 
L 248.597015 217.294525 
L 250.212212 219.147426 
L 252.150448 220.962621 
L 254.088684 269.030229 
L 256.02692 233.030761 
L 257.965156 211.801404 
L 259.903392 223.186521 
L 261.841628 216.145718 
L 263.779864 217.669692 
L 265.7181 215.266392 
L 267.979376 213.909721 
L 269.594573 214.718363 
L 271.532809 213.25995 
L 273.471045 220.738703 
L 275.409281 212.542471 
L 277.347517 211.641368 
L 279.285753 215.499455 
L 281.223989 216.892956 
L 283.162225 219.345073 
L 285.423501 215.82948 
L 287.361737 215.255734 
L 289.299973 194.658739 
L 291.238209 218.654908 
L 293.176445 228.632543 
L 295.114681 221.437741 
L 297.052917 235.074703 
L 298.991153 223.208572 
L 300.929389 224.866087 
L 302.867626 201.593188 
L 304.805862 233.991079 
L 306.744098 223.825454 
L 308.682334 217.499984 
L 310.62057 223.917266 
L 312.558806 219.843713 
L 314.497042 220.923766 
L 316.435278 222.14261 
L 318.373514 220.495631 
L 320.31175 220.365807 
L 322.249986 220.979712 
L 324.188223 220.430719 
L 326.126459 220.35684 
L 328.064695 220.970745 
L 330.002931 220.421752 
L 331.941167 221.537671 
L 335.817639 220.421752 
L 337.755875 220.486664 
L 339.694111 219.937671 
L 341.632347 220.495631 
L 351.323528 220.560543 
L 353.261764 219.863793 
L 355.2 220.421752 
L 357.138236 220.486664 
L 359.076472 221.322257 
L 361.337748 221.239412 
L 363.275984 220.717319 
L 367.152456 220.634474 
L 376.843636 220.708352 
L 378.781872 220.773265 
L 380.720109 221.257345 
L 382.658345 221.1745 
L 384.596581 220.699386 
L 392.349525 220.699386 
L 394.287761 221.331224 
L 396.225997 220.483427 
L 398.487273 219.635629 
L 398.487273 219.635629 
" clip-path="url(#p4db4d66efc)" style="fill: none; stroke: #1f77b4; stroke-linecap: square"/>
   </g>
   <g id="line2d_30">
    <path d="M 73.832727 249.676059 
L 75.447924 250.205095 
L 77.38616 249.676059 
L 79.324396 249.663854 
L 81.585672 250.078897 
L 83.523908 250.069931 
L 85.462144 249.663854 
L 87.40038 250.201857 
L 89.338616 250.078897 
L 91.276852 249.672821 
L 93.215088 250.739859 
L 95.153324 249.540895 
L 97.09156 250.19289 
L 99.029796 250.210823 
L 100.968033 250.862819 
L 102.906269 249.654888 
L 104.844505 251.409788 
L 106.782741 251.391855 
L 108.720977 250.333783 
L 110.659213 250.31585 
L 112.597449 248.984959 
L 114.535685 249.909773 
L 116.473921 252.088683 
L 118.412157 248.710809 
L 120.350393 221.894133 
L 122.28863 226.505506 
L 124.226866 230.581541 
L 126.165102 238.427326 
L 128.103338 240.579336 
L 130.041574 246.920042 
L 131.97981 245.86197 
L 133.918046 245.070414 
L 135.856282 239.17165 
L 137.794518 241.093103 
L 139.732754 250.624627 
L 141.670991 256.26211 
L 143.609227 217.841633 
L 145.870502 213.47511 
L 147.808738 229.162855 
L 149.746974 228.157342 
L 151.68521 233.739695 
L 153.623446 233.114598 
L 155.561682 242.956139 
L 157.499919 242.947172 
L 159.438155 240.267458 
L 161.376391 239.588562 
L 163.314627 243.219991 
L 165.252863 248.231138 
L 167.191099 247.939055 
L 169.129335 246.749056 
L 171.067571 252.063654 
L 173.005807 253.890286 
L 174.944043 250.04854 
L 176.88228 247.071508 
L 178.820516 237.64501 
L 180.758752 240.447855 
L 182.696988 221.211068 
L 184.635224 220.532173 
L 186.57346 248.615379 
L 188.511696 255.860211 
L 190.449932 263.840229 
L 192.388168 267.371694 
L 194.326404 275.953446 
L 195.941601 262.242377 
L 197.879837 260.695038 
L 199.818073 250.779273 
L 201.756309 199.118153 
L 203.694545 235.702067 
L 205.632782 248.139156 
L 207.571018 233.615749 
L 209.509254 240.821075 
L 211.44749 231.81752 
L 213.708765 236.623678 
L 215.647001 238.811554 
L 217.585237 238.829487 
L 219.523474 233.95293 
L 221.46171 237.922606 
L 223.399946 242.823492 
L 225.338182 245.887355 
L 229.214654 238.133612 
L 230.829851 237.540658 
L 233.091126 236.537717 
L 235.029362 208.993752 
L 236.967598 213.33782 
L 238.905834 224.859865 
L 240.844071 242.01913 
L 242.782307 251.765586 
L 244.720543 253.470327 
L 246.658779 269.023575 
L 248.597015 281.724812 
L 250.212212 268.690146 
L 252.150448 254.00525 
L 254.088684 140.355593 
L 256.02692 205.156127 
L 257.965156 227.55496 
L 259.903392 225.883251 
L 261.841628 233.92763 
L 263.779864 227.586923 
L 265.7181 231.105377 
L 267.979376 228.05069 
L 269.594573 230.721438 
L 271.532809 229.541738 
L 273.471045 239.889147 
L 275.409281 234.117246 
L 277.347517 240.580912 
L 279.285753 243.196529 
L 281.223989 243.706301 
L 283.162225 237.258722 
L 285.423501 236.916742 
L 287.361737 242.975664 
L 289.299973 208.846669 
L 291.238209 212.480683 
L 293.176445 229.071143 
L 295.114681 252.550781 
L 297.052917 270.966634 
L 298.991153 279.654306 
L 300.929389 272.800189 
L 302.867626 286.088843 
L 304.805862 233.930836 
L 306.744098 229.272137 
L 308.682334 228.305061 
L 310.62057 228.328058 
L 312.558806 228.533048 
L 314.497042 229.59112 
L 316.435278 231.451047 
L 318.373514 231.477946 
L 320.31175 230.138089 
L 322.249986 230.799051 
L 324.188223 230.808018 
L 326.126459 230.676092 
L 328.064695 231.337054 
L 330.002931 231.34602 
L 331.941167 230.252082 
L 333.879403 231.875057 
L 335.817639 231.34602 
L 337.755875 232.015949 
L 339.694111 232.024916 
L 341.632347 231.477946 
L 343.570583 231.477946 
L 345.50882 231.884023 
L 347.447056 232.553952 
L 349.385292 233.091954 
L 351.323528 232.147875 
L 353.261764 231.892989 
L 355.2 231.34602 
L 357.138236 232.015949 
L 359.076472 232.915592 
L 361.337748 233.321669 
L 363.275984 231.716627 
L 365.21422 232.122704 
L 371.028928 232.122704 
L 372.967164 232.660706 
L 374.9054 233.330635 
L 376.843636 232.25463 
L 378.781872 232.924559 
L 380.720109 232.245663 
L 382.658345 232.65174 
L 384.596581 232.792633 
L 386.534817 232.25463 
L 388.473053 232.25463 
L 390.411289 232.660706 
L 392.349525 232.792633 
L 394.287761 232.37759 
L 398.487273 232.042866 
L 398.487273 232.042866 
" clip-path="url(#p4db4d66efc)" style="fill: none; stroke: #ff7f0e; stroke-linecap: square"/>
   </g>
   <g id="line2d_31">
    <path d="M 73.832727 249.676059 
L 75.447924 249.881863 
L 77.38616 249.676059 
L 79.324396 249.776616 
L 81.585672 250.367644 
L 83.523908 250.441523 
L 85.462144 249.776616 
L 87.40038 249.908542 
L 89.338616 250.367644 
L 91.276852 249.702737 
L 93.215088 250.040468 
L 95.153324 250.235718 
L 100.968033 249.581365 
L 102.906269 249.850494 
L 104.844505 249.639412 
L 106.782741 249.78717 
L 108.720977 249.37556 
L 110.659213 249.523318 
L 112.597449 250.25155 
L 114.535685 248.85841 
L 116.473921 249.164479 
L 118.412157 249.053661 
L 120.350393 251.718568 
L 122.28863 249.00089 
L 124.226866 250.826747 
L 126.165102 249.401946 
L 128.103338 249.92965 
L 131.97981 249.148647 
L 133.918046 252.346536 
L 135.856282 253.085322 
L 137.794518 254.958672 
L 139.732754 253.33862 
L 141.670991 253.090599 
L 143.609227 239.42203 
L 145.870502 250.071104 
L 147.808738 246.144984 
L 149.746974 248.203031 
L 151.68521 246.060551 
L 153.623446 246.092213 
L 155.561682 245.374535 
L 157.499919 245.448414 
L 159.438155 247.052635 
L 161.376391 247.527569 
L 163.314627 244.308573 
L 165.252863 247.005142 
L 167.191099 245.95501 
L 169.129335 246.076382 
L 171.067571 243.237333 
L 173.005807 242.435222 
L 174.944043 235.089578 
L 176.88228 231.543405 
L 178.820516 232.852111 
L 180.758752 236.725461 
L 182.696988 261.981391 
L 184.635224 262.456325 
L 186.57346 246.055274 
L 188.511696 234.51438 
L 190.449932 220.794067 
L 192.388168 216.050005 
L 194.326404 227.652172 
L 195.941601 240.596759 
L 197.879837 241.446363 
L 199.818073 244.016283 
L 201.756309 229.662725 
L 203.694545 227.446367 
L 205.632782 241.150848 
L 207.571018 242.264305 
L 209.509254 240.443725 
L 211.44749 239.31605 
L 213.708765 240.798899 
L 215.647001 241.031089 
L 217.585237 240.883332 
L 219.523474 242.329242 
L 221.46171 242.128714 
L 223.399946 241.036366 
L 225.338182 233.231619 
L 227.276418 230.577266 
L 229.214654 231.808576 
L 230.829851 224.841413 
L 233.091126 226.324262 
L 235.029362 239.944311 
L 236.967598 258.218712 
L 238.905834 253.205521 
L 240.844071 236.756977 
L 242.782307 222.176506 
L 244.720543 212.983897 
L 246.658779 210.165955 
L 248.597015 221.4493 
L 250.212212 235.180167 
L 252.150448 232.37278 
L 254.088684 189.597066 
L 256.02692 232.32001 
L 257.965156 234.921592 
L 259.903392 233.206553 
L 261.841628 232.494152 
L 263.779864 232.863545 
L 265.7181 234.185151 
L 267.979376 235.24056 
L 269.594573 233.710217 
L 271.532809 236.095441 
L 273.471045 231.631062 
L 275.409281 233.673278 
L 277.347517 232.844782 
L 279.285753 229.419981 
L 283.162225 225.395942 
L 285.423501 226.551615 
L 287.361737 227.395942 
L 289.299973 255.828651 
L 291.238209 256.5991 
L 293.176445 238.477733 
L 295.114681 228.319424 
L 297.052917 212.308875 
L 298.991153 222.604386 
L 300.929389 234.382747 
L 302.867626 234.446072 
L 304.805862 228.329978 
L 306.744098 232.678262 
L 308.682334 233.865597 
L 310.62057 231.881429 
L 312.558806 233.095149 
L 314.497042 233.506758 
L 316.435278 232.984331 
L 318.373514 232.762695 
L 320.31175 233.564805 
L 322.249986 233.237629 
L 324.188223 233.16375 
L 326.126459 233.696732 
L 328.064695 233.369555 
L 331.941167 233.179581 
L 333.879403 233.501481 
L 335.817639 233.295676 
L 337.755875 232.894621 
L 343.570583 232.762695 
L 345.50882 233.427602 
L 347.447056 233.026547 
L 349.385292 233.158473 
L 351.323528 232.36164 
L 353.261764 233.353724 
L 355.2 233.295676 
L 359.076472 232.449297 
L 361.337748 233.114205 
L 363.275984 232.644548 
L 365.21422 233.309455 
L 371.028928 233.309455 
L 372.967164 233.441381 
L 374.9054 233.040326 
L 376.843636 232.776474 
L 378.781872 232.375419 
L 380.720109 232.850352 
L 382.658345 233.51526 
L 384.596581 232.9084 
L 386.534817 232.776474 
L 388.473053 232.776474 
L 390.411289 233.441381 
L 394.287761 232.317371 
L 398.487273 233.567151 
L 398.487273 233.567151 
" clip-path="url(#p4db4d66efc)" style="fill: none; stroke: #2ca02c; stroke-linecap: square"/>
   </g>
   <g id="line2d_32">
    <path d="M 73.832727 217.69371 
L 75.447924 217.966114 
L 79.324396 217.528431 
L 81.585672 217.913017 
L 83.523908 217.922264 
L 85.462144 217.649861 
L 87.40038 217.519184 
L 89.338616 217.519184 
L 91.276852 217.649861 
L 93.215088 218.568203 
L 95.153324 217.519184 
L 97.09156 218.820309 
L 99.029796 217.922264 
L 100.968033 218.69888 
L 102.906269 218.818506 
L 104.844505 217.791587 
L 106.782741 218.437527 
L 108.720977 217.388508 
L 110.659213 218.16332 
L 112.597449 217.758437 
L 114.535685 219.068809 
L 116.473921 219.712945 
L 118.412157 221.823836 
L 120.350393 217.824617 
L 122.28863 218.619726 
L 124.226866 217.697547 
L 126.165102 217.425144 
L 128.103338 220.26845 
L 130.041574 218.855142 
L 131.97981 220.414014 
L 133.918046 219.488228 
L 137.794518 219.539521 
L 139.732754 221.254776 
L 141.670991 217.747036 
L 143.609227 218.628917 
L 145.870502 218.040212 
L 147.808738 212.611225 
L 149.746974 218.665734 
L 151.68521 212.373775 
L 153.623446 211.313706 
L 155.561682 208.15572 
L 157.499919 208.930533 
L 159.438155 213.415351 
L 161.376391 212.835591 
L 163.314627 211.551277 
L 165.252863 211.779249 
L 167.191099 214.49752 
L 169.129335 211.884219 
L 171.067571 214.81232 
L 173.005807 211.059917 
L 174.944043 210.881664 
L 176.88228 223.267273 
L 178.820516 221.660014 
L 180.758752 211.509 
L 182.696988 225.965609 
L 184.635224 209.513899 
L 186.57346 211.729179 
L 188.511696 211.596699 
L 190.449932 218.148208 
L 192.388168 205.649072 
L 194.326404 216.238803 
L 195.941601 216.509052 
L 197.879837 213.426493 
L 199.818073 209.70701 
L 201.756309 209.440998 
L 203.694545 208.375821 
L 205.632782 205.327283 
L 207.571018 208.178263 
L 209.509254 206.335939 
L 211.44749 206.70671 
L 213.708765 208.401668 
L 215.647001 203.885152 
L 217.585237 202.219738 
L 219.523474 208.429057 
L 221.46171 206.649426 
L 223.399946 211.515344 
L 225.338182 212.951333 
L 227.276418 202.291908 
L 230.829851 213.381584 
L 233.091126 207.072004 
L 235.029362 208.089276 
L 236.967598 206.487426 
L 238.905834 200.909039 
L 240.844071 205.896036 
L 242.782307 205.349426 
L 244.720543 206.497775 
L 246.658779 203.161415 
L 248.597015 208.695202 
L 250.212212 208.441292 
L 252.150448 208.00879 
L 254.088684 208.551382 
L 256.02692 207.775068 
L 257.965156 194.973755 
L 259.903392 211.720949 
L 261.841628 199.736737 
L 263.779864 204.392825 
L 265.7181 200.72826 
L 269.594573 198.915485 
L 271.532809 199.489484 
L 273.471045 208.783638 
L 275.409281 204.778779 
L 277.347517 207.224767 
L 279.285753 204.930103 
L 281.223989 204.755226 
L 283.162225 206.77665 
L 285.423501 213.280594 
L 287.361737 203.368011 
L 289.299973 220.518877 
L 291.238209 208.809621 
L 293.176445 203.83716 
L 295.114681 211.111959 
L 297.052917 207.599039 
L 298.991153 214.172878 
L 300.929389 209.52761 
L 302.867626 207.733553 
L 304.805862 209.530576 
L 306.744098 209.380474 
L 308.682334 204.919439 
L 310.62057 210.03025 
L 312.558806 204.28455 
L 314.497042 206.117628 
L 316.435278 206.653187 
L 318.373514 205.352062 
L 320.31175 206.128678 
L 322.249986 206.401081 
L 324.188223 205.867325 
L 326.126459 205.604168 
L 328.064695 205.725598 
L 330.002931 206.139728 
L 331.941167 207.177697 
L 333.879403 206.522511 
L 335.817639 205.745895 
L 337.755875 206.139728 
L 339.694111 205.615218 
L 341.632347 205.876571 
L 343.570583 206.522511 
L 345.50882 206.401081 
L 347.447056 206.009051 
L 349.385292 206.533561 
L 351.323528 206.391834 
L 353.261764 206.391834 
L 357.138236 206.128678 
L 359.076472 206.679768 
L 363.275984 206.285935 
L 367.152456 206.799395 
L 369.090692 206.538042 
L 371.028928 206.538042 
L 372.967164 206.810445 
L 374.9054 206.296985 
L 376.843636 206.155259 
L 378.781872 206.416612 
L 380.720109 206.941121 
L 382.658345 206.538042 
L 384.596581 206.931875 
L 386.534817 206.285935 
L 388.473053 206.679768 
L 392.349525 206.931875 
L 394.287761 206.285935 
L 396.225997 206.62908 
L 398.487273 206.285935 
L 398.487273 206.285935 
" clip-path="url(#p4db4d66efc)" style="fill: none; stroke: #d62728; stroke-linecap: square"/>
   </g>
   <g id="line2d_33">
    <path d="M 73.832727 249.676059 
L 75.447924 250.47972 
L 77.38616 249.676059 
L 79.324396 249.853924 
L 81.585672 250.910771 
L 83.523908 250.526908 
L 85.462144 249.723247 
L 87.40038 250.237786 
L 89.338616 250.237786 
L 91.276852 249.723247 
L 93.215088 250.554677 
L 97.09156 249.909462 
L 99.029796 250.526908 
L 100.968033 250.040138 
L 102.906269 247.692861 
L 104.844505 251.041447 
L 106.782741 251.069216 
L 108.720977 250.752325 
L 110.659213 248.048954 
L 112.597449 245.54323 
L 114.535685 244.831044 
L 116.473921 242.642211 
L 118.412157 247.325334 
L 120.350393 236.248859 
L 122.28863 234.994364 
L 124.226866 241.196601 
L 126.165102 240.39294 
L 128.103338 237.258337 
L 130.041574 237.333475 
L 131.97981 231.54287 
L 133.918046 233.311904 
L 135.856282 233.695766 
L 137.794518 229.21846 
L 139.732754 231.011997 
L 141.670991 234.886556 
L 143.609227 208.52469 
L 145.870502 250.313425 
L 147.808738 230.829545 
L 149.746974 228.601512 
L 151.68521 237.740702 
L 153.623446 235.591072 
L 155.561682 253.098465 
L 157.499919 250.395094 
L 161.376391 231.335917 
L 163.314627 248.97072 
L 165.252863 253.910295 
L 167.191099 246.473165 
L 169.129335 245.297075 
L 171.067571 252.391181 
L 173.005807 254.310492 
L 174.944043 231.594002 
L 176.88228 229.731866 
L 178.820516 226.401246 
L 180.758752 264.147171 
L 182.696988 281.718276 
L 184.635224 264.150437 
L 186.57346 262.863274 
L 188.511696 261.161211 
L 190.449932 248.776342 
L 192.388168 225.234952 
L 194.326404 222.771158 
L 195.941601 212.534282 
L 197.879837 220.363441 
L 199.818073 239.247838 
L 201.756309 209.371906 
L 203.694545 251.299484 
L 205.632782 260.66246 
L 207.571018 243.460523 
L 209.509254 246.614728 
L 211.44749 247.7086 
L 213.708765 248.053261 
L 215.647001 245.684746 
L 217.585237 246.4051 
L 219.523474 238.077738 
L 221.46171 247.795174 
L 223.399946 254.972586 
L 225.338182 255.919992 
L 227.276418 241.117599 
L 229.214654 227.684685 
L 230.829851 240.277553 
L 233.091126 246.220067 
L 235.029362 276.334484 
L 236.967598 279.653669 
L 238.905834 272.918923 
L 240.844071 271.141723 
L 242.782307 267.3178 
L 244.720543 263.838536 
L 246.658779 238.338635 
L 248.597015 224.801361 
L 250.212212 223.229975 
L 252.150448 242.166644 
L 254.088684 222.588026 
L 256.02692 273.801809 
L 259.903392 246.173516 
L 261.841628 266.398978 
L 263.779864 259.045155 
L 265.7181 264.583436 
L 267.979376 256.31973 
L 269.594573 261.536992 
L 271.532809 255.385393 
L 273.471045 270.560214 
L 275.409281 264.300804 
L 277.347517 276.350819 
L 279.285753 274.059077 
L 281.223989 267.24266 
L 283.162225 247.933155 
L 285.423501 264.365737 
L 287.361737 259.478429 
L 289.299973 295.488 
L 291.238209 294.478519 
L 293.176445 282.230855 
L 295.114681 282.702927 
L 297.052917 268.460812 
L 298.991153 248.274551 
L 300.929389 268.927982 
L 302.867626 260.912607 
L 304.805862 265.858716 
L 308.682334 256.288288 
L 310.62057 253.95408 
L 312.558806 258.093258 
L 314.497042 255.322915 
L 316.435278 257.3141 
L 318.373514 257.642424 
L 320.31175 257.155654 
L 322.249986 257.959315 
L 324.188223 258.184732 
L 326.126459 256.997209 
L 328.064695 256.866532 
L 330.002931 258.988393 
L 331.941167 257.472546 
L 333.879403 257.828639 
L 335.817639 258.315409 
L 337.755875 258.988393 
L 339.694111 258.829948 
L 341.632347 257.80087 
L 345.50882 257.959315 
L 347.447056 259.502932 
L 349.385292 259.661378 
L 351.323528 258.343178 
L 353.261764 258.343178 
L 355.2 257.024978 
L 357.138236 257.155654 
L 359.076472 260.566223 
L 361.337748 261.211438 
L 363.275984 259.893238 
L 365.21422 259.248023 
L 367.152456 258.218945 
L 369.090692 259.248023 
L 371.028928 259.248023 
L 372.967164 260.051684 
L 374.9054 261.725977 
L 376.843636 260.407777 
L 378.781872 259.378699 
L 380.720109 259.537145 
L 382.658345 259.248023 
L 384.596581 259.921007 
L 386.534817 259.893238 
L 388.473053 260.566223 
L 390.411289 260.435546 
L 392.349525 259.921007 
L 394.287761 259.893238 
L 396.225997 259.015028 
L 398.487273 259.893238 
L 398.487273 259.893238 
" clip-path="url(#p4db4d66efc)" style="fill: none; stroke: #9467bd; stroke-linecap: square"/>
   </g>
   <g id="line2d_34">
    <path d="M 73.832727 161.724601 
L 75.447924 161.276583 
L 77.38616 161.724601 
L 79.324396 161.010686 
L 81.585672 161.770131 
L 83.523908 161.087176 
L 85.462144 161.535195 
L 87.40038 161.693641 
L 89.338616 161.693641 
L 91.276852 161.535195 
L 93.215088 161.529731 
L 97.09156 161.895795 
L 99.029796 161.087176 
L 100.968033 161.371286 
L 104.844505 161.245622 
L 106.782741 161.688177 
L 108.720977 161.852086 
L 110.659213 161.584368 
L 112.597449 161.639004 
L 114.535685 161.158204 
L 116.473921 161.048931 
L 118.412157 161.141813 
L 120.350393 162.81915 
L 122.28863 161.73735 
L 124.226866 164.081251 
L 126.165102 164.52927 
L 128.103338 165.43077 
L 130.041574 164.021151 
L 131.97981 162.802759 
L 133.918046 164.043006 
L 135.856282 164.725961 
L 137.794518 167.692717 
L 139.732754 167.15728 
L 141.670991 167.179135 
L 143.609227 126.954452 
L 145.870502 151.546295 
L 147.808738 150.289658 
L 149.746974 154.769843 
L 151.68521 150.896122 
L 153.623446 151.191159 
L 155.561682 149.847103 
L 157.499919 149.579385 
L 159.438155 151.966996 
L 161.376391 152.704587 
L 163.314627 148.617784 
L 165.252863 152.136368 
L 167.191099 151.409704 
L 169.129335 151.136522 
L 171.067571 149.885349 
L 173.005807 148.306357 
L 174.944043 144.443563 
L 176.88228 145.208473 
L 178.820516 154.698816 
L 180.758752 147.727211 
L 182.696988 139.39516 
L 184.635224 149.945449 
L 186.57346 157.889581 
L 188.511696 157.496199 
L 190.449932 160.501201 
L 192.388168 151.092813 
L 194.326404 151.684708 
L 195.941601 156.093865 
L 197.879837 155.247001 
L 199.818073 156.71672 
L 201.756309 115.979821 
L 203.694545 137.790671 
L 205.632782 151.362353 
L 207.571018 147.586978 
L 209.509254 149.384515 
L 211.44749 148.774712 
L 213.708765 149.053358 
L 215.647001 153.01996 
L 217.585237 151.244277 
L 219.523474 152.413496 
L 221.46171 152.320615 
L 223.399946 152.397105 
L 225.338182 144.693373 
L 227.276418 145.22881 
L 229.214654 148.180693 
L 230.829851 143.004805 
L 233.091126 155.308922 
L 235.029362 133.902381 
L 236.967598 145.048206 
L 238.905834 148.758018 
L 240.844071 154.768022 
L 242.782307 155.112231 
L 244.720543 155.735086 
L 246.658779 152.495147 
L 248.597015 153.936941 
L 250.212212 153.01905 
L 252.150448 153.155641 
L 254.088684 130.011662 
L 256.02692 152.89885 
L 257.965156 148.877611 
L 259.903392 150.953794 
L 261.841628 147.063682 
L 263.779864 147.664683 
L 265.7181 145.113922 
L 267.979376 148.183425 
L 269.594573 146.140024 
L 271.532809 149.155953 
L 273.471045 144.34795 
L 275.409281 147.811897 
L 277.347517 145.566341 
L 279.285753 141.430366 
L 281.223989 142.113321 
L 283.162225 143.206504 
L 285.423501 141.69854 
L 287.361737 147.457216 
L 289.299973 139.584111 
L 291.238209 152.576647 
L 293.176445 149.506081 
L 295.114681 152.035746 
L 297.052917 146.960025 
L 298.991153 146.260679 
L 300.929389 148.970644 
L 302.867626 144.463142 
L 304.805862 131.820279 
L 306.744098 147.604734 
L 308.682334 147.473607 
L 310.62057 145.708851 
L 312.558806 146.899925 
L 314.497042 145.785342 
L 318.373514 145.370106 
L 320.31175 145.654215 
L 322.249986 145.206197 
L 324.188223 145.971106 
L 326.126459 145.73617 
L 328.064695 146.260679 
L 330.002931 145.523088 
L 331.941167 145.490306 
L 333.879403 145.730706 
L 335.817639 145.446597 
L 339.694111 145.605042 
L 341.632347 145.288151 
L 343.570583 145.730706 
L 345.50882 145.206197 
L 347.447056 145.681533 
L 349.385292 145.599579 
L 351.323528 145.889152 
L 353.261764 145.889152 
L 355.2 146.178724 
L 357.138236 145.654215 
L 359.076472 145.579849 
L 361.337748 145.213785 
L 365.21422 145.869422 
L 367.152456 145.552531 
L 369.090692 145.869422 
L 371.028928 145.869422 
L 372.967164 145.421403 
L 374.9054 145.37223 
L 376.843636 145.661803 
L 378.781872 145.344912 
L 380.720109 145.262958 
L 382.658345 145.869422 
L 384.596581 145.945913 
L 386.534817 145.503358 
L 388.473053 145.579849 
L 390.411289 146.104358 
L 392.349525 145.945913 
L 394.287761 145.503358 
L 396.225997 146.001611 
L 398.487273 145.503358 
L 398.487273 145.503358 
" clip-path="url(#p4db4d66efc)" style="fill: none; stroke: #8c564b; stroke-linecap: square"/>
   </g>
   <g id="line2d_35">
    <path d="M 73.832727 249.676059 
L 75.447924 249.789996 
L 77.38616 249.676059 
L 83.523908 249.766425 
L 85.462144 250.237503 
L 87.40038 249.766425 
L 89.338616 250.237503 
L 91.276852 249.766425 
L 93.215088 249.842786 
L 95.153324 249.766425 
L 97.09156 250.35144 
L 99.029796 249.766425 
L 100.968033 250.313864 
L 104.844505 250.237503 
L 106.782741 249.29414 
L 108.720977 250.198718 
L 110.659213 250.669795 
L 112.597449 251.256018 
L 114.535685 250.784941 
L 116.473921 248.278041 
L 118.412157 252.073741 
L 120.350393 248.826688 
L 122.28863 249.641994 
L 124.226866 251.512184 
L 126.165102 251.384127 
L 128.103338 252.401435 
L 130.041574 253.589208 
L 131.97981 252.966617 
L 133.918046 250.740496 
L 135.856282 248.268756 
L 137.794518 252.174768 
L 139.732754 251.741267 
L 141.670991 248.967708 
L 143.609227 222.502073 
L 145.870502 244.098389 
L 147.808738 235.109085 
L 149.746974 236.729151 
L 151.68521 236.711407 
L 153.623446 233.053049 
L 155.561682 237.47134 
L 157.499919 235.796282 
L 159.438155 236.631421 
L 163.314627 246.270346 
L 165.252863 242.741305 
L 167.191099 237.192978 
L 169.129335 240.706691 
L 171.067571 248.370827 
L 173.005807 250.359788 
L 174.944043 251.163286 
L 176.88228 237.009877 
L 180.758752 219.126306 
L 182.696988 235.490838 
L 184.635224 239.511996 
L 186.57346 233.651027 
L 188.511696 238.41113 
L 192.388168 241.86381 
L 194.326404 244.245214 
L 195.941601 245.491604 
L 197.879837 243.097433 
L 199.818073 236.840869 
L 201.756309 213.958168 
L 203.694545 234.900307 
L 205.632782 241.679368 
L 207.571018 225.447673 
L 209.509254 229.628476 
L 211.44749 229.785649 
L 213.708765 238.16857 
L 215.647001 236.527463 
L 217.585237 239.787427 
L 219.523474 239.1483 
L 221.46171 240.056504 
L 223.399946 238.209771 
L 225.338182 243.002946 
L 227.276418 241.573126 
L 229.214654 240.895275 
L 230.829851 241.011849 
L 233.091126 221.631764 
L 236.967598 239.641027 
L 238.905834 232.972882 
L 240.844071 234.427315 
L 242.782307 237.22554 
L 244.720543 241.809464 
L 246.658779 241.186873 
L 248.597015 242.045937 
L 250.212212 240.521185 
L 252.150448 245.344739 
L 254.088684 221.977669 
L 256.02692 242.822787 
L 257.965156 227.364922 
L 259.903392 233.365321 
L 261.841628 230.279448 
L 263.779864 229.949391 
L 265.7181 233.102543 
L 269.594573 241.247211 
L 271.532809 238.535894 
L 273.471045 241.441135 
L 275.409281 233.230769 
L 277.347517 237.572699 
L 279.285753 246.050933 
L 281.223989 248.792958 
L 283.162225 235.225566 
L 287.361737 222.654318 
L 289.299973 225.308279 
L 291.238209 227.442712 
L 293.176445 220.218998 
L 295.114681 228.048767 
L 297.052917 226.918731 
L 298.991153 228.730304 
L 300.929389 238.514754 
L 302.867626 237.281274 
L 304.805862 228.564947 
L 306.744098 227.995864 
L 308.682334 230.724925 
L 310.62057 232.496505 
L 312.558806 233.500901 
L 314.497042 233.934402 
L 316.435278 233.463325 
L 318.373514 234.634563 
L 320.31175 233.934402 
L 322.249986 235.10564 
L 324.188223 235.576717 
L 326.126459 234.952918 
L 328.064695 233.463325 
L 330.002931 233.50211 
L 331.941167 234.444264 
L 333.879403 235.182001 
L 335.817639 235.182001 
L 337.755875 234.558202 
L 339.694111 234.558202 
L 341.632347 235.10564 
L 343.570583 234.558202 
L 347.447056 234.558202 
L 349.385292 234.125909 
L 351.323528 233.973187 
L 353.261764 234.558202 
L 355.2 234.558202 
L 357.138236 233.973187 
L 359.076472 234.769457 
L 361.337748 235.35568 
L 365.21422 234.184442 
L 367.152456 234.73188 
L 369.090692 234.655519 
L 371.028928 234.845818 
L 372.967164 234.29838 
L 374.9054 234.845818 
L 376.843636 234.694304 
L 378.781872 234.222019 
L 380.720109 233.523066 
L 382.658345 233.637004 
L 384.596581 234.222019 
L 386.534817 233.750941 
L 388.473053 233.637004 
L 390.411289 234.29838 
L 394.287761 234.184442 
L 396.225997 234.235588 
L 398.487273 235.084648 
L 398.487273 235.084648 
" clip-path="url(#p4db4d66efc)" style="fill: none; stroke: #e377c2; stroke-linecap: square"/>
   </g>
   <g id="line2d_36">
    <path d="M 73.832727 249.676059 
L 75.447924 249.773116 
L 77.38616 249.676059 
L 79.324396 250.731793 
L 81.585672 249.956151 
L 83.523908 250.3925 
L 85.462144 249.918575 
L 87.40038 250.3925 
L 89.338616 249.918575 
L 93.215088 250.82885 
L 97.09156 250.015632 
L 99.029796 250.3925 
L 102.906269 250.354924 
L 104.844505 249.918575 
L 106.782741 249.751493 
L 108.720977 249.142934 
L 110.659213 248.669008 
L 112.597449 249.407073 
L 114.535685 249.880999 
L 116.473921 252.492861 
L 118.412157 253.684052 
L 120.350393 253.570218 
L 122.28863 255.617331 
L 124.226866 255.698716 
L 126.165102 257.578746 
L 128.103338 255.95231 
L 131.97981 257.282447 
L 133.918046 258.886978 
L 135.856282 258.929682 
L 137.794518 256.87313 
L 139.732754 257.007763 
L 141.670991 258.64987 
L 143.609227 258.017186 
L 145.870502 258.671002 
L 147.808738 256.848243 
L 149.746974 256.212652 
L 151.68521 254.844939 
L 153.623446 245.336898 
L 155.561682 245.811928 
L 157.499919 250.723683 
L 159.438155 251.06379 
L 161.376391 246.518649 
L 163.314627 247.101281 
L 165.252863 246.879846 
L 167.191099 249.049127 
L 169.129335 250.132716 
L 171.067571 249.606647 
L 173.005807 254.244822 
L 174.944043 240.395483 
L 176.88228 245.153618 
L 178.820516 237.939762 
L 180.758752 249.174213 
L 182.696988 248.978286 
L 184.635224 248.133725 
L 186.57346 251.919712 
L 190.449932 253.348825 
L 192.388168 252.470999 
L 194.326404 251.184396 
L 195.941601 250.867009 
L 197.879837 252.460995 
L 199.818073 261.346908 
L 201.756309 259.119905 
L 203.694545 256.352138 
L 207.571018 242.146966 
L 209.509254 243.560118 
L 211.44749 252.429901 
L 213.708765 249.917015 
L 215.647001 251.144678 
L 217.585237 248.166491 
L 219.523474 248.629872 
L 221.46171 251.366113 
L 223.399946 252.922523 
L 225.338182 254.194284 
L 227.276418 245.311578 
L 229.214654 248.528205 
L 230.829851 240.360897 
L 233.091126 243.981904 
L 235.029362 248.315157 
L 236.967598 245.903115 
L 238.905834 250.141938 
L 240.844071 251.72567 
L 242.782307 252.836291 
L 244.720543 251.091999 
L 246.658779 251.80816 
L 248.597015 249.077417 
L 252.150448 256.926574 
L 254.088684 242.90923 
L 256.02692 255.653472 
L 257.965156 252.166123 
L 259.903392 236.988567 
L 261.841628 245.551965 
L 263.779864 251.105543 
L 265.7181 246.824482 
L 267.979376 243.78473 
L 269.594573 244.68475 
L 271.532809 248.740293 
L 273.471045 248.562956 
L 275.409281 250.241535 
L 277.347517 250.280216 
L 279.285753 250.686326 
L 281.223989 254.958177 
L 283.162225 242.065209 
L 285.423501 251.501015 
L 287.361737 241.22246 
L 289.299973 249.264916 
L 291.238209 248.08619 
L 293.176445 249.862641 
L 295.114681 247.11725 
L 297.052917 249.761561 
L 298.991153 250.77431 
L 300.929389 251.046602 
L 302.867626 248.271969 
L 306.744098 248.318696 
L 308.682334 245.630865 
L 310.62057 244.753039 
L 312.558806 246.218624 
L 314.497042 246.083991 
L 318.373514 246.919113 
L 320.31175 246.083991 
L 322.249986 246.445187 
L 326.126459 245.572489 
L 328.064695 246.557916 
L 330.002931 247.333558 
L 331.941167 246.385707 
L 333.879403 246.881537 
L 335.817639 246.881537 
L 337.755875 246.482764 
L 347.447056 246.482764 
L 349.385292 247.732331 
L 351.323528 246.859632 
L 353.261764 246.482764 
L 355.2 246.482764 
L 357.138236 246.859632 
L 359.076472 246.346672 
L 361.337748 247.084737 
L 363.275984 247.122314 
L 365.21422 246.723541 
L 367.152456 246.685964 
L 369.090692 246.249615 
L 371.028928 246.783022 
L 374.9054 246.783022 
L 376.843636 247.025257 
L 378.781872 246.384249 
L 380.720109 246.66406 
L 382.658345 246.761117 
L 384.596581 246.384249 
L 386.534817 246.858174 
L 388.473053 246.761117 
L 390.411289 246.820598 
L 392.349525 246.384249 
L 394.287761 246.723541 
L 396.225997 246.261727 
L 398.487273 246.804501 
L 398.487273 246.804501 
" clip-path="url(#p4db4d66efc)" style="fill: none; stroke: #7f7f7f; stroke-linecap: square"/>
   </g>
   <g id="line2d_37">
    <path d="M 73.832727 81.768731 
L 75.447924 82.537796 
L 77.38616 81.768731 
L 79.324396 81.627675 
L 81.585672 81.731308 
L 83.523908 82.064024 
L 85.462144 81.654947 
L 87.40038 82.064024 
L 89.338616 81.654947 
L 93.215088 82.39674 
L 95.153324 82.064024 
L 97.09156 82.424012 
L 99.029796 82.064024 
L 102.906269 81.987663 
L 104.844505 81.654947 
L 106.782741 83.013083 
L 108.720977 81.75858 
L 110.659213 81.349502 
L 112.597449 81.169508 
L 114.535685 81.578585 
L 116.473921 82.418558 
L 118.412157 80.907699 
L 122.28863 82.620369 
L 124.226866 83.929417 
L 126.165102 86.105708 
L 128.103338 86.160252 
L 130.041574 82.314925 
L 131.97981 81.518587 
L 133.918046 80.847701 
L 135.856282 83.203986 
L 139.732754 84.927565 
L 141.670991 84.33304 
L 143.609227 53.568 
L 145.870502 75.429093 
L 147.808738 76.192704 
L 149.746974 72.041932 
L 151.68521 76.607235 
L 153.623446 75.156374 
L 155.561682 74.441853 
L 157.499919 72.074659 
L 159.438155 77.894465 
L 161.376391 75.341823 
L 163.314627 72.57646 
L 165.252863 75.521817 
L 167.191099 74.872747 
L 169.129335 75.41273 
L 171.067571 74.343674 
L 173.005807 74.261859 
L 174.944043 62.720424 
L 176.88228 63.418582 
L 178.820516 71.240141 
L 180.758752 77.932646 
L 182.696988 70.743794 
L 184.635224 71.85103 
L 186.57346 80.223479 
L 188.511696 81.816153 
L 190.449932 81.483437 
L 192.388168 78.53808 
L 194.326404 73.913234 
L 195.941601 74.965926 
L 197.879837 77.114946 
L 199.818073 76.122251 
L 201.756309 53.852081 
L 203.694545 64.668086 
L 205.632782 80.502106 
L 207.571018 76.242247 
L 209.509254 85.421943 
L 211.44749 71.24211 
L 213.708765 76.303761 
L 215.647001 75.992862 
L 217.585237 72.692971 
L 219.523474 75.921955 
L 221.46171 73.047505 
L 223.399946 75.120163 
L 225.338182 68.662196 
L 227.276418 66.802258 
L 230.829851 65.326246 
L 233.091126 73.327799 
L 235.029362 76.611326 
L 236.967598 64.829899 
L 238.905834 79.251238 
L 240.844071 76.840409 
L 242.782307 80.276659 
L 244.720543 77.822195 
L 246.658779 77.025858 
L 248.597015 73.363101 
L 250.212212 72.741303 
L 252.150448 77.072068 
L 254.088684 61.150779 
L 256.02692 63.637969 
L 257.965156 79.139273 
L 259.903392 77.372058 
L 261.841628 75.152132 
L 263.779864 78.092035 
L 265.7181 75.449092 
L 267.979376 77.077826 
L 269.594573 73.259771 
L 271.532809 75.943318 
L 273.471045 72.741606 
L 275.409281 73.347041 
L 277.347517 72.299803 
L 279.285753 72.588884 
L 281.223989 70.04715 
L 283.162225 61.190323 
L 285.423501 67.015584 
L 287.361737 67.94828 
L 289.299973 66.939223 
L 291.238209 70.762732 
L 293.176445 78.393388 
L 295.114681 75.584391 
L 297.052917 74.220799 
L 298.991153 70.631828 
L 300.929389 76.331638 
L 302.867626 72.873571 
L 304.805862 54.612359 
L 306.744098 78.63338 
L 308.682334 71.38453 
L 310.62057 68.439173 
L 312.558806 70.899091 
L 314.497042 70.053665 
L 316.435278 70.462742 
L 318.373514 70.642736 
L 320.31175 70.053665 
L 322.249986 70.233659 
L 324.188223 69.824582 
L 326.126459 69.568227 
L 328.064695 70.462742 
L 330.002931 70.359109 
L 331.941167 69.540955 
L 333.879403 70.566375 
L 335.817639 70.566375 
L 337.755875 70.31002 
L 347.447056 70.31002 
L 349.385292 70.615465 
L 351.323528 69.950032 
L 353.261764 70.31002 
L 355.2 70.31002 
L 357.138236 69.950032 
L 359.076472 70.440016 
L 361.337748 70.260022 
L 363.275984 70.336383 
L 365.21422 70.080028 
L 367.152456 70.003667 
L 369.090692 69.67095 
L 371.028928 70.772732 
L 372.967164 70.849093 
L 374.9054 70.772732 
L 376.843636 69.567317 
L 378.781872 70.516377 
L 380.720109 69.387323 
L 382.658345 70.156389 
L 386.534817 70.925454 
L 388.473053 70.156389 
L 390.411289 70.849093 
L 394.287761 70.080028 
L 396.225997 70.673947 
L 398.487273 71.022875 
L 398.487273 71.022875 
" clip-path="url(#p4db4d66efc)" style="fill: none; stroke: #bcbd22; stroke-linecap: square"/>
   </g>
   <g id="patch_3">
    <path d="M 57.6 307.584 
L 57.6 41.472 
" style="fill: none; stroke: #000000; stroke-width: 0.8; stroke-linejoin: miter; stroke-linecap: square"/>
   </g>
   <g id="patch_4">
    <path d="M 414.72 307.584 
L 414.72 41.472 
" style="fill: none; stroke: #000000; stroke-width: 0.8; stroke-linejoin: miter; stroke-linecap: square"/>
   </g>
   <g id="patch_5">
    <path d="M 57.6 307.584 
L 414.72 307.584 
" style="fill: none; stroke: #000000; stroke-width: 0.8; stroke-linejoin: miter; stroke-linecap: square"/>
   </g>
   <g id="patch_6">
    <path d="M 57.6 41.472 
L 414.72 41.472 
" style="fill: none; stroke: #000000; stroke-width: 0.8; stroke-linejoin: miter; stroke-linecap: square"/>
   </g>
   <g id="text_17">
    <!-- IMU Positions -->
    <g transform="translate(196.4325 35.472) scale(0.12 -0.12)">
     <defs>
      <path id="DejaVuSans-49" d="M 628 4666 
L 1259 4666 
L 1259 0 
L 628 0 
L 628 4666 
z
" transform="scale(0.015625)"/>
      <path id="DejaVuSans-4d" d="M 628 4666 
L 1569 4666 
L 2759 1491 
L 3956 4666 
L 4897 4666 
L 4897 0 
L 4281 0 
L 4281 4097 
L 3078 897 
L 2444 897 
L 1241 4097 
L 1241 0 
L 628 0 
L 628 4666 
z
" transform="scale(0.015625)"/>
      <path id="DejaVuSans-55" d="M 556 4666 
L 1191 4666 
L 1191 1831 
Q 1191 1081 1462 751 
Q 1734 422 2344 422 
Q 2950 422 3222 751 
Q 3494 1081 3494 1831 
L 3494 4666 
L 4128 4666 
L 4128 1753 
Q 4128 841 3676 375 
Q 3225 -91 2344 -91 
Q 1459 -91 1007 375 
Q 556 841 556 1753 
L 556 4666 
z
" transform="scale(0.015625)"/>
     </defs>
     <use xlink:href="#DejaVuSans-49"/>
     <use xlink:href="#DejaVuSans-4d" x="29.492188"/>
     <use xlink:href="#DejaVuSans-55" x="115.771484"/>
     <use xlink:href="#DejaVuSans-20" x="188.964844"/>
     <use xlink:href="#DejaVuSans-50" x="220.751953"/>
     <use xlink:href="#DejaVuSans-6f" x="277.429688"/>
     <use xlink:href="#DejaVuSans-73" x="338.611328"/>
     <use xlink:href="#DejaVuSans-69" x="390.710938"/>
     <use xlink:href="#DejaVuSans-74" x="418.494141"/>
     <use xlink:href="#DejaVuSans-69" x="457.703125"/>
     <use xlink:href="#DejaVuSans-6f" x="485.486328"/>
     <use xlink:href="#DejaVuSans-6e" x="546.667969"/>
     <use xlink:href="#DejaVuSans-73" x="610.046875"/>
    </g>
   </g>
   <g id="legend_1">
    <g id="patch_7">
     <path d="M 410.658313 215.468363 
L 461.288 215.468363 
Q 463.288 215.468363 463.288 213.468363 
L 463.288 82.365238 
Q 463.288 80.365238 461.288 80.365238 
L 410.658313 80.365238 
Q 408.658313 80.365238 408.658313 82.365238 
L 408.658313 213.468363 
Q 408.658313 215.468363 410.658313 215.468363 
z
" style="fill: #ffffff; opacity: 0.8; stroke: #cccccc; stroke-linejoin: miter"/>
    </g>
    <g id="line2d_38">
     <path d="M 412.658313 88.463675 
L 422.658313 88.463675 
L 432.658313 88.463675 
" style="fill: none; stroke: #1f77b4; stroke-linecap: square"/>
    </g>
    <g id="text_18">
     <!-- px1 -->
     <g transform="translate(440.658313 91.963675) scale(0.1 -0.1)">
      <defs>
       <path id="DejaVuSans-70" d="M 1159 525 
L 1159 -1331 
L 581 -1331 
L 581 3500 
L 1159 3500 
L 1159 2969 
Q 1341 3281 1617 3432 
Q 1894 3584 2278 3584 
Q 2916 3584 3314 3078 
Q 3713 2572 3713 1747 
Q 3713 922 3314 415 
Q 2916 -91 2278 -91 
Q 1894 -91 1617 61 
Q 1341 213 1159 525 
z
M 3116 1747 
Q 3116 2381 2855 2742 
Q 2594 3103 2138 3103 
Q 1681 3103 1420 2742 
Q 1159 2381 1159 1747 
Q 1159 1113 1420 752 
Q 1681 391 2138 391 
Q 2594 391 2855 752 
Q 3116 1113 3116 1747 
z
" transform="scale(0.015625)"/>
       <path id="DejaVuSans-78" d="M 3513 3500 
L 2247 1797 
L 3578 0 
L 2900 0 
L 1881 1375 
L 863 0 
L 184 0 
L 1544 1831 
L 300 3500 
L 978 3500 
L 1906 2253 
L 2834 3500 
L 3513 3500 
z
" transform="scale(0.015625)"/>
      </defs>
      <use xlink:href="#DejaVuSans-70"/>
      <use xlink:href="#DejaVuSans-78" x="63.476562"/>
      <use xlink:href="#DejaVuSans-31" x="122.65625"/>
     </g>
    </g>
    <g id="line2d_39">
     <path d="M 412.658313 103.1418 
L 422.658313 103.1418 
L 432.658313 103.1418 
" style="fill: none; stroke: #ff7f0e; stroke-linecap: square"/>
    </g>
    <g id="text_19">
     <!-- py1 -->
     <g transform="translate(440.658313 106.6418) scale(0.1 -0.1)">
      <defs>
       <path id="DejaVuSans-79" d="M 2059 -325 
Q 1816 -950 1584 -1140 
Q 1353 -1331 966 -1331 
L 506 -1331 
L 506 -850 
L 844 -850 
Q 1081 -850 1212 -737 
Q 1344 -625 1503 -206 
L 1606 56 
L 191 3500 
L 800 3500 
L 1894 763 
L 2988 3500 
L 3597 3500 
L 2059 -325 
z
" transform="scale(0.015625)"/>
      </defs>
      <use xlink:href="#DejaVuSans-70"/>
      <use xlink:href="#DejaVuSans-79" x="63.476562"/>
      <use xlink:href="#DejaVuSans-31" x="122.65625"/>
     </g>
    </g>
    <g id="line2d_40">
     <path d="M 412.658313 117.819925 
L 422.658313 117.819925 
L 432.658313 117.819925 
" style="fill: none; stroke: #2ca02c; stroke-linecap: square"/>
    </g>
    <g id="text_20">
     <!-- pz1 -->
     <g transform="translate(440.658313 121.319925) scale(0.1 -0.1)">
      <defs>
       <path id="DejaVuSans-7a" d="M 353 3500 
L 3084 3500 
L 3084 2975 
L 922 459 
L 3084 459 
L 3084 0 
L 275 0 
L 275 525 
L 2438 3041 
L 353 3041 
L 353 3500 
z
" transform="scale(0.015625)"/>
      </defs>
      <use xlink:href="#DejaVuSans-70"/>
      <use xlink:href="#DejaVuSans-7a" x="63.476562"/>
      <use xlink:href="#DejaVuSans-31" x="115.966797"/>
     </g>
    </g>
    <g id="line2d_41">
     <path d="M 412.658313 132.49805 
L 422.658313 132.49805 
L 432.658313 132.49805 
" style="fill: none; stroke: #d62728; stroke-linecap: square"/>
    </g>
    <g id="text_21">
     <!-- px2 -->
     <g transform="translate(440.658313 135.99805) scale(0.1 -0.1)">
      <use xlink:href="#DejaVuSans-70"/>
      <use xlink:href="#DejaVuSans-78" x="63.476562"/>
      <use xlink:href="#DejaVuSans-32" x="122.65625"/>
     </g>
    </g>
    <g id="line2d_42">
     <path d="M 412.658313 147.176175 
L 422.658313 147.176175 
L 432.658313 147.176175 
" style="fill: none; stroke: #9467bd; stroke-linecap: square"/>
    </g>
    <g id="text_22">
     <!-- py2 -->
     <g transform="translate(440.658313 150.676175) scale(0.1 -0.1)">
      <use xlink:href="#DejaVuSans-70"/>
      <use xlink:href="#DejaVuSans-79" x="63.476562"/>
      <use xlink:href="#DejaVuSans-32" x="122.65625"/>
     </g>
    </g>
    <g id="line2d_43">
     <path d="M 412.658313 161.8543 
L 422.658313 161.8543 
L 432.658313 161.8543 
" style="fill: none; stroke: #8c564b; stroke-linecap: square"/>
    </g>
    <g id="text_23">
     <!-- pz2 -->
     <g transform="translate(440.658313 165.3543) scale(0.1 -0.1)">
      <use xlink:href="#DejaVuSans-70"/>
      <use xlink:href="#DejaVuSans-7a" x="63.476562"/>
      <use xlink:href="#DejaVuSans-32" x="115.966797"/>
     </g>
    </g>
    <g id="line2d_44">
     <path d="M 412.658313 176.532425 
L 422.658313 176.532425 
L 432.658313 176.532425 
" style="fill: none; stroke: #e377c2; stroke-linecap: square"/>
    </g>
    <g id="text_24">
     <!-- px3 -->
     <g transform="translate(440.658313 180.032425) scale(0.1 -0.1)">
      <defs>
       <path id="DejaVuSans-33" d="M 2597 2516 
Q 3050 2419 3304 2112 
Q 3559 1806 3559 1356 
Q 3559 666 3084 287 
Q 2609 -91 1734 -91 
Q 1441 -91 1130 -33 
Q 819 25 488 141 
L 488 750 
Q 750 597 1062 519 
Q 1375 441 1716 441 
Q 2309 441 2620 675 
Q 2931 909 2931 1356 
Q 2931 1769 2642 2001 
Q 2353 2234 1838 2234 
L 1294 2234 
L 1294 2753 
L 1863 2753 
Q 2328 2753 2575 2939 
Q 2822 3125 2822 3475 
Q 2822 3834 2567 4026 
Q 2313 4219 1838 4219 
Q 1578 4219 1281 4162 
Q 984 4106 628 3988 
L 628 4550 
Q 988 4650 1302 4700 
Q 1616 4750 1894 4750 
Q 2613 4750 3031 4423 
Q 3450 4097 3450 3541 
Q 3450 3153 3228 2886 
Q 3006 2619 2597 2516 
z
" transform="scale(0.015625)"/>
      </defs>
      <use xlink:href="#DejaVuSans-70"/>
      <use xlink:href="#DejaVuSans-78" x="63.476562"/>
      <use xlink:href="#DejaVuSans-33" x="122.65625"/>
     </g>
    </g>
    <g id="line2d_45">
     <path d="M 412.658313 191.21055 
L 422.658313 191.21055 
L 432.658313 191.21055 
" style="fill: none; stroke: #7f7f7f; stroke-linecap: square"/>
    </g>
    <g id="text_25">
     <!-- py3 -->
     <g transform="translate(440.658313 194.71055) scale(0.1 -0.1)">
      <use xlink:href="#DejaVuSans-70"/>
      <use xlink:href="#DejaVuSans-79" x="63.476562"/>
      <use xlink:href="#DejaVuSans-33" x="122.65625"/>
     </g>
    </g>
    <g id="line2d_46">
     <path d="M 412.658313 205.888675 
L 422.658313 205.888675 
L 432.658313 205.888675 
" style="fill: none; stroke: #bcbd22; stroke-linecap: square"/>
    </g>
    <g id="text_26">
     <!-- pz3 -->
     <g transform="translate(440.658313 209.388675) scale(0.1 -0.1)">
      <use xlink:href="#DejaVuSans-70"/>
      <use xlink:href="#DejaVuSans-7a" x="63.476562"/>
      <use xlink:href="#DejaVuSans-33" x="115.966797"/>
     </g>
    </g>
   </g>
  </g>
 </g>
 <defs>
  <clipPath id="p4db4d66efc">
   <rect x="57.6" y="41.472" width="357.12" height="266.112"/>
  </clipPath>
 </defs>
</svg>
