<?xml version="1.0" encoding="utf-8" standalone="no"?>
<!DOCTYPE svg PUBLIC "-//W3C//DTD SVG 1.1//EN"
  "http://www.w3.org/Graphics/SVG/1.1/DTD/svg11.dtd">
<svg xmlns:xlink="http://www.w3.org/1999/xlink" width="460.8pt" height="345.6pt" viewBox="0 0 460.8 345.6" xmlns="http://www.w3.org/2000/svg" version="1.1">
 <metadata>
  <rdf:RDF xmlns:dc="http://purl.org/dc/elements/1.1/" xmlns:cc="http://creativecommons.org/ns#" xmlns:rdf="http://www.w3.org/1999/02/22-rdf-syntax-ns#">
   <cc:Work>
    <dc:type rdf:resource="http://purl.org/dc/dcmitype/StillImage"/>
    <dc:date>2023-11-29T21:15:48.383471</dc:date>
    <dc:format>image/svg+xml</dc:format>
    <dc:creator>
     <cc:Agent>
      <dc:title>Matplotlib v3.7.2, https://matplotlib.org/</dc:title>
     </cc:Agent>
    </dc:creator>
   </cc:Work>
  </rdf:RDF>
 </metadata>
 <defs>
  <style type="text/css">*{stroke-linejoin: round; stroke-linecap: butt}</style>
 </defs>
 <g id="figure_1">
  <g id="patch_1">
   <path d="M 0 345.6 
L 460.8 345.6 
L 460.8 0 
L 0 0 
z
" style="fill: #ffffff"/>
  </g>
  <g id="axes_1">
   <g id="patch_2">
    <path d="M 57.6 307.584 
L 414.72 307.584 
L 414.72 41.472 
L 57.6 41.472 
z
" style="fill: #ffffff"/>
   </g>
   <g id="matplotlib.axis_1">
    <g id="xtick_1">
     <g id="line2d_1">
      <path d="M 65.952763 307.584 
L 65.952763 41.472 
" clip-path="url(#p7c14d5876b)" style="fill: none; stroke: #b0b0b0; stroke-width: 0.8; stroke-linecap: square"/>
     </g>
     <g id="line2d_2">
      <defs>
       <path id="md3cb622986" d="M 0 0 
L 0 3.5 
" style="stroke: #000000; stroke-width: 0.8"/>
      </defs>
      <g>
       <use xlink:href="#md3cb622986" x="65.952763" y="307.584" style="stroke: #000000; stroke-width: 0.8"/>
      </g>
     </g>
     <g id="text_1">
      <!-- 0 -->
      <g transform="translate(62.771513 322.182437) scale(0.1 -0.1)">
       <defs>
        <path id="DejaVuSans-30" d="M 2034 4250 
Q 1547 4250 1301 3770 
Q 1056 3291 1056 2328 
Q 1056 1369 1301 889 
Q 1547 409 2034 409 
Q 2525 409 2770 889 
Q 3016 1369 3016 2328 
Q 3016 3291 2770 3770 
Q 2525 4250 2034 4250 
z
M 2034 4750 
Q 2819 4750 3233 4129 
Q 3647 3509 3647 2328 
Q 3647 1150 3233 529 
Q 2819 -91 2034 -91 
Q 1250 -91 836 529 
Q 422 1150 422 2328 
Q 422 3509 836 4129 
Q 1250 4750 2034 4750 
z
" transform="scale(0.015625)"/>
       </defs>
       <use xlink:href="#DejaVuSans-30"/>
      </g>
     </g>
    </g>
    <g id="xtick_2">
     <g id="line2d_3">
      <path d="M 128.99248 307.584 
L 128.99248 41.472 
" clip-path="url(#p7c14d5876b)" style="fill: none; stroke: #b0b0b0; stroke-width: 0.8; stroke-linecap: square"/>
     </g>
     <g id="line2d_4">
      <g>
       <use xlink:href="#md3cb622986" x="128.99248" y="307.584" style="stroke: #000000; stroke-width: 0.8"/>
      </g>
     </g>
     <g id="text_2">
      <!-- 2 -->
      <g transform="translate(125.81123 322.182437) scale(0.1 -0.1)">
       <defs>
        <path id="DejaVuSans-32" d="M 1228 531 
L 3431 531 
L 3431 0 
L 469 0 
L 469 531 
Q 828 903 1448 1529 
Q 2069 2156 2228 2338 
Q 2531 2678 2651 2914 
Q 2772 3150 2772 3378 
Q 2772 3750 2511 3984 
Q 2250 4219 1831 4219 
Q 1534 4219 1204 4116 
Q 875 4013 500 3803 
L 500 4441 
Q 881 4594 1212 4672 
Q 1544 4750 1819 4750 
Q 2544 4750 2975 4387 
Q 3406 4025 3406 3419 
Q 3406 3131 3298 2873 
Q 3191 2616 2906 2266 
Q 2828 2175 2409 1742 
Q 1991 1309 1228 531 
z
" transform="scale(0.015625)"/>
       </defs>
       <use xlink:href="#DejaVuSans-32"/>
      </g>
     </g>
    </g>
    <g id="xtick_3">
     <g id="line2d_5">
      <path d="M 192.032198 307.584 
L 192.032198 41.472 
" clip-path="url(#p7c14d5876b)" style="fill: none; stroke: #b0b0b0; stroke-width: 0.8; stroke-linecap: square"/>
     </g>
     <g id="line2d_6">
      <g>
       <use xlink:href="#md3cb622986" x="192.032198" y="307.584" style="stroke: #000000; stroke-width: 0.8"/>
      </g>
     </g>
     <g id="text_3">
      <!-- 4 -->
      <g transform="translate(188.850948 322.182437) scale(0.1 -0.1)">
       <defs>
        <path id="DejaVuSans-34" d="M 2419 4116 
L 825 1625 
L 2419 1625 
L 2419 4116 
z
M 2253 4666 
L 3047 4666 
L 3047 1625 
L 3713 1625 
L 3713 1100 
L 3047 1100 
L 3047 0 
L 2419 0 
L 2419 1100 
L 313 1100 
L 313 1709 
L 2253 4666 
z
" transform="scale(0.015625)"/>
       </defs>
       <use xlink:href="#DejaVuSans-34"/>
      </g>
     </g>
    </g>
    <g id="xtick_4">
     <g id="line2d_7">
      <path d="M 255.071915 307.584 
L 255.071915 41.472 
" clip-path="url(#p7c14d5876b)" style="fill: none; stroke: #b0b0b0; stroke-width: 0.8; stroke-linecap: square"/>
     </g>
     <g id="line2d_8">
      <g>
       <use xlink:href="#md3cb622986" x="255.071915" y="307.584" style="stroke: #000000; stroke-width: 0.8"/>
      </g>
     </g>
     <g id="text_4">
      <!-- 6 -->
      <g transform="translate(251.890665 322.182437) scale(0.1 -0.1)">
       <defs>
        <path id="DejaVuSans-36" d="M 2113 2584 
Q 1688 2584 1439 2293 
Q 1191 2003 1191 1497 
Q 1191 994 1439 701 
Q 1688 409 2113 409 
Q 2538 409 2786 701 
Q 3034 994 3034 1497 
Q 3034 2003 2786 2293 
Q 2538 2584 2113 2584 
z
M 3366 4563 
L 3366 3988 
Q 3128 4100 2886 4159 
Q 2644 4219 2406 4219 
Q 1781 4219 1451 3797 
Q 1122 3375 1075 2522 
Q 1259 2794 1537 2939 
Q 1816 3084 2150 3084 
Q 2853 3084 3261 2657 
Q 3669 2231 3669 1497 
Q 3669 778 3244 343 
Q 2819 -91 2113 -91 
Q 1303 -91 875 529 
Q 447 1150 447 2328 
Q 447 3434 972 4092 
Q 1497 4750 2381 4750 
Q 2619 4750 2861 4703 
Q 3103 4656 3366 4563 
z
" transform="scale(0.015625)"/>
       </defs>
       <use xlink:href="#DejaVuSans-36"/>
      </g>
     </g>
    </g>
    <g id="xtick_5">
     <g id="line2d_9">
      <path d="M 318.111633 307.584 
L 318.111633 41.472 
" clip-path="url(#p7c14d5876b)" style="fill: none; stroke: #b0b0b0; stroke-width: 0.8; stroke-linecap: square"/>
     </g>
     <g id="line2d_10">
      <g>
       <use xlink:href="#md3cb622986" x="318.111633" y="307.584" style="stroke: #000000; stroke-width: 0.8"/>
      </g>
     </g>
     <g id="text_5">
      <!-- 8 -->
      <g transform="translate(314.930383 322.182437) scale(0.1 -0.1)">
       <defs>
        <path id="DejaVuSans-38" d="M 2034 2216 
Q 1584 2216 1326 1975 
Q 1069 1734 1069 1313 
Q 1069 891 1326 650 
Q 1584 409 2034 409 
Q 2484 409 2743 651 
Q 3003 894 3003 1313 
Q 3003 1734 2745 1975 
Q 2488 2216 2034 2216 
z
M 1403 2484 
Q 997 2584 770 2862 
Q 544 3141 544 3541 
Q 544 4100 942 4425 
Q 1341 4750 2034 4750 
Q 2731 4750 3128 4425 
Q 3525 4100 3525 3541 
Q 3525 3141 3298 2862 
Q 3072 2584 2669 2484 
Q 3125 2378 3379 2068 
Q 3634 1759 3634 1313 
Q 3634 634 3220 271 
Q 2806 -91 2034 -91 
Q 1263 -91 848 271 
Q 434 634 434 1313 
Q 434 1759 690 2068 
Q 947 2378 1403 2484 
z
M 1172 3481 
Q 1172 3119 1398 2916 
Q 1625 2713 2034 2713 
Q 2441 2713 2670 2916 
Q 2900 3119 2900 3481 
Q 2900 3844 2670 4047 
Q 2441 4250 2034 4250 
Q 1625 4250 1398 4047 
Q 1172 3844 1172 3481 
z
" transform="scale(0.015625)"/>
       </defs>
       <use xlink:href="#DejaVuSans-38"/>
      </g>
     </g>
    </g>
    <g id="xtick_6">
     <g id="line2d_11">
      <path d="M 381.15135 307.584 
L 381.15135 41.472 
" clip-path="url(#p7c14d5876b)" style="fill: none; stroke: #b0b0b0; stroke-width: 0.8; stroke-linecap: square"/>
     </g>
     <g id="line2d_12">
      <g>
       <use xlink:href="#md3cb622986" x="381.15135" y="307.584" style="stroke: #000000; stroke-width: 0.8"/>
      </g>
     </g>
     <g id="text_6">
      <!-- 10 -->
      <g transform="translate(374.78885 322.182437) scale(0.1 -0.1)">
       <defs>
        <path id="DejaVuSans-31" d="M 794 531 
L 1825 531 
L 1825 4091 
L 703 3866 
L 703 4441 
L 1819 4666 
L 2450 4666 
L 2450 531 
L 3481 531 
L 3481 0 
L 794 0 
L 794 531 
z
" transform="scale(0.015625)"/>
       </defs>
       <use xlink:href="#DejaVuSans-31"/>
       <use xlink:href="#DejaVuSans-30" x="63.623047"/>
      </g>
     </g>
    </g>
    <g id="text_7">
     <!-- Time (s) -->
     <g transform="translate(215.831094 335.860562) scale(0.1 -0.1)">
      <defs>
       <path id="DejaVuSans-54" d="M -19 4666 
L 3928 4666 
L 3928 4134 
L 2272 4134 
L 2272 0 
L 1638 0 
L 1638 4134 
L -19 4134 
L -19 4666 
z
" transform="scale(0.015625)"/>
       <path id="DejaVuSans-69" d="M 603 3500 
L 1178 3500 
L 1178 0 
L 603 0 
L 603 3500 
z
M 603 4863 
L 1178 4863 
L 1178 4134 
L 603 4134 
L 603 4863 
z
" transform="scale(0.015625)"/>
       <path id="DejaVuSans-6d" d="M 3328 2828 
Q 3544 3216 3844 3400 
Q 4144 3584 4550 3584 
Q 5097 3584 5394 3201 
Q 5691 2819 5691 2113 
L 5691 0 
L 5113 0 
L 5113 2094 
Q 5113 2597 4934 2840 
Q 4756 3084 4391 3084 
Q 3944 3084 3684 2787 
Q 3425 2491 3425 1978 
L 3425 0 
L 2847 0 
L 2847 2094 
Q 2847 2600 2669 2842 
Q 2491 3084 2119 3084 
Q 1678 3084 1418 2786 
Q 1159 2488 1159 1978 
L 1159 0 
L 581 0 
L 581 3500 
L 1159 3500 
L 1159 2956 
Q 1356 3278 1631 3431 
Q 1906 3584 2284 3584 
Q 2666 3584 2933 3390 
Q 3200 3197 3328 2828 
z
" transform="scale(0.015625)"/>
       <path id="DejaVuSans-65" d="M 3597 1894 
L 3597 1613 
L 953 1613 
Q 991 1019 1311 708 
Q 1631 397 2203 397 
Q 2534 397 2845 478 
Q 3156 559 3463 722 
L 3463 178 
Q 3153 47 2828 -22 
Q 2503 -91 2169 -91 
Q 1331 -91 842 396 
Q 353 884 353 1716 
Q 353 2575 817 3079 
Q 1281 3584 2069 3584 
Q 2775 3584 3186 3129 
Q 3597 2675 3597 1894 
z
M 3022 2063 
Q 3016 2534 2758 2815 
Q 2500 3097 2075 3097 
Q 1594 3097 1305 2825 
Q 1016 2553 972 2059 
L 3022 2063 
z
" transform="scale(0.015625)"/>
       <path id="DejaVuSans-20" transform="scale(0.015625)"/>
       <path id="DejaVuSans-28" d="M 1984 4856 
Q 1566 4138 1362 3434 
Q 1159 2731 1159 2009 
Q 1159 1288 1364 580 
Q 1569 -128 1984 -844 
L 1484 -844 
Q 1016 -109 783 600 
Q 550 1309 550 2009 
Q 550 2706 781 3412 
Q 1013 4119 1484 4856 
L 1984 4856 
z
" transform="scale(0.015625)"/>
       <path id="DejaVuSans-73" d="M 2834 3397 
L 2834 2853 
Q 2591 2978 2328 3040 
Q 2066 3103 1784 3103 
Q 1356 3103 1142 2972 
Q 928 2841 928 2578 
Q 928 2378 1081 2264 
Q 1234 2150 1697 2047 
L 1894 2003 
Q 2506 1872 2764 1633 
Q 3022 1394 3022 966 
Q 3022 478 2636 193 
Q 2250 -91 1575 -91 
Q 1294 -91 989 -36 
Q 684 19 347 128 
L 347 722 
Q 666 556 975 473 
Q 1284 391 1588 391 
Q 1994 391 2212 530 
Q 2431 669 2431 922 
Q 2431 1156 2273 1281 
Q 2116 1406 1581 1522 
L 1381 1569 
Q 847 1681 609 1914 
Q 372 2147 372 2553 
Q 372 3047 722 3315 
Q 1072 3584 1716 3584 
Q 2034 3584 2315 3537 
Q 2597 3491 2834 3397 
z
" transform="scale(0.015625)"/>
       <path id="DejaVuSans-29" d="M 513 4856 
L 1013 4856 
Q 1481 4119 1714 3412 
Q 1947 2706 1947 2009 
Q 1947 1309 1714 600 
Q 1481 -109 1013 -844 
L 513 -844 
Q 928 -128 1133 580 
Q 1338 1288 1338 2009 
Q 1338 2731 1133 3434 
Q 928 4138 513 4856 
z
" transform="scale(0.015625)"/>
      </defs>
      <use xlink:href="#DejaVuSans-54"/>
      <use xlink:href="#DejaVuSans-69" x="57.958984"/>
      <use xlink:href="#DejaVuSans-6d" x="85.742188"/>
      <use xlink:href="#DejaVuSans-65" x="183.154297"/>
      <use xlink:href="#DejaVuSans-20" x="244.677734"/>
      <use xlink:href="#DejaVuSans-28" x="276.464844"/>
      <use xlink:href="#DejaVuSans-73" x="315.478516"/>
      <use xlink:href="#DejaVuSans-29" x="367.578125"/>
     </g>
    </g>
   </g>
   <g id="matplotlib.axis_2">
    <g id="ytick_1">
     <g id="line2d_13">
      <path d="M 57.6 301.385696 
L 414.72 301.385696 
" clip-path="url(#p7c14d5876b)" style="fill: none; stroke: #b0b0b0; stroke-width: 0.8; stroke-linecap: square"/>
     </g>
     <g id="line2d_14">
      <defs>
       <path id="m97d7338e72" d="M 0 0 
L -3.5 0 
" style="stroke: #000000; stroke-width: 0.8"/>
      </defs>
      <g>
       <use xlink:href="#m97d7338e72" x="57.6" y="301.385696" style="stroke: #000000; stroke-width: 0.8"/>
      </g>
     </g>
     <g id="text_8">
      <!-- −0.50 -->
      <g transform="translate(19.954687 305.184915) scale(0.1 -0.1)">
       <defs>
        <path id="DejaVuSans-2212" d="M 678 2272 
L 4684 2272 
L 4684 1741 
L 678 1741 
L 678 2272 
z
" transform="scale(0.015625)"/>
        <path id="DejaVuSans-2e" d="M 684 794 
L 1344 794 
L 1344 0 
L 684 0 
L 684 794 
z
" transform="scale(0.015625)"/>
        <path id="DejaVuSans-35" d="M 691 4666 
L 3169 4666 
L 3169 4134 
L 1269 4134 
L 1269 2991 
Q 1406 3038 1543 3061 
Q 1681 3084 1819 3084 
Q 2600 3084 3056 2656 
Q 3513 2228 3513 1497 
Q 3513 744 3044 326 
Q 2575 -91 1722 -91 
Q 1428 -91 1123 -41 
Q 819 9 494 109 
L 494 744 
Q 775 591 1075 516 
Q 1375 441 1709 441 
Q 2250 441 2565 725 
Q 2881 1009 2881 1497 
Q 2881 1984 2565 2268 
Q 2250 2553 1709 2553 
Q 1456 2553 1204 2497 
Q 953 2441 691 2322 
L 691 4666 
z
" transform="scale(0.015625)"/>
       </defs>
       <use xlink:href="#DejaVuSans-2212"/>
       <use xlink:href="#DejaVuSans-30" x="83.789062"/>
       <use xlink:href="#DejaVuSans-2e" x="147.412109"/>
       <use xlink:href="#DejaVuSans-35" x="179.199219"/>
       <use xlink:href="#DejaVuSans-30" x="242.822266"/>
      </g>
     </g>
    </g>
    <g id="ytick_2">
     <g id="line2d_15">
      <path d="M 57.6 265.972212 
L 414.72 265.972212 
" clip-path="url(#p7c14d5876b)" style="fill: none; stroke: #b0b0b0; stroke-width: 0.8; stroke-linecap: square"/>
     </g>
     <g id="line2d_16">
      <g>
       <use xlink:href="#m97d7338e72" x="57.6" y="265.972212" style="stroke: #000000; stroke-width: 0.8"/>
      </g>
     </g>
     <g id="text_9">
      <!-- −0.25 -->
      <g transform="translate(19.954687 269.771431) scale(0.1 -0.1)">
       <use xlink:href="#DejaVuSans-2212"/>
       <use xlink:href="#DejaVuSans-30" x="83.789062"/>
       <use xlink:href="#DejaVuSans-2e" x="147.412109"/>
       <use xlink:href="#DejaVuSans-32" x="179.199219"/>
       <use xlink:href="#DejaVuSans-35" x="242.822266"/>
      </g>
     </g>
    </g>
    <g id="ytick_3">
     <g id="line2d_17">
      <path d="M 57.6 230.558729 
L 414.72 230.558729 
" clip-path="url(#p7c14d5876b)" style="fill: none; stroke: #b0b0b0; stroke-width: 0.8; stroke-linecap: square"/>
     </g>
     <g id="line2d_18">
      <g>
       <use xlink:href="#m97d7338e72" x="57.6" y="230.558729" style="stroke: #000000; stroke-width: 0.8"/>
      </g>
     </g>
     <g id="text_10">
      <!-- 0.00 -->
      <g transform="translate(28.334375 234.357947) scale(0.1 -0.1)">
       <use xlink:href="#DejaVuSans-30"/>
       <use xlink:href="#DejaVuSans-2e" x="63.623047"/>
       <use xlink:href="#DejaVuSans-30" x="95.410156"/>
       <use xlink:href="#DejaVuSans-30" x="159.033203"/>
      </g>
     </g>
    </g>
    <g id="ytick_4">
     <g id="line2d_19">
      <path d="M 57.6 195.145245 
L 414.72 195.145245 
" clip-path="url(#p7c14d5876b)" style="fill: none; stroke: #b0b0b0; stroke-width: 0.8; stroke-linecap: square"/>
     </g>
     <g id="line2d_20">
      <g>
       <use xlink:href="#m97d7338e72" x="57.6" y="195.145245" style="stroke: #000000; stroke-width: 0.8"/>
      </g>
     </g>
     <g id="text_11">
      <!-- 0.25 -->
      <g transform="translate(28.334375 198.944464) scale(0.1 -0.1)">
       <use xlink:href="#DejaVuSans-30"/>
       <use xlink:href="#DejaVuSans-2e" x="63.623047"/>
       <use xlink:href="#DejaVuSans-32" x="95.410156"/>
       <use xlink:href="#DejaVuSans-35" x="159.033203"/>
      </g>
     </g>
    </g>
    <g id="ytick_5">
     <g id="line2d_21">
      <path d="M 57.6 159.731761 
L 414.72 159.731761 
" clip-path="url(#p7c14d5876b)" style="fill: none; stroke: #b0b0b0; stroke-width: 0.8; stroke-linecap: square"/>
     </g>
     <g id="line2d_22">
      <g>
       <use xlink:href="#m97d7338e72" x="57.6" y="159.731761" style="stroke: #000000; stroke-width: 0.8"/>
      </g>
     </g>
     <g id="text_12">
      <!-- 0.50 -->
      <g transform="translate(28.334375 163.53098) scale(0.1 -0.1)">
       <use xlink:href="#DejaVuSans-30"/>
       <use xlink:href="#DejaVuSans-2e" x="63.623047"/>
       <use xlink:href="#DejaVuSans-35" x="95.410156"/>
       <use xlink:href="#DejaVuSans-30" x="159.033203"/>
      </g>
     </g>
    </g>
    <g id="ytick_6">
     <g id="line2d_23">
      <path d="M 57.6 124.318278 
L 414.72 124.318278 
" clip-path="url(#p7c14d5876b)" style="fill: none; stroke: #b0b0b0; stroke-width: 0.8; stroke-linecap: square"/>
     </g>
     <g id="line2d_24">
      <g>
       <use xlink:href="#m97d7338e72" x="57.6" y="124.318278" style="stroke: #000000; stroke-width: 0.8"/>
      </g>
     </g>
     <g id="text_13">
      <!-- 0.75 -->
      <g transform="translate(28.334375 128.117497) scale(0.1 -0.1)">
       <defs>
        <path id="DejaVuSans-37" d="M 525 4666 
L 3525 4666 
L 3525 4397 
L 1831 0 
L 1172 0 
L 2766 4134 
L 525 4134 
L 525 4666 
z
" transform="scale(0.015625)"/>
       </defs>
       <use xlink:href="#DejaVuSans-30"/>
       <use xlink:href="#DejaVuSans-2e" x="63.623047"/>
       <use xlink:href="#DejaVuSans-37" x="95.410156"/>
       <use xlink:href="#DejaVuSans-35" x="159.033203"/>
      </g>
     </g>
    </g>
    <g id="ytick_7">
     <g id="line2d_25">
      <path d="M 57.6 88.904794 
L 414.72 88.904794 
" clip-path="url(#p7c14d5876b)" style="fill: none; stroke: #b0b0b0; stroke-width: 0.8; stroke-linecap: square"/>
     </g>
     <g id="line2d_26">
      <g>
       <use xlink:href="#m97d7338e72" x="57.6" y="88.904794" style="stroke: #000000; stroke-width: 0.8"/>
      </g>
     </g>
     <g id="text_14">
      <!-- 1.00 -->
      <g transform="translate(28.334375 92.704013) scale(0.1 -0.1)">
       <use xlink:href="#DejaVuSans-31"/>
       <use xlink:href="#DejaVuSans-2e" x="63.623047"/>
       <use xlink:href="#DejaVuSans-30" x="95.410156"/>
       <use xlink:href="#DejaVuSans-30" x="159.033203"/>
      </g>
     </g>
    </g>
    <g id="ytick_8">
     <g id="line2d_27">
      <path d="M 57.6 53.491311 
L 414.72 53.491311 
" clip-path="url(#p7c14d5876b)" style="fill: none; stroke: #b0b0b0; stroke-width: 0.8; stroke-linecap: square"/>
     </g>
     <g id="line2d_28">
      <g>
       <use xlink:href="#m97d7338e72" x="57.6" y="53.491311" style="stroke: #000000; stroke-width: 0.8"/>
      </g>
     </g>
     <g id="text_15">
      <!-- 1.25 -->
      <g transform="translate(28.334375 57.290529) scale(0.1 -0.1)">
       <use xlink:href="#DejaVuSans-31"/>
       <use xlink:href="#DejaVuSans-2e" x="63.623047"/>
       <use xlink:href="#DejaVuSans-32" x="95.410156"/>
       <use xlink:href="#DejaVuSans-35" x="159.033203"/>
      </g>
     </g>
    </g>
    <g id="text_16">
     <!-- Position m -->
     <g transform="translate(13.875 200.451437) rotate(-90) scale(0.1 -0.1)">
      <defs>
       <path id="DejaVuSans-50" d="M 1259 4147 
L 1259 2394 
L 2053 2394 
Q 2494 2394 2734 2622 
Q 2975 2850 2975 3272 
Q 2975 3691 2734 3919 
Q 2494 4147 2053 4147 
L 1259 4147 
z
M 628 4666 
L 2053 4666 
Q 2838 4666 3239 4311 
Q 3641 3956 3641 3272 
Q 3641 2581 3239 2228 
Q 2838 1875 2053 1875 
L 1259 1875 
L 1259 0 
L 628 0 
L 628 4666 
z
" transform="scale(0.015625)"/>
       <path id="DejaVuSans-6f" d="M 1959 3097 
Q 1497 3097 1228 2736 
Q 959 2375 959 1747 
Q 959 1119 1226 758 
Q 1494 397 1959 397 
Q 2419 397 2687 759 
Q 2956 1122 2956 1747 
Q 2956 2369 2687 2733 
Q 2419 3097 1959 3097 
z
M 1959 3584 
Q 2709 3584 3137 3096 
Q 3566 2609 3566 1747 
Q 3566 888 3137 398 
Q 2709 -91 1959 -91 
Q 1206 -91 779 398 
Q 353 888 353 1747 
Q 353 2609 779 3096 
Q 1206 3584 1959 3584 
z
" transform="scale(0.015625)"/>
       <path id="DejaVuSans-74" d="M 1172 4494 
L 1172 3500 
L 2356 3500 
L 2356 3053 
L 1172 3053 
L 1172 1153 
Q 1172 725 1289 603 
Q 1406 481 1766 481 
L 2356 481 
L 2356 0 
L 1766 0 
Q 1100 0 847 248 
Q 594 497 594 1153 
L 594 3053 
L 172 3053 
L 172 3500 
L 594 3500 
L 594 4494 
L 1172 4494 
z
" transform="scale(0.015625)"/>
       <path id="DejaVuSans-6e" d="M 3513 2113 
L 3513 0 
L 2938 0 
L 2938 2094 
Q 2938 2591 2744 2837 
Q 2550 3084 2163 3084 
Q 1697 3084 1428 2787 
Q 1159 2491 1159 1978 
L 1159 0 
L 581 0 
L 581 3500 
L 1159 3500 
L 1159 2956 
Q 1366 3272 1645 3428 
Q 1925 3584 2291 3584 
Q 2894 3584 3203 3211 
Q 3513 2838 3513 2113 
z
" transform="scale(0.015625)"/>
      </defs>
      <use xlink:href="#DejaVuSans-50"/>
      <use xlink:href="#DejaVuSans-6f" x="56.677734"/>
      <use xlink:href="#DejaVuSans-73" x="117.859375"/>
      <use xlink:href="#DejaVuSans-69" x="169.958984"/>
      <use xlink:href="#DejaVuSans-74" x="197.742188"/>
      <use xlink:href="#DejaVuSans-69" x="236.951172"/>
      <use xlink:href="#DejaVuSans-6f" x="264.734375"/>
      <use xlink:href="#DejaVuSans-6e" x="325.916016"/>
      <use xlink:href="#DejaVuSans-20" x="389.294922"/>
      <use xlink:href="#DejaVuSans-6d" x="421.082031"/>
     </g>
    </g>
   </g>
   <g id="line2d_29">
    <path d="M 73.832727 202.227942 
L 75.40872 201.734615 
L 79.191103 201.732067 
L 81.397493 202.225393 
L 83.288685 201.739124 
L 85.179876 201.746182 
L 87.071068 202.225393 
L 88.962259 201.70149 
L 90.853451 202.166585 
L 92.744643 201.804991 
L 94.635834 201.790875 
L 96.527026 201.252856 
L 104.091792 203.249681 
L 105.982983 202.697546 
L 107.874175 203.292028 
L 111.656558 203.200957 
L 113.547749 200.657369 
L 115.438941 199.659626 
L 117.330132 201.175261 
L 119.221324 208.213889 
L 121.112515 204.331457 
L 123.003707 203.515512 
L 124.894898 200.126407 
L 126.78609 197.767968 
L 128.677282 202.176648 
L 130.568473 200.599566 
L 132.459665 202.741579 
L 134.350856 202.738553 
L 136.242048 201.707867 
L 138.133239 222.170909 
L 140.024431 196.71037 
L 141.915622 193.602289 
L 143.806814 201.521033 
L 145.698005 201.590931 
L 147.589197 196.249033 
L 149.480388 199.615939 
L 151.37158 194.282785 
L 153.262771 194.630264 
L 155.153963 195.755707 
L 157.045154 196.299102 
L 159.251545 195.378315 
L 161.142736 193.943028 
L 163.033928 196.419064 
L 164.925119 196.05747 
L 166.816311 196.404949 
L 168.707502 193.086422 
L 170.598694 202.189762 
L 172.489885 199.988281 
L 174.381077 203.964464 
L 176.272268 204.057221 
L 178.16346 188.303372 
L 180.054651 190.68331 
L 181.945843 203.094778 
L 183.837034 201.530105 
L 185.728226 193.618389 
L 187.619417 181.909961 
L 189.510609 189.175414 
L 191.401801 200.446633 
L 193.292992 201.978363 
L 195.184184 200.102505 
L 197.075375 202.667489 
L 198.651368 200.601771 
L 200.54256 195.901394 
L 202.433751 192.816101 
L 204.324943 201.41004 
L 206.216134 195.769022 
L 208.107326 202.317005 
L 209.998517 192.849725 
L 211.889709 194.292069 
L 213.7809 202.948446 
L 215.98729 195.714911 
L 217.878482 196.718025 
L 219.769673 196.156487 
L 221.660865 196.480446 
L 223.552056 194.9346 
L 225.443248 195.563062 
L 227.019241 200.167302 
L 229.225631 193.803463 
L 231.116823 198.488038 
L 233.008014 201.032967 
L 234.899206 202.530088 
L 236.790397 206.697158 
L 238.681589 194.632153 
L 240.57278 191.838921 
L 242.463972 207.144116 
L 244.355163 202.534811 
L 246.246355 200.913329 
L 248.137546 196.468354 
L 250.028738 194.045409 
L 251.919929 197.809198 
L 253.811121 199.532398 
L 255.387114 197.996961 
L 257.278305 203.54386 
L 259.169497 201.832699 
L 261.060688 197.928434 
L 262.95188 188.864008 
L 264.843071 209.728289 
L 266.734263 205.264486 
L 268.625455 209.83245 
L 270.516646 198.838152 
L 272.407838 198.227209 
L 274.299029 198.772286 
L 276.190221 201.551019 
L 278.396611 198.464039 
L 280.287802 198.459138 
L 281.863795 198.924233 
L 283.754987 197.899946 
L 285.646178 197.996389 
L 287.53737 197.547755 
L 289.428561 195.241086 
L 291.319753 198.10947 
L 293.526143 200.268605 
L 295.417335 199.014456 
L 297.308526 204.523375 
L 299.199718 204.876906 
L 301.090909 200.376158 
L 302.982101 186.5966 
L 304.873292 192.33272 
L 306.764484 205.171324 
L 308.655675 205.576585 
L 310.546867 204.81373 
L 312.438058 197.905789 
L 314.32925 194.941097 
L 316.220441 198.612819 
L 318.111633 200.968233 
L 320.002824 214.757917 
L 321.894016 201.145725 
L 323.785207 203.765923 
L 325.676399 202.293002 
L 327.56759 203.286712 
L 329.458782 202.196558 
L 331.349974 202.689885 
L 333.241165 205.478224 
L 335.447555 202.981015 
L 337.338747 203.967668 
L 339.229938 202.988072 
L 341.12113 204.040592 
L 343.012321 203.901801 
L 348.685896 203.974725 
L 350.577087 203.488457 
L 352.468279 203.908859 
L 354.35947 204.468052 
L 360.033045 204.460994 
L 361.924237 203.967668 
L 363.815428 204.460994 
L 365.70662 203.967668 
L 367.597811 203.96061 
L 369.489003 203.481399 
L 373.271386 204.395128 
L 375.162577 203.481399 
L 377.053769 203.967668 
L 378.94496 203.967668 
L 381.15135 203.474341 
L 383.042542 203.967668 
L 384.933733 203.901801 
L 386.824925 203.474341 
L 388.716117 203.96061 
L 390.607308 203.96061 
L 392.4985 203.317957 
L 394.70489 203.797168 
L 398.487273 203.797168 
L 398.487273 203.797168 
" clip-path="url(#p7c14d5876b)" style="fill: none; stroke: #1f77b4; stroke-linecap: square"/>
   </g>
   <g id="line2d_30">
    <path d="M 73.832727 230.558729 
L 75.40872 231.045456 
L 77.299912 230.565786 
L 79.191103 231.218669 
L 81.397493 230.731943 
L 83.288685 230.739 
L 85.179876 230.259331 
L 87.071068 230.731943 
L 88.962259 228.71682 
L 90.853451 230.148769 
L 92.744643 230.842504 
L 94.635834 231.801843 
L 96.527026 230.746058 
L 98.418217 230.259331 
L 102.2006 231.308058 
L 104.091792 231.780669 
L 105.982983 231.684223 
L 107.874175 228.902654 
L 109.765366 233.219677 
L 111.656558 229.530737 
L 113.547749 231.633115 
L 115.438941 232.378817 
L 117.330132 208.539923 
L 119.221324 209.434881 
L 121.112515 217.145306 
L 123.003707 222.873964 
L 124.894898 230.097662 
L 126.78609 243.498034 
L 128.677282 242.223258 
L 130.568473 232.944453 
L 132.459665 225.093103 
L 134.350856 226.280193 
L 136.242048 233.844767 
L 138.133239 163.782679 
L 140.024431 269.248547 
L 141.915622 220.406345 
L 143.806814 226.259879 
L 145.698005 227.070804 
L 147.589197 226.668771 
L 149.480388 232.730817 
L 151.37158 228.13601 
L 153.262771 228.401613 
L 155.153963 227.155498 
L 157.045154 228.96366 
L 159.251545 230.040618 
L 161.142736 233.04331 
L 163.033928 234.550533 
L 164.925119 235.244268 
L 166.816311 235.509871 
L 168.707502 237.936878 
L 170.598694 236.88835 
L 172.489885 236.022896 
L 174.381077 232.736418 
L 176.272268 228.395231 
L 178.16346 243.390742 
L 180.054651 236.05349 
L 181.945843 219.871963 
L 183.837034 227.088174 
L 185.728226 241.366842 
L 187.619417 245.75317 
L 189.510609 253.805099 
L 191.401801 252.307266 
L 193.292992 251.909927 
L 195.184184 258.3567 
L 197.075375 249.874956 
L 198.651368 249.923931 
L 200.54256 252.703367 
L 202.433751 246.80342 
L 204.324943 209.058816 
L 206.216134 230.62148 
L 208.107326 237.055195 
L 209.998517 234.376932 
L 211.889709 230.894571 
L 213.7809 244.592875 
L 215.98729 241.56881 
L 217.878482 244.056544 
L 219.769673 240.019241 
L 221.660865 237.303325 
L 223.552056 238.660002 
L 225.443248 241.156867 
L 227.019241 243.04827 
L 229.225631 246.018037 
L 231.116823 247.911044 
L 233.008014 248.334681 
L 234.899206 244.728071 
L 236.790397 235.992655 
L 238.681589 257.415898 
L 240.57278 230.030923 
L 242.463972 230.805898 
L 244.355163 232.957252 
L 246.246355 250.249936 
L 248.137546 252.028546 
L 250.028738 254.110181 
L 251.919929 257.080146 
L 253.811121 260.37227 
L 255.387114 267.564315 
L 257.278305 261.558071 
L 259.169497 247.651732 
L 261.060688 248.667533 
L 262.95188 295.488 
L 264.843071 230.54338 
L 266.734263 238.181523 
L 268.625455 240.802696 
L 270.516646 233.621576 
L 272.407838 232.941956 
L 274.299029 233.518072 
L 276.190221 237.025822 
L 278.396611 234.83898 
L 280.287802 235.172083 
L 281.863795 236.604033 
L 283.754987 235.555306 
L 285.646178 238.16066 
L 287.53737 240.189898 
L 289.428561 240.911865 
L 291.319753 244.560495 
L 293.526143 248.303964 
L 295.417335 248.155981 
L 297.308526 246.366676 
L 299.199718 244.258099 
L 301.090909 237.395822 
L 302.982101 266.080184 
L 304.873292 244.596859 
L 306.764484 220.322973 
L 308.655675 233.018486 
L 310.546867 242.336001 
L 312.438058 267.236035 
L 314.32925 288.79784 
L 316.220441 283.630752 
L 318.111633 271.417471 
L 320.002824 213.583854 
L 321.894016 233.837758 
L 323.785207 238.305756 
L 325.676399 239.286267 
L 327.56759 237.833144 
L 329.458782 236.680914 
L 331.349974 236.194187 
L 333.241165 239.049054 
L 335.447555 238.980839 
L 337.338747 238.007385 
L 339.229938 238.50117 
L 341.12113 237.63122 
L 343.012321 237.903881 
L 344.903513 238.487054 
L 346.794704 238.590558 
L 348.685896 237.527716 
L 350.577087 237.534774 
L 352.468279 237.424212 
L 354.35947 237.040989 
L 356.250662 237.520658 
L 360.033045 237.520658 
L 361.924237 238.007385 
L 363.815428 237.520658 
L 367.597811 238.487054 
L 369.489003 238.014443 
L 371.380194 238.007385 
L 373.271386 237.417154 
L 375.162577 238.014443 
L 378.94496 238.007385 
L 381.15135 238.494112 
L 383.042542 238.007385 
L 384.933733 237.903881 
L 386.824925 238.494112 
L 390.607308 238.487054 
L 392.4985 237.190895 
L 394.70489 237.663506 
L 398.487273 237.663506 
L 398.487273 237.663506 
" clip-path="url(#p7c14d5876b)" style="fill: none; stroke: #ff7f0e; stroke-linecap: square"/>
   </g>
   <g id="line2d_31">
    <path d="M 73.832727 230.558729 
L 75.40872 230.596367 
L 77.299912 230.492862 
L 79.191103 230.633743 
L 87.071068 230.596105 
L 88.962259 230.5914 
L 90.853451 230.967779 
L 92.744643 230.055061 
L 96.527026 230.464373 
L 98.418217 230.426735 
L 100.309409 230.120927 
L 104.091792 230.459668 
L 105.982983 230.86898 
L 107.874175 229.838644 
L 109.765366 230.77018 
L 111.656558 226.921711 
L 113.547749 223.985959 
L 115.438941 220.462116 
L 117.330132 228.657756 
L 119.221324 238.951707 
L 121.112515 235.531367 
L 123.003707 227.542735 
L 124.894898 224.084758 
L 126.78609 224.649326 
L 128.677282 228.530728 
L 130.568473 231.866382 
L 132.459665 233.494219 
L 134.350856 237.300346 
L 136.242048 234.750382 
L 138.133239 218.777822 
L 140.024431 216.933568 
L 141.915622 238.302454 
L 143.806814 228.003799 
L 145.698005 231.231244 
L 147.589197 230.403211 
L 149.480388 228.135531 
L 151.37158 230.450258 
L 153.262771 231.569984 
L 155.153963 230.440849 
L 157.045154 231.599912 
L 159.251545 231.20001 
L 161.142736 231.148258 
L 163.033928 231.312923 
L 164.925119 230.400205 
L 166.816311 231.519931 
L 168.707502 227.026914 
L 170.598694 225.526105 
L 172.489885 227.059847 
L 174.381077 219.292337 
L 176.272268 225.455534 
L 178.16346 215.38741 
L 180.054651 226.283566 
L 181.945843 246.273966 
L 183.837034 247.628929 
L 185.728226 234.436864 
L 187.619417 222.618581 
L 189.510609 213.721936 
L 191.401801 214.451169 
L 193.292992 214.070086 
L 195.184184 221.296552 
L 198.651368 231.130223 
L 200.54256 229.563547 
L 202.433751 233.426131 
L 204.324943 239.067103 
L 206.216134 231.831228 
L 208.107326 228.058034 
L 209.998517 228.189766 
L 211.889709 228.138014 
L 213.7809 225.422862 
L 215.98729 227.309459 
L 217.878482 227.483534 
L 219.769673 227.539991 
L 221.660865 228.51387 
L 223.552056 229.101961 
L 225.443248 227.269077 
L 227.019241 228.319277 
L 229.225631 228.08404 
L 231.116823 226.61146 
L 234.899206 218.368772 
L 236.790397 219.577888 
L 238.681589 219.53084 
L 240.57278 229.904771 
L 242.463972 241.318447 
L 244.355163 242.668705 
L 246.246355 234.553045 
L 248.137546 223.680413 
L 250.028738 216.195186 
L 251.919929 214.322704 
L 253.811121 212.110827 
L 257.278305 230.158173 
L 259.169497 233.987824 
L 261.060688 233.667902 
L 262.95188 232.472901 
L 264.843071 232.369396 
L 266.734263 222.263635 
L 268.625455 229.043152 
L 270.516646 228.996105 
L 272.407838 229.77709 
L 276.190221 229.240751 
L 278.396611 229.85707 
L 280.287802 229.928948 
L 281.863795 230.305327 
L 283.754987 230.441764 
L 285.646178 230.008929 
L 287.53737 229.881901 
L 289.428561 228.705718 
L 293.526143 226.915699 
L 295.417335 225.189063 
L 297.308526 224.54922 
L 299.199718 218.056691 
L 301.090909 228.609402 
L 302.982101 227.372058 
L 304.873292 241.227489 
L 306.764484 249.884193 
L 308.655675 244.596076 
L 312.438058 213.478989 
L 314.32925 215.737259 
L 316.220441 228.29889 
L 318.111633 231.540449 
L 320.002824 225.923001 
L 321.894016 233.516436 
L 323.785207 229.277474 
L 325.676399 229.286883 
L 327.56759 229.108103 
L 329.458782 229.719718 
L 331.349974 229.682081 
L 333.241165 229.310668 
L 335.447555 229.456515 
L 339.229938 229.353011 
L 341.12113 228.802557 
L 343.012321 229.856417 
L 346.794704 229.009565 
L 348.685896 229.277735 
L 350.577087 229.211869 
L 352.468279 229.752913 
L 354.35947 229.240097 
L 358.141853 229.343601 
L 365.70662 229.381239 
L 367.597811 229.484743 
L 369.489003 229.315373 
L 371.380194 229.381239 
L 373.271386 229.818779 
L 375.162577 229.315373 
L 381.15135 229.418877 
L 383.042542 229.381239 
L 384.933733 229.856417 
L 386.824925 229.418877 
L 390.607308 229.484743 
L 392.4985 229.113331 
L 394.70489 229.282701 
L 398.487273 229.282701 
L 398.487273 229.282701 
" clip-path="url(#p7c14d5876b)" style="fill: none; stroke: #2ca02c; stroke-linecap: square"/>
   </g>
   <g id="line2d_32">
    <path d="M 73.832727 202.227942 
L 79.191103 202.118134 
L 81.397493 202.692408 
L 83.288685 202.118134 
L 85.179876 201.873284 
L 87.071068 202.227942 
L 90.853451 202.671641 
L 92.744643 201.873284 
L 96.527026 201.074926 
L 102.2006 202.692408 
L 105.982983 202.790386 
L 107.874175 203.241446 
L 109.765366 203.167318 
L 111.656558 204.818903 
L 115.438941 202.527591 
L 117.330132 203.885379 
L 119.221324 196.945203 
L 121.112515 199.81368 
L 123.003707 200.215846 
L 124.894898 203.962785 
L 126.78609 199.285531 
L 128.677282 202.937381 
L 130.568473 203.784825 
L 132.459665 203.002765 
L 134.350856 203.118619 
L 136.242048 205.923219 
L 138.133239 205.829516 
L 140.024431 199.931164 
L 141.915622 199.460792 
L 143.806814 197.187023 
L 145.698005 202.664281 
L 147.589197 194.103469 
L 149.480388 197.0742 
L 151.37158 190.188893 
L 153.262771 193.647941 
L 155.153963 193.952129 
L 157.045154 194.634767 
L 159.251545 196.721183 
L 161.142736 197.607075 
L 163.033928 200.846507 
L 164.925119 199.819596 
L 166.816311 198.300093 
L 168.707502 196.523718 
L 170.598694 195.57402 
L 172.489885 197.452773 
L 174.381077 200.29286 
L 176.272268 203.863555 
L 178.16346 197.100883 
L 180.054651 194.542448 
L 181.945843 191.642953 
L 183.837034 188.528312 
L 185.728226 189.760117 
L 187.619417 195.704857 
L 191.401801 188.567269 
L 193.292992 198.597045 
L 195.184184 196.805879 
L 197.075375 200.942385 
L 198.651368 199.541627 
L 200.54256 195.870394 
L 202.433751 202.939287 
L 204.324943 200.240445 
L 206.216134 189.587101 
L 208.107326 200.649709 
L 209.998517 192.48975 
L 211.889709 190.572479 
L 213.7809 200.871321 
L 215.98729 191.142773 
L 217.878482 193.321192 
L 219.769673 195.242862 
L 221.660865 196.067962 
L 223.552056 198.264186 
L 227.019241 201.033278 
L 229.225631 196.311407 
L 231.116823 199.761517 
L 233.008014 200.918932 
L 234.899206 199.528426 
L 236.790397 203.280026 
L 238.681589 207.390436 
L 240.57278 196.906254 
L 242.463972 196.422599 
L 244.355163 189.21076 
L 246.246355 192.218748 
L 248.137546 193.993546 
L 250.028738 197.191446 
L 251.919929 194.58431 
L 253.811121 193.042677 
L 255.387114 200.864469 
L 257.278305 200.352618 
L 259.169497 204.583281 
L 261.060688 198.987417 
L 262.95188 191.439637 
L 264.843071 199.784144 
L 266.734263 187.539991 
L 268.625455 205.624789 
L 270.516646 196.008939 
L 272.407838 197.719931 
L 274.299029 196.595042 
L 276.190221 197.41104 
L 278.396611 196.550383 
L 280.287802 196.451492 
L 281.863795 195.921643 
L 283.754987 197.548062 
L 285.646178 199.806585 
L 287.53737 201.001133 
L 289.428561 197.203725 
L 291.319753 201.031211 
L 293.526143 202.204993 
L 295.417335 195.12662 
L 297.308526 202.000221 
L 299.199718 204.307637 
L 301.090909 203.717329 
L 302.982101 203.705307 
L 304.873292 203.849094 
L 306.764484 200.229838 
L 308.655675 197.753277 
L 310.546867 195.892522 
L 312.438058 198.427037 
L 314.32925 201.46012 
L 316.220441 205.382319 
L 318.111633 206.232461 
L 320.002824 202.918252 
L 321.894016 198.056011 
L 323.785207 202.380115 
L 325.676399 200.197297 
L 329.458782 200.02519 
L 331.349974 199.707596 
L 333.241165 202.725166 
L 335.447555 201.221961 
L 337.338747 201.791765 
L 339.229938 200.309326 
L 341.12113 201.57215 
L 343.012321 201.551384 
L 344.903513 202.501082 
L 346.794704 202.501082 
L 350.577087 201.66566 
L 352.468279 201.906042 
L 354.35947 201.551384 
L 356.250662 201.681958 
L 358.141853 202.036616 
L 361.924237 201.331768 
L 363.815428 202.2607 
L 365.70662 201.796234 
L 367.597811 202.2607 
L 369.489003 201.686426 
L 373.271386 202.370508 
L 375.162577 201.796234 
L 377.053769 201.57215 
L 378.94496 202.20434 
L 381.15135 201.630066 
L 383.042542 201.739874 
L 384.933733 202.314147 
L 386.824925 202.094532 
L 390.607308 202.094532 
L 392.4985 201.434077 
L 394.70489 201.653693 
L 396.596081 201.434077 
L 398.487273 202.717667 
L 398.487273 202.717667 
" clip-path="url(#p7c14d5876b)" style="fill: none; stroke: #d62728; stroke-linecap: square"/>
   </g>
   <g id="line2d_33">
    <path d="M 73.832727 230.558729 
L 75.40872 230.558729 
L 77.299912 231.017461 
L 79.191103 231.017461 
L 81.397493 230.694198 
L 83.288685 231.017461 
L 85.179876 229.964527 
L 87.071068 230.558729 
L 88.962259 229.990188 
L 90.853451 229.072723 
L 92.744643 229.964527 
L 94.635834 231.450533 
L 96.527026 230.856331 
L 98.418217 228.911592 
L 100.309409 230.668536 
L 102.2006 230.694198 
L 104.091792 231.043123 
L 105.982983 229.31184 
L 107.874175 228.400534 
L 109.765366 222.612484 
L 111.656558 216.080417 
L 113.547749 217.999495 
L 115.438941 217.825022 
L 117.330132 233.516396 
L 119.221324 233.577908 
L 121.112515 231.735816 
L 123.003707 227.006859 
L 124.894898 221.494904 
L 128.677282 213.69129 
L 130.568473 207.599478 
L 132.459665 209.763832 
L 134.350856 209.777174 
L 136.242048 202.947506 
L 138.133239 213.696448 
L 140.024431 204.778282 
L 141.915622 222.247105 
L 143.806814 216.328701 
L 145.698005 228.498023 
L 147.589197 228.475367 
L 149.480388 234.617501 
L 151.37158 229.930554 
L 153.262771 229.037748 
L 155.153963 225.69115 
L 157.045154 229.814629 
L 159.251545 230.13689 
L 161.142736 236.079912 
L 163.033928 236.104571 
L 164.925119 237.215991 
L 166.816311 235.995765 
L 168.707502 241.816639 
L 170.598694 239.924226 
L 172.489885 224.031735 
L 174.381077 219.972942 
L 176.272268 218.765079 
L 178.16346 241.719151 
L 180.054651 249.704379 
L 181.945843 249.124521 
L 183.837034 249.811054 
L 185.728226 246.632769 
L 187.619417 241.107493 
L 191.401801 225.754729 
L 193.292992 214.018625 
L 195.184184 209.651915 
L 197.075375 206.456324 
L 198.651368 205.475216 
L 200.54256 216.898371 
L 202.433751 181.723717 
L 204.324943 241.97483 
L 206.216134 232.119654 
L 208.107326 237.800048 
L 209.998517 232.945812 
L 211.889709 227.765284 
L 213.7809 232.77305 
L 215.98729 231.898597 
L 217.878482 239.404609 
L 219.769673 235.895878 
L 221.660865 228.05944 
L 223.552056 227.922969 
L 225.443248 235.62057 
L 227.019241 239.146207 
L 229.225631 240.795348 
L 231.116823 239.204691 
L 233.008014 230.217831 
L 234.899206 230.037198 
L 236.790397 215.85651 
L 238.681589 229.692449 
L 240.57278 251.111218 
L 242.463972 249.477424 
L 244.355163 246.392451 
L 246.246355 246.41095 
L 248.137546 240.466927 
L 250.028738 237.248636 
L 251.919929 232.398555 
L 253.811121 224.933997 
L 255.387114 221.448923 
L 257.278305 208.58077 
L 259.169497 213.740793 
L 261.060688 219.408721 
L 262.95188 190.092795 
L 264.843071 245.487793 
L 266.734263 219.811934 
L 268.625455 231.834616 
L 270.516646 230.727205 
L 272.407838 228.83379 
L 274.299029 231.327567 
L 276.190221 233.569503 
L 278.396611 229.596881 
L 280.287802 228.148015 
L 281.863795 231.940004 
L 283.754987 232.475721 
L 285.646178 237.203675 
L 287.53737 240.149024 
L 289.428561 241.720178 
L 291.319753 245.508444 
L 293.526143 246.832317 
L 295.417335 245.135861 
L 297.308526 230.84334 
L 299.199718 239.388945 
L 301.090909 238.460183 
L 302.982101 246.554216 
L 304.873292 257.781393 
L 306.764484 264.230315 
L 308.655675 260.542976 
L 310.546867 259.775324 
L 312.438058 249.922321 
L 314.32925 233.834854 
L 316.220441 232.974892 
L 318.111633 236.126513 
L 320.002824 248.328596 
L 321.894016 239.017385 
L 323.785207 233.407942 
L 325.676399 234.591189 
L 327.56759 231.348238 
L 329.458782 230.185496 
L 331.349974 232.485319 
L 333.241165 234.506574 
L 335.447555 234.558899 
L 337.338747 233.886711 
L 339.229938 235.560511 
L 341.12113 234.804176 
L 343.012321 233.182701 
L 344.903513 235.075115 
L 346.794704 235.075115 
L 348.685896 232.859438 
L 350.577087 233.072894 
L 352.468279 233.776903 
L 354.35947 233.182701 
L 356.250662 234.345444 
L 358.141853 234.939646 
L 360.033045 233.072894 
L 361.924237 234.100167 
L 363.815428 234.371105 
L 365.70662 234.235636 
L 367.597811 234.371105 
L 371.380194 234.939646 
L 373.271386 233.912372 
L 375.162577 234.235636 
L 377.053769 234.804176 
L 381.15135 235.311829 
L 383.042542 234.853096 
L 384.933733 234.529832 
L 386.824925 235.447298 
L 390.607308 235.447298 
L 392.4985 233.055901 
L 394.70489 232.138436 
L 398.487273 233.921042 
L 398.487273 233.921042 
" clip-path="url(#p7c14d5876b)" style="fill: none; stroke: #9467bd; stroke-linecap: square"/>
   </g>
   <g id="line2d_34">
    <path d="M 73.832727 152.649065 
L 75.40872 152.649065 
L 77.299912 152.784534 
L 79.191103 152.784534 
L 81.397493 152.566816 
L 83.288685 152.784534 
L 85.179876 152.595845 
L 87.071068 152.649065 
L 88.962259 152.978061 
L 90.853451 152.707123 
L 96.527026 152.484566 
L 98.418217 152.407155 
L 100.309409 152.184599 
L 102.2006 152.566816 
L 105.982983 153.771524 
L 107.874175 151.88947 
L 109.765366 153.650569 
L 111.656558 152.218466 
L 113.547749 151.91366 
L 115.438941 148.009244 
L 117.330132 149.310716 
L 119.221324 154.144064 
L 121.112515 155.59552 
L 124.894898 156.301895 
L 126.78609 158.604872 
L 128.677282 155.227818 
L 130.568473 158.764532 
L 132.459665 157.913011 
L 134.350856 161.51746 
L 136.242048 160.249855 
L 138.133239 153.998919 
L 140.024431 161.638415 
L 141.915622 164.328446 
L 143.806814 150.525101 
L 145.698005 154.647236 
L 147.589197 153.118369 
L 149.480388 150.728305 
L 151.37158 153.906993 
L 153.262771 154.400488 
L 155.153963 153.534453 
L 157.045154 152.223976 
L 159.251545 152.823911 
L 161.142736 152.973895 
L 163.033928 153.738329 
L 164.925119 152.698119 
L 166.816311 153.820578 
L 168.707502 150.448362 
L 170.598694 150.753168 
L 172.489885 152.756177 
L 174.381077 147.468039 
L 176.272268 159.786061 
L 178.16346 147.690596 
L 180.054651 143.466859 
L 181.945843 146.635871 
L 183.837034 150.675757 
L 185.728226 155.325254 
L 187.619417 159.297404 
L 189.510609 158.305576 
L 191.401801 161.053666 
L 193.292992 157.366968 
L 195.184184 154.701128 
L 197.075375 156.528887 
L 198.651368 158.715747 
L 200.54256 159.726928 
L 202.433751 138.78242 
L 204.324943 158.357721 
L 206.216134 149.315151 
L 208.107326 147.936268 
L 209.998517 152.426105 
L 211.889709 150.635976 
L 213.7809 149.285988 
L 215.98729 151.472848 
L 217.878482 152.711424 
L 219.769673 151.927637 
L 223.552056 152.929142 
L 225.443248 151.507925 
L 227.019241 152.726207 
L 229.225631 152.203683 
L 231.116823 151.497308 
L 234.899206 146.794591 
L 236.790397 153.408391 
L 238.681589 152.55687 
L 240.57278 146.199494 
L 242.463972 149.562033 
L 244.355163 150.607081 
L 246.246355 152.982631 
L 248.137546 153.214864 
L 250.028738 154.259912 
L 251.919929 157.903066 
L 253.811121 157.237816 
L 255.387114 157.600679 
L 257.278305 159.869789 
L 259.169497 160.048802 
L 261.060688 161.209966 
L 262.95188 140.579941 
L 264.843071 158.882799 
L 266.734263 147.00989 
L 268.625455 154.736473 
L 270.516646 154.247816 
L 272.407838 154.934839 
L 274.299029 152.689921 
L 278.396611 153.32883 
L 280.287802 154.45102 
L 281.863795 151.848076 
L 283.754987 153.130195 
L 285.646178 153.173739 
L 287.53737 153.057623 
L 289.428561 151.770665 
L 293.526143 151.748759 
L 295.417335 149.977983 
L 297.308526 150.611785 
L 299.199718 148.434601 
L 301.090909 158.212576 
L 304.873292 149.784455 
L 306.764484 151.681024 
L 308.655675 155.048402 
L 310.546867 157.917446 
L 312.438058 156.001525 
L 314.32925 152.489001 
L 316.220441 158.580278 
L 318.111633 153.930781 
L 320.002824 134.815107 
L 321.894016 153.514697 
L 323.785207 151.124633 
L 325.676399 152.459972 
L 329.458782 153.016364 
L 331.349974 152.082594 
L 333.241165 152.52381 
L 335.447555 152.906026 
L 337.338747 152.088373 
L 339.229938 152.330282 
L 341.12113 152.359311 
L 343.012321 152.499619 
L 344.903513 152.194813 
L 348.685896 152.2819 
L 350.577087 152.964084 
L 352.468279 152.552839 
L 354.35947 152.499619 
L 356.250662 152.223842 
L 358.141853 152.277062 
L 360.033045 152.964084 
L 363.815428 152.606059 
L 365.70662 152.688308 
L 367.597811 152.606059 
L 369.489003 152.823777 
L 371.380194 152.277062 
L 375.162577 152.688308 
L 377.053769 152.359311 
L 378.94496 152.247361 
L 381.15135 152.465079 
L 384.933733 152.111892 
L 386.824925 152.38283 
L 390.607308 152.38283 
L 392.4985 152.685754 
L 394.70489 152.414816 
L 396.596081 152.685754 
L 398.487273 152.574476 
L 398.487273 152.574476 
" clip-path="url(#p7c14d5876b)" style="fill: none; stroke: #8c564b; stroke-linecap: square"/>
   </g>
   <g id="line2d_35">
    <path d="M 73.832727 230.558729 
L 75.40872 230.558729 
L 77.299912 231.045803 
L 79.191103 231.118689 
L 81.397493 230.578066 
L 83.288685 231.06514 
L 85.179876 230.063851 
L 87.071068 231.06514 
L 88.962259 230.118133 
L 96.527026 232.01288 
L 98.418217 231.498665 
L 100.309409 231.578622 
L 104.091792 230.578066 
L 105.982983 231.14583 
L 107.874175 232.418531 
L 111.656558 230.903027 
L 113.547749 233.607609 
L 115.438941 232.197735 
L 117.330132 236.796332 
L 119.221324 233.926703 
L 121.112515 232.301899 
L 123.003707 231.057807 
L 124.894898 234.330153 
L 126.78609 233.248173 
L 128.677282 234.658781 
L 130.568473 232.952554 
L 132.459665 233.358938 
L 136.242048 232.278425 
L 138.133239 229.57531 
L 140.024431 229.657468 
L 141.915622 237.881979 
L 143.806814 218.403412 
L 145.698005 221.002362 
L 147.589197 219.056999 
L 149.480388 220.408924 
L 151.37158 225.116085 
L 153.262771 224.277642 
L 155.153963 222.898577 
L 157.045154 225.513483 
L 159.251545 229.352127 
L 161.142736 231.353973 
L 163.033928 231.029012 
L 164.925119 229.32352 
L 166.816311 234.437798 
L 170.598694 231.973086 
L 172.489885 233.737996 
L 174.381077 232.747707 
L 176.272268 212.124811 
L 178.16346 216.098426 
L 180.054651 222.512549 
L 181.945843 224.566476 
L 183.837034 224.101409 
L 187.619417 225.777561 
L 189.510609 226.939497 
L 191.401801 228.804171 
L 193.292992 235.303382 
L 195.184184 234.740018 
L 197.075375 232.950474 
L 198.651368 229.431657 
L 200.54256 230.213616 
L 202.433751 206.115916 
L 204.324943 239.232556 
L 206.216134 218.095446 
L 208.107326 224.114182 
L 209.998517 218.154126 
L 211.889709 218.424072 
L 213.7809 226.788975 
L 215.98729 226.786775 
L 217.878482 230.899031 
L 221.660865 229.871333 
L 223.552056 230.549863 
L 225.443248 231.073024 
L 227.019241 237.851411 
L 229.225631 237.469968 
L 231.116823 234.573931 
L 233.008014 240.085054 
L 234.899206 230.788837 
L 236.790397 223.36462 
L 238.681589 213.827797 
L 240.57278 227.950014 
L 242.463972 227.813575 
L 244.355163 228.351997 
L 246.246355 228.027771 
L 248.137546 230.67587 
L 250.028738 231.758584 
L 251.919929 235.223118 
L 253.811121 233.549209 
L 255.387114 238.451492 
L 257.278305 235.850341 
L 259.169497 233.494927 
L 261.060688 233.302738 
L 262.95188 206.693378 
L 264.843071 246.67307 
L 266.734263 215.720387 
L 268.625455 229.933561 
L 270.516646 223.300844 
L 272.407838 228.362306 
L 274.299029 224.272792 
L 276.190221 231.344719 
L 278.396611 234.457886 
L 280.287802 234.176184 
L 281.863795 235.39387 
L 283.754987 238.798989 
L 285.646178 235.741572 
L 287.53737 236.310802 
L 289.428561 235.960901 
L 291.319753 239.933682 
L 293.526143 242.561241 
L 295.417335 245.207142 
L 297.308526 231.660757 
L 299.199718 235.371761 
L 301.090909 217.699919 
L 302.982101 223.244055 
L 304.873292 229.276 
L 306.764484 227.054825 
L 308.655675 226.080676 
L 310.546867 229.271599 
L 312.438058 230.974159 
L 314.32925 229.892912 
L 316.220441 232.355424 
L 318.111633 233.681675 
L 320.002824 227.667334 
L 321.894016 231.759785 
L 323.785207 232.742735 
L 325.676399 235.095948 
L 327.56759 234.41962 
L 329.458782 235.041666 
L 331.349974 233.552569 
L 333.241165 232.925551 
L 335.447555 234.467464 
L 337.338747 234.980946 
L 339.229938 237.229262 
L 341.12113 236.362212 
L 343.012321 234.440323 
L 344.903513 233.979657 
L 346.794704 235.008087 
L 348.685896 234.927397 
L 350.577087 235.46802 
L 352.468279 235.46802 
L 354.35947 236.307929 
L 356.250662 236.902835 
L 358.141853 236.929243 
L 360.033045 234.900256 
L 361.924237 234.900256 
L 363.815428 235.440879 
L 365.70662 236.415027 
L 367.597811 234.980946 
L 369.489003 234.980946 
L 371.380194 235.440879 
L 378.94496 235.414471 
L 381.15135 234.927397 
L 383.042542 235.46802 
L 384.933733 234.359633 
L 386.824925 232.951959 
L 388.716117 234.980946 
L 390.607308 237.416317 
L 392.4985 238.742241 
L 394.70489 238.228026 
L 398.487273 236.386827 
L 398.487273 236.386827 
" clip-path="url(#p7c14d5876b)" style="fill: none; stroke: #e377c2; stroke-linecap: square"/>
   </g>
   <g id="line2d_36">
    <path d="M 73.832727 230.558729 
L 77.299912 230.531588 
L 79.191103 231.068294 
L 81.397493 230.70112 
L 83.288685 230.673979 
L 85.179876 231.019164 
L 88.962259 230.437358 
L 90.853451 230.70112 
L 92.744643 230.570567 
L 94.635834 231.332056 
L 96.527026 229.934479 
L 98.418217 230.252523 
L 100.309409 231.332056 
L 104.091792 230.70112 
L 107.874175 230.780047 
L 109.765366 231.041153 
L 111.656558 231.443276 
L 113.547749 231.326903 
L 115.438941 234.731004 
L 117.330132 235.087873 
L 119.221324 236.621155 
L 121.112515 236.167247 
L 123.003707 237.178316 
L 124.894898 237.138215 
L 126.78609 237.379988 
L 128.677282 236.256637 
L 130.568473 236.675437 
L 132.459665 236.544884 
L 134.350856 237.116226 
L 136.242048 234.834416 
L 138.133239 232.998547 
L 140.024431 237.663456 
L 141.915622 233.222366 
L 143.806814 231.708155 
L 145.698005 225.594042 
L 147.589197 225.054993 
L 149.480388 227.113302 
L 151.37158 226.30656 
L 153.262771 224.906328 
L 155.153963 226.395791 
L 157.045154 226.643974 
L 159.251545 228.632385 
L 161.142736 228.918135 
L 163.033928 228.17598 
L 164.925119 230.875529 
L 166.816311 228.962113 
L 168.707502 229.578868 
L 170.598694 232.317083 
L 172.489885 228.716622 
L 174.381077 220.933736 
L 176.272268 224.466692 
L 178.16346 222.71984 
L 180.054651 227.031915 
L 181.945843 226.407353 
L 183.837034 229.719567 
L 185.728226 231.082194 
L 187.619417 230.239282 
L 189.510609 231.077042 
L 191.401801 234.769548 
L 193.292992 230.071442 
L 195.184184 227.395317 
L 197.075375 231.660814 
L 198.651368 230.733664 
L 200.54256 232.387195 
L 202.433751 235.049408 
L 204.324943 226.033061 
L 206.216134 233.140931 
L 208.107326 219.68488 
L 209.998517 223.445532 
L 211.889709 225.745614 
L 213.7809 221.393982 
L 215.98729 224.322344 
L 217.878482 223.730233 
L 219.769673 224.33918 
L 221.660865 223.390201 
L 223.552056 222.631367 
L 225.443248 225.337392 
L 227.019241 222.055558 
L 229.225631 224.82357 
L 231.116823 225.671635 
L 233.008014 213.519149 
L 234.899206 227.334408 
L 236.790397 215.53975 
L 238.681589 220.578793 
L 240.57278 220.439314 
L 242.463972 222.869949 
L 244.355163 222.908616 
L 246.246355 224.447209 
L 248.137546 224.584135 
L 250.028738 226.623111 
L 251.919929 224.875197 
L 253.811121 226.801006 
L 255.387114 223.638837 
L 257.278305 226.167573 
L 259.169497 227.382811 
L 261.060688 229.090624 
L 262.95188 232.442146 
L 264.843071 226.359099 
L 266.734263 228.378162 
L 268.625455 217.933276 
L 270.516646 221.157534 
L 272.407838 217.873682 
L 274.299029 224.031614 
L 276.190221 220.239389 
L 278.396611 220.320971 
L 280.287802 219.733771 
L 281.863795 221.294353 
L 283.754987 223.70422 
L 285.646178 224.34546 
L 287.53737 222.46949 
L 289.428561 222.346744 
L 291.319753 224.335175 
L 293.526143 222.491656 
L 295.417335 228.813814 
L 297.308526 224.805974 
L 299.199718 217.511572 
L 301.090909 221.895407 
L 302.982101 221.184269 
L 304.873292 222.726739 
L 306.764484 224.439704 
L 308.655675 224.493986 
L 310.546867 225.326594 
L 312.438058 226.531527 
L 314.32925 225.797179 
L 316.220441 225.370571 
L 318.111633 225.767542 
L 320.002824 220.339392 
L 321.894016 223.304454 
L 323.785207 221.307332 
L 325.676399 219.763587 
L 327.56759 220.850927 
L 329.458782 220.345392 
L 331.349974 221.693839 
L 333.241165 222.663439 
L 335.447555 222.685428 
L 337.338747 223.343504 
L 339.229938 221.339636 
L 343.012321 222.97633 
L 344.903513 223.688689 
L 346.794704 223.052601 
L 348.685896 222.949189 
L 350.577087 223.316363 
L 352.468279 223.316363 
L 354.35947 222.764354 
L 356.250662 222.549722 
L 358.141853 223.23494 
L 361.924237 223.240092 
L 363.815428 223.607266 
L 365.70662 223.552984 
L 367.597811 223.343504 
L 369.489003 223.343504 
L 371.380194 223.607266 
L 373.271386 222.922048 
L 381.15135 222.949189 
L 383.042542 223.316363 
L 384.933733 222.872918 
L 386.824925 223.348657 
L 388.716117 223.343504 
L 392.4985 223.133915 
L 394.70489 223.451959 
L 396.596081 223.506241 
L 398.487273 224.349153 
L 398.487273 224.349153 
" clip-path="url(#p7c14d5876b)" style="fill: none; stroke: #7f7f7f; stroke-linecap: square"/>
   </g>
   <g id="line2d_37">
    <path d="M 73.832727 81.822098 
L 77.299912 81.768549 
L 79.191103 82.159483 
L 81.397493 81.925815 
L 83.288685 81.872266 
L 85.179876 81.585049 
L 87.071068 81.872266 
L 88.962259 82.373679 
L 90.853451 81.925815 
L 92.744643 81.190734 
L 94.635834 81.711619 
L 96.527026 81.872266 
L 98.418217 81.5315 
L 100.309409 81.711619 
L 102.2006 81.477951 
L 104.091792 81.925815 
L 105.982983 82.553798 
L 107.874175 80.635772 
L 109.765366 82.105934 
L 111.656558 80.007789 
L 113.547749 82.178955 
L 115.438941 81.122581 
L 117.330132 82.290921 
L 119.221324 82.398019 
L 121.112515 85.839756 
L 123.003707 83.00653 
L 124.894898 85.805679 
L 126.78609 84.83693 
L 128.677282 80.246325 
L 130.568473 82.505117 
L 132.459665 81.770036 
L 134.350856 85.284794 
L 136.242048 81.804113 
L 138.133239 80.635772 
L 140.024431 70.023346 
L 141.915622 79.618342 
L 143.806814 78.620385 
L 145.698005 87.368334 
L 147.589197 83.439789 
L 149.480388 81.20047 
L 151.37158 83.94607 
L 153.262771 86.024743 
L 155.153963 81.721355 
L 157.045154 80.893105 
L 159.251545 83.317411 
L 161.142736 83.390432 
L 163.033928 85.308458 
L 164.925119 81.920271 
L 166.816311 84.432203 
L 168.707502 81.31176 
L 170.598694 82.801394 
L 172.489885 78.191317 
L 174.381077 73.128508 
L 176.272268 77.154415 
L 178.16346 87.197275 
L 180.054651 75.888713 
L 181.945843 81.394517 
L 183.837034 84.480884 
L 185.728226 86.65205 
L 187.619417 85.970518 
L 189.510609 87.119386 
L 191.401801 84.218007 
L 193.292992 82.747845 
L 195.184184 78.979947 
L 197.075375 79.280822 
L 198.651368 83.725384 
L 200.54256 85.502235 
L 202.433751 62.860769 
L 204.324943 80.804532 
L 206.216134 78.341281 
L 208.107326 81.437384 
L 209.998517 88.28678 
L 211.889709 85.078712 
L 215.98729 82.282402 
L 217.878482 84.005704 
L 219.769673 83.270623 
L 221.660865 83.825585 
L 223.552056 81.386674 
L 225.443248 81.650362 
L 227.019241 83.750806 
L 229.225631 83.375963 
L 231.116823 83.590159 
L 233.008014 72.413035 
L 234.899206 75.304678 
L 236.790397 67.725069 
L 238.681589 81.871725 
L 240.57278 84.461546 
L 242.463972 81.988559 
L 244.355163 86.866381 
L 246.246355 83.137427 
L 248.137546 89.164117 
L 250.028738 84.485887 
L 251.919929 85.401087 
L 253.811121 84.816241 
L 255.387114 81.535151 
L 257.278305 83.579747 
L 259.169497 84.027611 
L 261.060688 85.91156 
L 262.95188 53.568 
L 264.843071 82.976104 
L 266.734263 79.266623 
L 268.625455 83.409364 
L 270.516646 84.412189 
L 272.407838 87.138317 
L 274.299029 82.800853 
L 276.190221 87.829991 
L 278.396611 84.621923 
L 280.287802 85.480599 
L 281.863795 82.272531 
L 283.754987 85.037603 
L 285.646178 83.888735 
L 287.53737 85.519544 
L 289.428561 82.399101 
L 291.319753 86.918036 
L 293.526143 84.766343 
L 295.417335 83.140402 
L 297.308526 74.397321 
L 299.199718 80.365593 
L 301.090909 79.318955 
L 302.982101 85.131449 
L 304.873292 85.243415 
L 306.764484 86.660028 
L 308.655675 86.767126 
L 310.546867 88.38333 
L 312.438058 89.765866 
L 314.32925 89.29853 
L 316.220441 89.425101 
L 318.111633 87.794292 
L 320.002824 62.825882 
L 321.894016 94.049782 
L 323.785207 81.514462 
L 325.676399 85.710751 
L 327.56759 83.505509 
L 329.458782 84.922121 
L 331.349974 84.187041 
L 333.241165 84.114154 
L 335.447555 84.63504 
L 337.338747 84.474393 
L 339.229938 83.452095 
L 341.12113 84.133627 
L 343.012321 84.240725 
L 344.903513 84.187176 
L 346.794704 84.868708 
L 348.685896 84.187176 
L 350.577087 84.420844 
L 352.468279 84.420844 
L 354.35947 83.344997 
L 356.250662 84.367295 
L 358.141853 84.260197 
L 360.033045 83.792861 
L 361.924237 83.792861 
L 363.815428 84.026529 
L 365.70662 83.919431 
L 367.597811 84.474393 
L 369.489003 84.474393 
L 371.380194 84.026529 
L 375.162577 84.133627 
L 381.15135 84.187176 
L 383.042542 84.420844 
L 384.933733 83.559193 
L 388.716117 84.474393 
L 390.607308 84.206648 
L 392.4985 84.060876 
L 394.70489 83.72011 
L 396.596081 83.827208 
L 398.487273 84.50874 
L 398.487273 84.50874 
" clip-path="url(#p7c14d5876b)" style="fill: none; stroke: #bcbd22; stroke-linecap: square"/>
   </g>
   <g id="patch_3">
    <path d="M 57.6 307.584 
L 57.6 41.472 
" style="fill: none; stroke: #000000; stroke-width: 0.8; stroke-linejoin: miter; stroke-linecap: square"/>
   </g>
   <g id="patch_4">
    <path d="M 414.72 307.584 
L 414.72 41.472 
" style="fill: none; stroke: #000000; stroke-width: 0.8; stroke-linejoin: miter; stroke-linecap: square"/>
   </g>
   <g id="patch_5">
    <path d="M 57.6 307.584 
L 414.72 307.584 
" style="fill: none; stroke: #000000; stroke-width: 0.8; stroke-linejoin: miter; stroke-linecap: square"/>
   </g>
   <g id="patch_6">
    <path d="M 57.6 41.472 
L 414.72 41.472 
" style="fill: none; stroke: #000000; stroke-width: 0.8; stroke-linejoin: miter; stroke-linecap: square"/>
   </g>
   <g id="text_17">
    <!-- IMU Positions -->
    <g transform="translate(196.4325 35.472) scale(0.12 -0.12)">
     <defs>
      <path id="DejaVuSans-49" d="M 628 4666 
L 1259 4666 
L 1259 0 
L 628 0 
L 628 4666 
z
" transform="scale(0.015625)"/>
      <path id="DejaVuSans-4d" d="M 628 4666 
L 1569 4666 
L 2759 1491 
L 3956 4666 
L 4897 4666 
L 4897 0 
L 4281 0 
L 4281 4097 
L 3078 897 
L 2444 897 
L 1241 4097 
L 1241 0 
L 628 0 
L 628 4666 
z
" transform="scale(0.015625)"/>
      <path id="DejaVuSans-55" d="M 556 4666 
L 1191 4666 
L 1191 1831 
Q 1191 1081 1462 751 
Q 1734 422 2344 422 
Q 2950 422 3222 751 
Q 3494 1081 3494 1831 
L 3494 4666 
L 4128 4666 
L 4128 1753 
Q 4128 841 3676 375 
Q 3225 -91 2344 -91 
Q 1459 -91 1007 375 
Q 556 841 556 1753 
L 556 4666 
z
" transform="scale(0.015625)"/>
     </defs>
     <use xlink:href="#DejaVuSans-49"/>
     <use xlink:href="#DejaVuSans-4d" x="29.492188"/>
     <use xlink:href="#DejaVuSans-55" x="115.771484"/>
     <use xlink:href="#DejaVuSans-20" x="188.964844"/>
     <use xlink:href="#DejaVuSans-50" x="220.751953"/>
     <use xlink:href="#DejaVuSans-6f" x="277.429688"/>
     <use xlink:href="#DejaVuSans-73" x="338.611328"/>
     <use xlink:href="#DejaVuSans-69" x="390.710938"/>
     <use xlink:href="#DejaVuSans-74" x="418.494141"/>
     <use xlink:href="#DejaVuSans-69" x="457.703125"/>
     <use xlink:href="#DejaVuSans-6f" x="485.486328"/>
     <use xlink:href="#DejaVuSans-6e" x="546.667969"/>
     <use xlink:href="#DejaVuSans-73" x="610.046875"/>
    </g>
   </g>
   <g id="legend_1">
    <g id="patch_7">
     <path d="M 410.658313 215.468363 
L 461.288 215.468363 
Q 463.288 215.468363 463.288 213.468363 
L 463.288 82.365238 
Q 463.288 80.365238 461.288 80.365238 
L 410.658313 80.365238 
Q 408.658313 80.365238 408.658313 82.365238 
L 408.658313 213.468363 
Q 408.658313 215.468363 410.658313 215.468363 
z
" style="fill: #ffffff; opacity: 0.8; stroke: #cccccc; stroke-linejoin: miter"/>
    </g>
    <g id="line2d_38">
     <path d="M 412.658313 88.463675 
L 422.658313 88.463675 
L 432.658313 88.463675 
" style="fill: none; stroke: #1f77b4; stroke-linecap: square"/>
    </g>
    <g id="text_18">
     <!-- px1 -->
     <g transform="translate(440.658313 91.963675) scale(0.1 -0.1)">
      <defs>
       <path id="DejaVuSans-70" d="M 1159 525 
L 1159 -1331 
L 581 -1331 
L 581 3500 
L 1159 3500 
L 1159 2969 
Q 1341 3281 1617 3432 
Q 1894 3584 2278 3584 
Q 2916 3584 3314 3078 
Q 3713 2572 3713 1747 
Q 3713 922 3314 415 
Q 2916 -91 2278 -91 
Q 1894 -91 1617 61 
Q 1341 213 1159 525 
z
M 3116 1747 
Q 3116 2381 2855 2742 
Q 2594 3103 2138 3103 
Q 1681 3103 1420 2742 
Q 1159 2381 1159 1747 
Q 1159 1113 1420 752 
Q 1681 391 2138 391 
Q 2594 391 2855 752 
Q 3116 1113 3116 1747 
z
" transform="scale(0.015625)"/>
       <path id="DejaVuSans-78" d="M 3513 3500 
L 2247 1797 
L 3578 0 
L 2900 0 
L 1881 1375 
L 863 0 
L 184 0 
L 1544 1831 
L 300 3500 
L 978 3500 
L 1906 2253 
L 2834 3500 
L 3513 3500 
z
" transform="scale(0.015625)"/>
      </defs>
      <use xlink:href="#DejaVuSans-70"/>
      <use xlink:href="#DejaVuSans-78" x="63.476562"/>
      <use xlink:href="#DejaVuSans-31" x="122.65625"/>
     </g>
    </g>
    <g id="line2d_39">
     <path d="M 412.658313 103.1418 
L 422.658313 103.1418 
L 432.658313 103.1418 
" style="fill: none; stroke: #ff7f0e; stroke-linecap: square"/>
    </g>
    <g id="text_19">
     <!-- py1 -->
     <g transform="translate(440.658313 106.6418) scale(0.1 -0.1)">
      <defs>
       <path id="DejaVuSans-79" d="M 2059 -325 
Q 1816 -950 1584 -1140 
Q 1353 -1331 966 -1331 
L 506 -1331 
L 506 -850 
L 844 -850 
Q 1081 -850 1212 -737 
Q 1344 -625 1503 -206 
L 1606 56 
L 191 3500 
L 800 3500 
L 1894 763 
L 2988 3500 
L 3597 3500 
L 2059 -325 
z
" transform="scale(0.015625)"/>
      </defs>
      <use xlink:href="#DejaVuSans-70"/>
      <use xlink:href="#DejaVuSans-79" x="63.476562"/>
      <use xlink:href="#DejaVuSans-31" x="122.65625"/>
     </g>
    </g>
    <g id="line2d_40">
     <path d="M 412.658313 117.819925 
L 422.658313 117.819925 
L 432.658313 117.819925 
" style="fill: none; stroke: #2ca02c; stroke-linecap: square"/>
    </g>
    <g id="text_20">
     <!-- pz1 -->
     <g transform="translate(440.658313 121.319925) scale(0.1 -0.1)">
      <defs>
       <path id="DejaVuSans-7a" d="M 353 3500 
L 3084 3500 
L 3084 2975 
L 922 459 
L 3084 459 
L 3084 0 
L 275 0 
L 275 525 
L 2438 3041 
L 353 3041 
L 353 3500 
z
" transform="scale(0.015625)"/>
      </defs>
      <use xlink:href="#DejaVuSans-70"/>
      <use xlink:href="#DejaVuSans-7a" x="63.476562"/>
      <use xlink:href="#DejaVuSans-31" x="115.966797"/>
     </g>
    </g>
    <g id="line2d_41">
     <path d="M 412.658313 132.49805 
L 422.658313 132.49805 
L 432.658313 132.49805 
" style="fill: none; stroke: #d62728; stroke-linecap: square"/>
    </g>
    <g id="text_21">
     <!-- px2 -->
     <g transform="translate(440.658313 135.99805) scale(0.1 -0.1)">
      <use xlink:href="#DejaVuSans-70"/>
      <use xlink:href="#DejaVuSans-78" x="63.476562"/>
      <use xlink:href="#DejaVuSans-32" x="122.65625"/>
     </g>
    </g>
    <g id="line2d_42">
     <path d="M 412.658313 147.176175 
L 422.658313 147.176175 
L 432.658313 147.176175 
" style="fill: none; stroke: #9467bd; stroke-linecap: square"/>
    </g>
    <g id="text_22">
     <!-- py2 -->
     <g transform="translate(440.658313 150.676175) scale(0.1 -0.1)">
      <use xlink:href="#DejaVuSans-70"/>
      <use xlink:href="#DejaVuSans-79" x="63.476562"/>
      <use xlink:href="#DejaVuSans-32" x="122.65625"/>
     </g>
    </g>
    <g id="line2d_43">
     <path d="M 412.658313 161.8543 
L 422.658313 161.8543 
L 432.658313 161.8543 
" style="fill: none; stroke: #8c564b; stroke-linecap: square"/>
    </g>
    <g id="text_23">
     <!-- pz2 -->
     <g transform="translate(440.658313 165.3543) scale(0.1 -0.1)">
      <use xlink:href="#DejaVuSans-70"/>
      <use xlink:href="#DejaVuSans-7a" x="63.476562"/>
      <use xlink:href="#DejaVuSans-32" x="115.966797"/>
     </g>
    </g>
    <g id="line2d_44">
     <path d="M 412.658313 176.532425 
L 422.658313 176.532425 
L 432.658313 176.532425 
" style="fill: none; stroke: #e377c2; stroke-linecap: square"/>
    </g>
    <g id="text_24">
     <!-- px3 -->
     <g transform="translate(440.658313 180.032425) scale(0.1 -0.1)">
      <defs>
       <path id="DejaVuSans-33" d="M 2597 2516 
Q 3050 2419 3304 2112 
Q 3559 1806 3559 1356 
Q 3559 666 3084 287 
Q 2609 -91 1734 -91 
Q 1441 -91 1130 -33 
Q 819 25 488 141 
L 488 750 
Q 750 597 1062 519 
Q 1375 441 1716 441 
Q 2309 441 2620 675 
Q 2931 909 2931 1356 
Q 2931 1769 2642 2001 
Q 2353 2234 1838 2234 
L 1294 2234 
L 1294 2753 
L 1863 2753 
Q 2328 2753 2575 2939 
Q 2822 3125 2822 3475 
Q 2822 3834 2567 4026 
Q 2313 4219 1838 4219 
Q 1578 4219 1281 4162 
Q 984 4106 628 3988 
L 628 4550 
Q 988 4650 1302 4700 
Q 1616 4750 1894 4750 
Q 2613 4750 3031 4423 
Q 3450 4097 3450 3541 
Q 3450 3153 3228 2886 
Q 3006 2619 2597 2516 
z
" transform="scale(0.015625)"/>
      </defs>
      <use xlink:href="#DejaVuSans-70"/>
      <use xlink:href="#DejaVuSans-78" x="63.476562"/>
      <use xlink:href="#DejaVuSans-33" x="122.65625"/>
     </g>
    </g>
    <g id="line2d_45">
     <path d="M 412.658313 191.21055 
L 422.658313 191.21055 
L 432.658313 191.21055 
" style="fill: none; stroke: #7f7f7f; stroke-linecap: square"/>
    </g>
    <g id="text_25">
     <!-- py3 -->
     <g transform="translate(440.658313 194.71055) scale(0.1 -0.1)">
      <use xlink:href="#DejaVuSans-70"/>
      <use xlink:href="#DejaVuSans-79" x="63.476562"/>
      <use xlink:href="#DejaVuSans-33" x="122.65625"/>
     </g>
    </g>
    <g id="line2d_46">
     <path d="M 412.658313 205.888675 
L 422.658313 205.888675 
L 432.658313 205.888675 
" style="fill: none; stroke: #bcbd22; stroke-linecap: square"/>
    </g>
    <g id="text_26">
     <!-- pz3 -->
     <g transform="translate(440.658313 209.388675) scale(0.1 -0.1)">
      <use xlink:href="#DejaVuSans-70"/>
      <use xlink:href="#DejaVuSans-7a" x="63.476562"/>
      <use xlink:href="#DejaVuSans-33" x="115.966797"/>
     </g>
    </g>
   </g>
  </g>
 </g>
 <defs>
  <clipPath id="p7c14d5876b">
   <rect x="57.6" y="41.472" width="357.12" height="266.112"/>
  </clipPath>
 </defs>
</svg>
